<svg xmlns="http://www.w3.org/2000/svg" xmlns:xlink="http://www.w3.org/1999/xlink" width="1028" zoomAndPan="magnify" viewBox="0 0 770.88 696.749996" height="929" preserveAspectRatio="xMidYMid meet" version="1.2"><defs><clipPath id="6e1d024c40"><path d="M 477 26 L 648 26 L 648 179 L 477 179 Z M 477 26 "/></clipPath><clipPath id="3b909e7fa1"><path d="M 455.214844 53.332031 L 500.566406 0 L 648.0625 125.417969 L 602.714844 178.753906 Z M 455.214844 53.332031 "/></clipPath><clipPath id="e146080130"><path d="M 477.890625 26.664062 L 647.96875 125.339844 L 602.621094 178.671875 Z M 477.890625 26.664062 "/></clipPath><clipPath id="a339d612bb"><path d="M 600 123 L 665 123 L 665 175 L 600 175 Z M 600 123 "/></clipPath><clipPath id="d59ab4c80b"><path d="M 609.960938 189.179688 L 590.285156 159.015625 L 644.835938 123.429688 L 664.511719 153.59375 Z M 609.960938 189.179688 "/></clipPath><clipPath id="e37fa951ee"><path d="M 600.121094 174.097656 L 644.773438 123.46875 L 664.453125 153.632812 Z M 600.121094 174.097656 "/></clipPath><clipPath id="ffcbe750fc"><path d="M 643 123 L 685 123 L 685 167 L 643 167 Z M 643 123 "/></clipPath><clipPath id="25142c4731"><path d="M 685.617188 125.21875 L 683.765625 168.085938 L 643.273438 166.339844 L 645.121094 123.472656 Z M 685.617188 125.21875 "/></clipPath><clipPath id="10109916ec"><path d="M 684.695312 146.59375 L 643.277344 166.226562 L 645.121094 123.472656 Z M 684.695312 146.59375 "/></clipPath><clipPath id="878b54d002"><path d="M 605 139 L 650 139 L 650 187 L 605 187 Z M 605 139 "/></clipPath><clipPath id="1d0966a0fa"><path d="M 619.09375 198.316406 L 592.003906 174.585938 L 622.6875 139.5625 L 649.777344 163.292969 Z M 619.09375 198.316406 "/></clipPath><clipPath id="d6b0590efa"><path d="M 605.546875 186.453125 L 622.65625 139.597656 L 649.742188 163.328125 Z M 605.546875 186.453125 "/></clipPath><clipPath id="f5480f9a28"><path d="M 581 149 L 625 149 L 625 187 L 581 187 Z M 581 149 "/></clipPath><clipPath id="cb1dc02eb0"><path d="M 572.824219 162.875 L 591.164062 136.734375 L 624.964844 160.449219 L 606.625 186.589844 Z M 572.824219 162.875 "/></clipPath><clipPath id="4b21e1d135"><path d="M 581.992188 149.804688 L 624.929688 160.425781 L 606.585938 186.566406 Z M 581.992188 149.804688 "/></clipPath><clipPath id="38f1595764"><path d="M 175 200 L 252 200 L 252 412 L 175 412 Z M 175 200 "/></clipPath><clipPath id="5dbb9ffb74"><path d="M 212.382812 418.144531 L 138.734375 404.078125 L 177.636719 200.390625 L 251.285156 214.457031 Z M 212.382812 418.144531 "/></clipPath><clipPath id="ef0adc3cc6"><path d="M 175.558594 411.109375 L 177.613281 200.519531 L 251.261719 214.585938 Z M 175.558594 411.109375 "/></clipPath><clipPath id="633a8ffc55"><path d="M 177 170 L 249 170 L 249 220 L 177 220 Z M 177 170 "/></clipPath><clipPath id="8188b92524"><path d="M 257.167969 202.191406 L 239.464844 236.457031 L 177.484375 204.441406 L 195.1875 170.171875 Z M 257.167969 202.191406 "/></clipPath><clipPath id="3be3204006"><path d="M 248.316406 219.324219 L 177.550781 204.476562 L 195.253906 170.207031 Z M 248.316406 219.324219 "/></clipPath><clipPath id="c412e90f15"><path d="M 177 155 L 219 155 L 219 205 L 177 205 Z M 177 155 "/></clipPath><clipPath id="bcf18d530c"><path d="M 157.605469 165.503906 L 198.519531 144.574219 L 218.289062 183.222656 L 177.375 204.152344 Z M 157.605469 165.503906 "/></clipPath><clipPath id="91591217ee"><path d="M 178.007812 155.066406 L 218.179688 183.28125 L 177.375 204.152344 Z M 178.007812 155.066406 "/></clipPath><clipPath id="b619738b50"><path d="M 204 178 L 257 178 L 257 217 L 204 217 Z M 204 178 "/></clipPath><clipPath id="7b98abb9c7"><path d="M 260.859375 188.855469 L 253.066406 226.632812 L 204.222656 216.554688 L 212.015625 178.777344 Z M 260.859375 188.855469 "/></clipPath><clipPath id="bc8810380b"><path d="M 256.964844 207.746094 L 204.273438 216.566406 L 212.070312 178.789062 Z M 256.964844 207.746094 "/></clipPath><clipPath id="2c2c086d30"><path d="M 222 203 L 257 203 L 257 250 L 222 250 Z M 222 203 "/></clipPath><clipPath id="796f504f7f"><path d="M 252.28125 250.683594 L 218.238281 247.410156 L 222.46875 203.390625 L 256.515625 206.664062 Z M 252.28125 250.683594 "/></clipPath><clipPath id="e60fa143f8"><path d="M 235.261719 249.046875 L 222.464844 203.4375 L 256.511719 206.710938 Z M 235.261719 249.046875 "/></clipPath><clipPath id="4bb4aaffd1"><path d="M 460 459 L 689 459 L 689 567 L 460 567 Z M 460 459 "/></clipPath><clipPath id="2cf235d82b"><path d="M 675.996094 420.363281 L 700.652344 498.214844 L 485.339844 566.40625 L 460.683594 488.554688 Z M 675.996094 420.363281 "/></clipPath><clipPath id="1d3a836dde"><path d="M 688.324219 459.289062 L 485.476562 566.363281 L 460.820312 488.511719 Z M 688.324219 459.289062 "/></clipPath><clipPath id="bf845870c6"><path d="M 447 488 L 490 488 L 490 566 L 447 566 Z M 447 488 "/></clipPath><clipPath id="777fafdabe"><path d="M 445.886719 489.265625 L 487.886719 488.484375 L 489.304688 564.449219 L 447.300781 565.230469 Z M 445.886719 489.265625 "/></clipPath><clipPath id="2131391a48"><path d="M 466.886719 488.875 L 489.300781 564.367188 L 447.300781 565.148438 Z M 466.886719 488.875 "/></clipPath><clipPath id="8a37606960"><path d="M 441 536 L 490 536 L 490 590 L 441 590 Z M 441 536 "/></clipPath><clipPath id="2a0e752f80"><path d="M 462.285156 603.660156 L 421.046875 575.296875 L 447.839844 536.339844 L 489.082031 564.703125 Z M 462.285156 603.660156 "/></clipPath><clipPath id="09de3c1326"><path d="M 441.722656 589.515625 L 447.953125 536.414062 L 489.082031 564.703125 Z M 441.722656 589.515625 "/></clipPath><clipPath id="a8bc571d58"><path d="M 446 486 L 488 486 L 488 545 L 446 545 Z M 446 486 "/></clipPath><clipPath id="3c676033e2"><path d="M 431.195312 492.636719 L 471.425781 480.542969 L 487.0625 532.5625 L 446.828125 544.652344 Z M 431.195312 492.636719 "/></clipPath><clipPath id="90ac1a04b6"><path d="M 451.3125 486.589844 L 487.042969 532.507812 L 446.8125 544.597656 Z M 451.3125 486.589844 "/></clipPath><clipPath id="76b9871229"><path d="M 450 485 L 503 485 L 503 522 L 450 522 Z M 450 485 "/></clipPath><clipPath id="174aa0437f"><path d="M 494.878906 468.832031 L 509.371094 503.148438 L 465 521.886719 L 450.507812 487.570312 Z M 494.878906 468.832031 "/></clipPath><clipPath id="382f264237"><path d="M 502.125 485.992188 L 465.046875 521.867188 L 450.554688 487.550781 Z M 502.125 485.992188 "/></clipPath><clipPath id="911d65eb00"><path d="M 244 25 L 397 25 L 397 161 L 244 161 Z M 244 25 "/></clipPath><clipPath id="dfdd171edd"><path d="M 377.617188 3.910156 L 414.535156 47.851562 L 280.996094 160.046875 L 244.078125 116.105469 Z M 377.617188 3.910156 "/></clipPath><clipPath id="e987ba518b"><path d="M 396.078125 25.878906 L 281.015625 160.035156 L 244.097656 116.09375 Z M 396.078125 25.878906 "/></clipPath><clipPath id="79b0d4dbb0"><path d="M 190 112 L 250 112 L 250 162 L 190 162 Z M 190 112 "/></clipPath><clipPath id="e63122a1c9"><path d="M 267.976562 143.914062 L 209.683594 179.015625 L 190.921875 147.859375 L 249.21875 112.757812 Z M 267.976562 143.914062 "/></clipPath><clipPath id="b5cb00e70a"><path d="M 238.847656 161.453125 L 190.957031 147.839844 L 249.21875 112.757812 Z M 238.847656 161.453125 "/></clipPath><clipPath id="68d344f032"><path d="M 247 125 L 306 125 L 306 182 L 247 182 Z M 247 125 "/></clipPath><clipPath id="496985ea9d"><path d="M 226.386719 152.644531 L 268.40625 99.148438 L 305.71875 128.457031 L 263.703125 181.953125 Z M 226.386719 152.644531 "/></clipPath><clipPath id="3602728267"><path d="M 247.390625 125.902344 L 305.710938 128.472656 L 263.703125 181.953125 Z M 247.390625 125.902344 "/></clipPath><clipPath id="dbe6b16449"><path d="M 190 130 L 260 130 L 260 185 L 190 185 Z M 190 130 "/></clipPath><clipPath id="52321d1af3"><path d="M 210.257812 112.003906 L 279.238281 148.339844 L 259.941406 184.976562 L 190.960938 148.644531 Z M 210.257812 112.003906 "/></clipPath><clipPath id="c2fbbf2d75"><path d="M 244.71875 130.15625 L 259.882812 184.945312 L 190.960938 148.644531 Z M 244.71875 130.15625 "/></clipPath><clipPath id="38455fee6c"><path d="M 233 111 L 291 111 L 291 174 L 233 174 Z M 233 111 "/></clipPath><clipPath id="a0e0543de6"><path d="M 219.105469 153.511719 L 247.125 91.527344 L 290.363281 111.074219 L 262.339844 173.058594 Z M 219.105469 153.511719 "/></clipPath><clipPath id="90ee5af324"><path d="M 233.109375 122.527344 L 290.355469 111.089844 L 262.339844 173.058594 Z M 233.109375 122.527344 "/></clipPath><clipPath id="89a5ff5619"><path d="M 243 132 L 300 132 L 300 186 L 243 186 Z M 243 132 "/></clipPath><clipPath id="a0911cd780"><path d="M 224.539062 156.660156 L 262.394531 108.265625 L 299.265625 137.109375 L 261.410156 185.503906 Z M 224.539062 156.660156 "/></clipPath><clipPath id="a7e8a821e8"><path d="M 243.421875 132.519531 L 299.175781 137.222656 L 261.410156 185.503906 Z M 243.421875 132.519531 "/></clipPath><clipPath id="62034b6385"><path d="M 233 139 L 262 139 L 262 186 L 233 186 Z M 233 139 "/></clipPath><clipPath id="97bc9eda39"><path d="M 269.191406 181.429688 L 253.277344 188.9375 L 233.273438 146.539062 L 249.191406 139.03125 Z M 269.191406 181.429688 "/></clipPath><clipPath id="3f94d7a362"><path d="M 261.234375 185.183594 L 233.304688 146.601562 L 249.21875 139.09375 Z M 261.234375 185.183594 "/></clipPath><clipPath id="ef3ed4fb3f"><path d="M 246 140 L 278 140 L 278 186 L 246 186 Z M 246 140 "/></clipPath><clipPath id="8be6b50e6e"><path d="M 270.128906 136.355469 L 285.238281 145.378906 L 261.203125 185.628906 L 246.09375 176.609375 Z M 270.128906 136.355469 "/></clipPath><clipPath id="6d49afb8c1"><path d="M 277.683594 140.867188 L 261.238281 185.570312 L 246.128906 176.550781 Z M 277.683594 140.867188 "/></clipPath><clipPath id="ea6df1a59c"><path d="M 634 221 L 698 221 L 698 417 L 634 417 Z M 634 221 "/></clipPath><clipPath id="e1315bf79b"><path d="M 723.636719 411.820312 L 660.949219 420.582031 L 634.328125 230.070312 L 697.015625 221.308594 Z M 723.636719 411.820312 "/></clipPath><clipPath id="1d81767ba2"><path d="M 692.292969 416.199219 L 634.332031 230.09375 L 697.019531 221.332031 Z M 692.292969 416.199219 "/></clipPath><clipPath id="f192907798"><path d="M 657 153 L 699 153 L 699 229 L 657 229 Z M 657 153 "/></clipPath><clipPath id="7ecaf56b90"><path d="M 657.03125 227.351562 L 658.378906 152.316406 L 698.484375 153.035156 L 697.132812 228.070312 Z M 657.03125 227.351562 "/></clipPath><clipPath id="807be616ec"><path d="M 657.707031 189.855469 L 698.480469 153.078125 L 697.132812 228.070312 Z M 657.707031 189.855469 "/></clipPath><clipPath id="40404a6c30"><path d="M 623 201 L 686 201 L 686 272 L 623 272 Z M 623 201 "/></clipPath><clipPath id="1b6647699e"><path d="M 673.234375 183.375 L 698.613281 253.976562 L 649.363281 271.679688 L 623.988281 201.078125 Z M 673.234375 183.375 "/></clipPath><clipPath id="3bb95b8398"><path d="M 685.921875 218.667969 L 649.359375 271.660156 L 623.988281 201.078125 Z M 685.921875 218.667969 "/></clipPath><clipPath id="fd723d5d20"><path d="M 623 152 L 698 152 L 698 214 L 623 214 Z M 623 152 "/></clipPath><clipPath id="553eb2eb3b"><path d="M 720.660156 192.105469 L 646.300781 235.285156 L 623.367188 195.789062 L 697.726562 152.613281 Z M 720.660156 192.105469 "/></clipPath><clipPath id="3137d316fb"><path d="M 683.511719 213.675781 L 623.429688 195.753906 L 697.726562 152.613281 Z M 683.511719 213.675781 "/></clipPath><clipPath id="a348b72647"><path d="M 633 205 L 698 205 L 698 268 L 633 268 Z M 633 205 "/></clipPath><clipPath id="36d173053c"><path d="M 676.691406 176.0625 L 718.199219 238.558594 L 674.605469 267.511719 L 633.097656 205.015625 Z M 676.691406 176.0625 "/></clipPath><clipPath id="fdba3c417c"><path d="M 697.4375 207.300781 L 674.59375 267.496094 L 633.097656 205.015625 Z M 697.4375 207.300781 "/></clipPath><clipPath id="ba3fb3b38c"><path d="M 622 196 L 683 196 L 683 261 L 622 261 Z M 622 196 "/></clipPath><clipPath id="c6851762ac"><path d="M 670.5625 179.292969 L 693.609375 243.015625 L 645.058594 260.574219 L 622.011719 196.851562 Z M 670.5625 179.292969 "/></clipPath><clipPath id="8933efd65f"><path d="M 682.058594 211.078125 L 645.003906 260.425781 L 622.011719 196.851562 Z M 682.058594 211.078125 "/></clipPath><clipPath id="91df3b08dd"><path d="M 622 193 L 675 193 L 675 213 L 622 213 Z M 622 193 "/></clipPath><clipPath id="5c94e5ae48"><path d="M 621.257812 206.507812 L 623.5625 187.238281 L 674.902344 193.382812 L 672.59375 212.65625 Z M 621.257812 206.507812 "/></clipPath><clipPath id="8c5bc6fb32"><path d="M 622.410156 196.875 L 674.828125 193.375 L 672.519531 212.644531 Z M 622.410156 196.875 "/></clipPath><clipPath id="fb2586b3ae"><path d="M 622 187 L 655 187 L 655 239 L 622 239 Z M 622 187 "/></clipPath><clipPath id="e72db1dd21"><path d="M 662.828125 233.789062 L 645.546875 242.625 L 622.011719 196.585938 L 639.292969 187.753906 Z M 662.828125 233.789062 "/></clipPath><clipPath id="735b7f04a4"><path d="M 654.1875 238.207031 L 622.046875 196.652344 L 639.328125 187.820312 Z M 654.1875 238.207031 "/></clipPath><clipPath id="b3f23b1ba3"><path d="M 174 451 L 390 451 L 390 555 L 174 555 Z M 174 451 "/></clipPath><clipPath id="0c822a7bcd"><path d="M 163.414062 485.28125 L 186.269531 418.53125 L 389.128906 487.984375 L 366.273438 554.738281 Z M 163.414062 485.28125 "/></clipPath><clipPath id="893e0c5997"><path d="M 174.84375 451.90625 L 389.101562 487.976562 L 366.25 554.726562 Z M 174.84375 451.90625 "/></clipPath><clipPath id="2a09ea8fc7"><path d="M 359 531 L 434 531 L 434 591 L 359 591 Z M 359 531 "/></clipPath><clipPath id="4f60791fd4"><path d="M 380.402344 511.933594 L 454.34375 551.054688 L 433.433594 590.570312 L 359.492188 551.449219 Z M 380.402344 511.933594 "/></clipPath><clipPath id="dd6bb1dddf"><path d="M 417.351562 531.484375 L 433.390625 590.550781 L 359.492188 551.449219 Z M 417.351562 531.484375 "/></clipPath><clipPath id="7ed0a6d495"><path d="M 340 481 L 424 481 L 424 546 L 340 546 Z M 340 481 "/></clipPath><clipPath id="ead9c0c0d9"><path d="M 415.972656 550.191406 L 332.980469 539.875 L 340.175781 481.988281 L 423.164062 492.300781 Z M 415.972656 550.191406 "/></clipPath><clipPath id="4e5d8104ca"><path d="M 374.488281 545.035156 L 340.199219 481.988281 L 423.164062 492.300781 Z M 374.488281 545.035156 "/></clipPath><clipPath id="5abda7f08d"><path d="M 380 494 L 435 494 L 435 591 L 380 591 Z M 380 494 "/></clipPath><clipPath id="31c24c18a4"><path d="M 383.417969 592.953125 L 377.921875 497.261719 L 428.746094 494.34375 L 434.242188 590.03125 Z M 383.417969 592.953125 "/></clipPath><clipPath id="78564b4b6a"><path d="M 380.671875 545.148438 L 428.75 494.425781 L 434.242188 590.03125 Z M 380.671875 545.148438 "/></clipPath><clipPath id="da603a95f0"><path d="M 331 499 L 415 499 L 415 563 L 331 563 Z M 331 499 "/></clipPath><clipPath id="7af2e8c0d7"><path d="M 421.503906 557.308594 L 338.457031 567.121094 L 331.609375 509.1875 L 414.660156 499.375 Z M 421.503906 557.308594 "/></clipPath><clipPath id="306014a675"><path d="M 379.992188 562.210938 L 331.632812 509.183594 L 414.660156 499.375 Z M 379.992188 562.210938 "/></clipPath><clipPath id="fc302af8d5"><path d="M 353 483 L 429 483 L 429 546 L 353 546 Z M 353 483 "/></clipPath><clipPath id="768429304b"><path d="M 421.386719 549.585938 L 346.410156 540.417969 L 353.394531 483.292969 L 428.371094 492.460938 Z M 421.386719 549.585938 "/></clipPath><clipPath id="9721a420b0"><path d="M 383.988281 545.011719 L 353.574219 483.316406 L 428.371094 492.460938 Z M 383.988281 545.011719 "/></clipPath><clipPath id="6d7e1b296e"><path d="M 387 492 L 429 492 L 429 547 L 387 547 Z M 387 492 "/></clipPath><clipPath id="06e9f9e712"><path d="M 419.140625 486.851562 L 437.144531 498.847656 L 405.183594 546.804688 L 387.179688 534.808594 Z M 419.140625 486.851562 "/></clipPath><clipPath id="be98be3e67"><path d="M 428.140625 492.847656 L 405.230469 546.734375 L 387.226562 534.738281 Z M 428.140625 492.847656 "/></clipPath><clipPath id="c2b92cd5d8"><path d="M 371 492 L 429 492 L 429 515 L 371 515 Z M 371 492 "/></clipPath><clipPath id="a2002585d4"><path d="M 371.085938 514.457031 L 371 492.824219 L 428.632812 492.601562 L 428.71875 514.234375 Z M 371.085938 514.457031 "/></clipPath><clipPath id="2d2c676a41"><path d="M 371.042969 503.640625 L 428.550781 492.601562 L 428.632812 514.234375 Z M 371.042969 503.640625 "/></clipPath><clipPath id="47973c92be"><path d="M 283.523438 9.226562 L 589 9.226562 L 589 183.621094 L 283.523438 183.621094 Z M 283.523438 9.226562 "/></clipPath><clipPath id="49c45b51bf"><path d="M 436.28125 9.226562 L 589.035156 183.621094 L 283.523438 183.621094 Z M 436.28125 9.226562 "/></clipPath><clipPath id="b74cbfa105"><path d="M 180 213 L 423 213 L 423 476 L 180 476 Z M 180 213 "/></clipPath><clipPath id="110b436fa8"><path d="M 258.019531 573.226562 L 102.101562 310.222656 L 266.316406 212.871094 L 422.238281 475.871094 Z M 258.019531 573.226562 "/></clipPath><clipPath id="2ec0111b0e"><path d="M 180.121094 441.828125 L 266.4375 213.074219 L 422.238281 475.871094 Z M 180.121094 441.828125 "/></clipPath><clipPath id="5c3b2f2479"><path d="M 449 214 L 692 214 L 692 477 L 449 477 Z M 449 214 "/></clipPath><clipPath id="f3946700f3"><path d="M 770.597656 312.90625 L 612.851562 574.816406 L 449.316406 476.320312 L 607.066406 214.410156 Z M 770.597656 312.90625 "/></clipPath><clipPath id="ea1dff2b97"><path d="M 691.785156 443.757812 L 449.441406 476.117188 L 607.066406 214.410156 Z M 691.785156 443.757812 "/></clipPath><clipPath id="964b6be727"><path d="M 276 198.316406 L 596.527344 198.316406 L 596.527344 478.757812 L 276 478.757812 Z M 276 198.316406 "/></clipPath><clipPath id="77b507fbf7"><path d="M 436.277344 478.757812 L 276.023438 198.316406 L 596.527344 198.316406 Z M 436.277344 478.757812 "/></clipPath><clipPath id="78e9b4a5a8"><path d="M 0.078125 324.289062 L 399.234375 324.289062 L 399.234375 597.554688 L 0.078125 597.554688 Z M 0.078125 324.289062 "/></clipPath><clipPath id="b181ecc8db"><path d="M 0.0820312 324.289062 L 398.710938 324.289062 L 398.710938 597.191406 L 0.0820312 597.191406 Z M 0.0820312 324.289062 "/></clipPath><clipPath id="7cd843f6a1"><path d="M 131.800781 643.664062 L 267.511719 643.664062 L 267.511719 695.800781 L 131.800781 695.800781 Z M 131.800781 643.664062 "/></clipPath><clipPath id="270f513f13"><path d="M 131.808594 643.664062 L 267.492188 643.664062 L 267.492188 695.789062 L 131.808594 695.789062 Z M 131.808594 643.664062 "/></clipPath><clipPath id="420ddff024"><path d="M 162.804688 555.023438 L 236.511719 555.023438 L 236.511719 660.566406 L 162.804688 660.566406 Z M 162.804688 555.023438 "/></clipPath><clipPath id="e63dc981da"><path d="M 25.5 351.210938 L 373.8125 351.210938 L 373.8125 570.632812 L 25.5 570.632812 Z M 25.5 351.210938 "/></clipPath><clipPath id="c1f0ad037c"><path d="M 25.5 351.210938 L 373.804688 351.210938 L 373.804688 570.625 L 25.5 570.625 Z M 25.5 351.210938 "/></clipPath></defs><g id="3ce8f898bb"><g clip-rule="nonzero" clip-path="url(#6e1d024c40)"><g clip-rule="nonzero" clip-path="url(#3b909e7fa1)"><g clip-rule="nonzero" clip-path="url(#e146080130)"><path style=" stroke:none;fill-rule:nonzero;fill:#f1e5d7;fill-opacity:1;" d="M 455.214844 53.332031 L 500.566406 0 L 648.0625 125.417969 L 602.714844 178.753906 Z M 455.214844 53.332031 "/></g></g></g><g clip-rule="nonzero" clip-path="url(#a339d612bb)"><g clip-rule="nonzero" clip-path="url(#d59ab4c80b)"><g clip-rule="nonzero" clip-path="url(#e37fa951ee)"><path style=" stroke:none;fill-rule:nonzero;fill:#f1e5d7;fill-opacity:1;" d="M 609.960938 189.179688 L 590.285156 159.015625 L 644.71875 123.507812 L 664.394531 153.667969 Z M 609.960938 189.179688 "/></g></g></g><g clip-rule="nonzero" clip-path="url(#ffcbe750fc)"><g clip-rule="nonzero" clip-path="url(#25142c4731)"><g clip-rule="nonzero" clip-path="url(#10109916ec)"><path style=" stroke:none;fill-rule:nonzero;fill:#f1e5d7;fill-opacity:1;" d="M 685.617188 125.21875 L 683.773438 167.929688 L 643.28125 166.183594 L 645.121094 123.472656 Z M 685.617188 125.21875 "/></g></g></g><g clip-rule="nonzero" clip-path="url(#878b54d002)"><g clip-rule="nonzero" clip-path="url(#1d0966a0fa)"><g clip-rule="nonzero" clip-path="url(#d6b0590efa)"><path style=" stroke:none;fill-rule:nonzero;fill:#f1e5d7;fill-opacity:1;" d="M 619.09375 198.316406 L 592.003906 174.585938 L 622.6875 139.5625 L 649.777344 163.292969 Z M 619.09375 198.316406 "/></g></g></g><g clip-rule="nonzero" clip-path="url(#f5480f9a28)"><g clip-rule="nonzero" clip-path="url(#cb1dc02eb0)"><g clip-rule="nonzero" clip-path="url(#4b21e1d135)"><path style=" stroke:none;fill-rule:nonzero;fill:#f1e5d7;fill-opacity:1;" d="M 572.824219 162.875 L 591.164062 136.734375 L 624.964844 160.449219 L 606.625 186.589844 Z M 572.824219 162.875 "/></g></g></g><g clip-rule="nonzero" clip-path="url(#38f1595764)"><g clip-rule="nonzero" clip-path="url(#5dbb9ffb74)"><g clip-rule="nonzero" clip-path="url(#ef0adc3cc6)"><path style=" stroke:none;fill-rule:nonzero;fill:#f1e5d7;fill-opacity:1;" d="M 212.382812 418.144531 L 138.734375 404.078125 L 177.636719 200.390625 L 251.285156 214.457031 Z M 212.382812 418.144531 "/></g></g></g><g clip-rule="nonzero" clip-path="url(#633a8ffc55)"><g clip-rule="nonzero" clip-path="url(#8188b92524)"><g clip-rule="nonzero" clip-path="url(#3be3204006)"><path style=" stroke:none;fill-rule:nonzero;fill:#f1e5d7;fill-opacity:1;" d="M 257.167969 202.191406 L 239.464844 236.457031 L 177.617188 204.511719 L 195.320312 170.242188 Z M 257.167969 202.191406 "/></g></g></g><g clip-rule="nonzero" clip-path="url(#c412e90f15)"><g clip-rule="nonzero" clip-path="url(#bcf18d530c)"><g clip-rule="nonzero" clip-path="url(#91591217ee)"><path style=" stroke:none;fill-rule:nonzero;fill:#f1e5d7;fill-opacity:1;" d="M 157.605469 165.503906 L 198.367188 144.652344 L 218.136719 183.300781 L 177.375 204.152344 Z M 157.605469 165.503906 "/></g></g></g><g clip-rule="nonzero" clip-path="url(#b619738b50)"><g clip-rule="nonzero" clip-path="url(#7b98abb9c7)"><g clip-rule="nonzero" clip-path="url(#bc8810380b)"><path style=" stroke:none;fill-rule:nonzero;fill:#f1e5d7;fill-opacity:1;" d="M 260.859375 188.855469 L 253.066406 226.632812 L 204.222656 216.554688 L 212.015625 178.777344 Z M 260.859375 188.855469 "/></g></g></g><g clip-rule="nonzero" clip-path="url(#2c2c086d30)"><g clip-rule="nonzero" clip-path="url(#796f504f7f)"><g clip-rule="nonzero" clip-path="url(#e60fa143f8)"><path style=" stroke:none;fill-rule:nonzero;fill:#f1e5d7;fill-opacity:1;" d="M 252.28125 250.683594 L 218.238281 247.410156 L 222.46875 203.390625 L 256.515625 206.664062 Z M 252.28125 250.683594 "/></g></g></g><g clip-rule="nonzero" clip-path="url(#4bb4aaffd1)"><g clip-rule="nonzero" clip-path="url(#2cf235d82b)"><g clip-rule="nonzero" clip-path="url(#1d3a836dde)"><path style=" stroke:none;fill-rule:nonzero;fill:#f1e5d7;fill-opacity:1;" d="M 675.996094 420.363281 L 700.652344 498.214844 L 485.339844 566.40625 L 460.683594 488.554688 Z M 675.996094 420.363281 "/></g></g></g><g clip-rule="nonzero" clip-path="url(#bf845870c6)"><g clip-rule="nonzero" clip-path="url(#777fafdabe)"><g clip-rule="nonzero" clip-path="url(#2131391a48)"><path style=" stroke:none;fill-rule:nonzero;fill:#f1e5d7;fill-opacity:1;" d="M 445.886719 489.265625 L 487.886719 488.484375 L 489.300781 564.285156 L 447.296875 565.066406 Z M 445.886719 489.265625 "/></g></g></g><g clip-rule="nonzero" clip-path="url(#8a37606960)"><g clip-rule="nonzero" clip-path="url(#2a0e752f80)"><g clip-rule="nonzero" clip-path="url(#09de3c1326)"><path style=" stroke:none;fill-rule:nonzero;fill:#f1e5d7;fill-opacity:1;" d="M 462.285156 603.660156 L 421.199219 575.402344 L 447.992188 536.445312 L 489.082031 564.703125 Z M 462.285156 603.660156 "/></g></g></g><g clip-rule="nonzero" clip-path="url(#a8bc571d58)"><g clip-rule="nonzero" clip-path="url(#3c676033e2)"><g clip-rule="nonzero" clip-path="url(#90ac1a04b6)"><path style=" stroke:none;fill-rule:nonzero;fill:#f1e5d7;fill-opacity:1;" d="M 431.195312 492.636719 L 471.425781 480.542969 L 487.0625 532.5625 L 446.828125 544.652344 Z M 431.195312 492.636719 "/></g></g></g><g clip-rule="nonzero" clip-path="url(#76b9871229)"><g clip-rule="nonzero" clip-path="url(#174aa0437f)"><g clip-rule="nonzero" clip-path="url(#382f264237)"><path style=" stroke:none;fill-rule:nonzero;fill:#f1e5d7;fill-opacity:1;" d="M 494.878906 468.832031 L 509.371094 503.148438 L 465 521.886719 L 450.507812 487.570312 Z M 494.878906 468.832031 "/></g></g></g><g clip-rule="nonzero" clip-path="url(#911d65eb00)"><g clip-rule="nonzero" clip-path="url(#dfdd171edd)"><g clip-rule="nonzero" clip-path="url(#e987ba518b)"><path style=" stroke:none;fill-rule:nonzero;fill:#f1e5d7;fill-opacity:1;" d="M 377.617188 3.910156 L 414.535156 47.851562 L 280.996094 160.046875 L 244.078125 116.105469 Z M 377.617188 3.910156 "/></g></g></g><g clip-rule="nonzero" clip-path="url(#79b0d4dbb0)"><g clip-rule="nonzero" clip-path="url(#e63122a1c9)"><g clip-rule="nonzero" clip-path="url(#b5cb00e70a)"><path style=" stroke:none;fill-rule:nonzero;fill:#f1e5d7;fill-opacity:1;" d="M 267.976562 143.914062 L 209.683594 179.015625 L 190.921875 147.859375 L 249.21875 112.757812 Z M 267.976562 143.914062 "/></g></g></g><g clip-rule="nonzero" clip-path="url(#68d344f032)"><g clip-rule="nonzero" clip-path="url(#496985ea9d)"><g clip-rule="nonzero" clip-path="url(#3602728267)"><path style=" stroke:none;fill-rule:nonzero;fill:#f1e5d7;fill-opacity:1;" d="M 226.386719 152.644531 L 268.40625 99.148438 L 305.71875 128.457031 L 263.703125 181.953125 Z M 226.386719 152.644531 "/></g></g></g><g clip-rule="nonzero" clip-path="url(#dbe6b16449)"><g clip-rule="nonzero" clip-path="url(#52321d1af3)"><g clip-rule="nonzero" clip-path="url(#c2fbbf2d75)"><path style=" stroke:none;fill-rule:nonzero;fill:#f1e5d7;fill-opacity:1;" d="M 210.257812 112.003906 L 279.238281 148.339844 L 259.941406 184.976562 L 190.960938 148.644531 Z M 210.257812 112.003906 "/></g></g></g><g clip-rule="nonzero" clip-path="url(#38455fee6c)"><g clip-rule="nonzero" clip-path="url(#a0e0543de6)"><g clip-rule="nonzero" clip-path="url(#90ee5af324)"><path style=" stroke:none;fill-rule:nonzero;fill:#f1e5d7;fill-opacity:1;" d="M 219.105469 153.511719 L 247.125 91.527344 L 290.363281 111.074219 L 262.339844 173.058594 Z M 219.105469 153.511719 "/></g></g></g><g clip-rule="nonzero" clip-path="url(#89a5ff5619)"><g clip-rule="nonzero" clip-path="url(#a0911cd780)"><g clip-rule="nonzero" clip-path="url(#a7e8a821e8)"><path style=" stroke:none;fill-rule:nonzero;fill:#f1e5d7;fill-opacity:1;" d="M 224.539062 156.660156 L 262.28125 108.410156 L 299.152344 137.253906 L 261.410156 185.503906 Z M 224.539062 156.660156 "/></g></g></g><g clip-rule="nonzero" clip-path="url(#62034b6385)"><g clip-rule="nonzero" clip-path="url(#97bc9eda39)"><g clip-rule="nonzero" clip-path="url(#3f94d7a362)"><path style=" stroke:none;fill-rule:nonzero;fill:#f1e5d7;fill-opacity:1;" d="M 269.191406 181.429688 L 253.277344 188.9375 L 233.304688 146.601562 L 249.21875 139.09375 Z M 269.191406 181.429688 "/></g></g></g><g clip-rule="nonzero" clip-path="url(#ef3ed4fb3f)"><g clip-rule="nonzero" clip-path="url(#8be6b50e6e)"><g clip-rule="nonzero" clip-path="url(#6d49afb8c1)"><path style=" stroke:none;fill-rule:nonzero;fill:#f1e5d7;fill-opacity:1;" d="M 270.128906 136.355469 L 285.238281 145.378906 L 261.238281 185.570312 L 246.128906 176.550781 Z M 270.128906 136.355469 "/></g></g></g><g clip-rule="nonzero" clip-path="url(#ea6df1a59c)"><g clip-rule="nonzero" clip-path="url(#e1315bf79b)"><g clip-rule="nonzero" clip-path="url(#1d81767ba2)"><path style=" stroke:none;fill-rule:nonzero;fill:#f1e5d7;fill-opacity:1;" d="M 723.636719 411.820312 L 660.949219 420.582031 L 634.328125 230.070312 L 697.015625 221.308594 Z M 723.636719 411.820312 "/></g></g></g><g clip-rule="nonzero" clip-path="url(#f192907798)"><g clip-rule="nonzero" clip-path="url(#7ecaf56b90)"><g clip-rule="nonzero" clip-path="url(#807be616ec)"><path style=" stroke:none;fill-rule:nonzero;fill:#f1e5d7;fill-opacity:1;" d="M 657.03125 227.351562 L 658.378906 152.316406 L 698.484375 153.035156 L 697.132812 228.070312 Z M 657.03125 227.351562 "/></g></g></g><g clip-rule="nonzero" clip-path="url(#40404a6c30)"><g clip-rule="nonzero" clip-path="url(#1b6647699e)"><g clip-rule="nonzero" clip-path="url(#3bb95b8398)"><path style=" stroke:none;fill-rule:nonzero;fill:#f1e5d7;fill-opacity:1;" d="M 673.234375 183.375 L 698.613281 253.976562 L 649.363281 271.679688 L 623.988281 201.078125 Z M 673.234375 183.375 "/></g></g></g><g clip-rule="nonzero" clip-path="url(#fd723d5d20)"><g clip-rule="nonzero" clip-path="url(#553eb2eb3b)"><g clip-rule="nonzero" clip-path="url(#3137d316fb)"><path style=" stroke:none;fill-rule:nonzero;fill:#f1e5d7;fill-opacity:1;" d="M 720.660156 192.105469 L 646.300781 235.285156 L 623.367188 195.789062 L 697.726562 152.613281 Z M 720.660156 192.105469 "/></g></g></g><g clip-rule="nonzero" clip-path="url(#a348b72647)"><g clip-rule="nonzero" clip-path="url(#36d173053c)"><g clip-rule="nonzero" clip-path="url(#fdba3c417c)"><path style=" stroke:none;fill-rule:nonzero;fill:#f1e5d7;fill-opacity:1;" d="M 676.691406 176.0625 L 718.199219 238.558594 L 674.605469 267.511719 L 633.097656 205.015625 Z M 676.691406 176.0625 "/></g></g></g><g clip-rule="nonzero" clip-path="url(#ba3fb3b38c)"><g clip-rule="nonzero" clip-path="url(#c6851762ac)"><g clip-rule="nonzero" clip-path="url(#8933efd65f)"><path style=" stroke:none;fill-rule:nonzero;fill:#f1e5d7;fill-opacity:1;" d="M 670.5625 179.292969 L 693.539062 242.828125 L 644.988281 260.386719 L 622.011719 196.851562 Z M 670.5625 179.292969 "/></g></g></g><g clip-rule="nonzero" clip-path="url(#91df3b08dd)"><g clip-rule="nonzero" clip-path="url(#5c94e5ae48)"><g clip-rule="nonzero" clip-path="url(#8c5bc6fb32)"><path style=" stroke:none;fill-rule:nonzero;fill:#f1e5d7;fill-opacity:1;" d="M 621.257812 206.507812 L 623.5625 187.238281 L 674.828125 193.375 L 672.519531 212.644531 Z M 621.257812 206.507812 "/></g></g></g><g clip-rule="nonzero" clip-path="url(#fb2586b3ae)"><g clip-rule="nonzero" clip-path="url(#e72db1dd21)"><g clip-rule="nonzero" clip-path="url(#735b7f04a4)"><path style=" stroke:none;fill-rule:nonzero;fill:#f1e5d7;fill-opacity:1;" d="M 662.828125 233.789062 L 645.546875 242.625 L 622.046875 196.652344 L 639.328125 187.820312 Z M 662.828125 233.789062 "/></g></g></g><g clip-rule="nonzero" clip-path="url(#b3f23b1ba3)"><g clip-rule="nonzero" clip-path="url(#0c822a7bcd)"><g clip-rule="nonzero" clip-path="url(#893e0c5997)"><path style=" stroke:none;fill-rule:nonzero;fill:#f1e5d7;fill-opacity:1;" d="M 163.414062 485.28125 L 186.269531 418.53125 L 389.128906 487.984375 L 366.273438 554.738281 Z M 163.414062 485.28125 "/></g></g></g><g clip-rule="nonzero" clip-path="url(#2a09ea8fc7)"><g clip-rule="nonzero" clip-path="url(#4f60791fd4)"><g clip-rule="nonzero" clip-path="url(#dd6bb1dddf)"><path style=" stroke:none;fill-rule:nonzero;fill:#f1e5d7;fill-opacity:1;" d="M 380.402344 511.933594 L 454.34375 551.054688 L 433.433594 590.570312 L 359.492188 551.449219 Z M 380.402344 511.933594 "/></g></g></g><g clip-rule="nonzero" clip-path="url(#7ed0a6d495)"><g clip-rule="nonzero" clip-path="url(#ead9c0c0d9)"><g clip-rule="nonzero" clip-path="url(#4e5d8104ca)"><path style=" stroke:none;fill-rule:nonzero;fill:#f1e5d7;fill-opacity:1;" d="M 415.972656 550.191406 L 332.980469 539.875 L 340.175781 481.988281 L 423.164062 492.300781 Z M 415.972656 550.191406 "/></g></g></g><g clip-rule="nonzero" clip-path="url(#5abda7f08d)"><g clip-rule="nonzero" clip-path="url(#31c24c18a4)"><g clip-rule="nonzero" clip-path="url(#78564b4b6a)"><path style=" stroke:none;fill-rule:nonzero;fill:#f1e5d7;fill-opacity:1;" d="M 383.417969 592.953125 L 377.921875 497.261719 L 428.746094 494.34375 L 434.242188 590.03125 Z M 383.417969 592.953125 "/></g></g></g><g clip-rule="nonzero" clip-path="url(#da603a95f0)"><g clip-rule="nonzero" clip-path="url(#7af2e8c0d7)"><g clip-rule="nonzero" clip-path="url(#306014a675)"><path style=" stroke:none;fill-rule:nonzero;fill:#f1e5d7;fill-opacity:1;" d="M 421.503906 557.308594 L 338.457031 567.121094 L 331.609375 509.1875 L 414.660156 499.375 Z M 421.503906 557.308594 "/></g></g></g><g clip-rule="nonzero" clip-path="url(#fc302af8d5)"><g clip-rule="nonzero" clip-path="url(#768429304b)"><g clip-rule="nonzero" clip-path="url(#9721a420b0)"><path style=" stroke:none;fill-rule:nonzero;fill:#f1e5d7;fill-opacity:1;" d="M 421.386719 549.585938 L 346.632812 540.445312 L 353.617188 483.320312 L 428.371094 492.460938 Z M 421.386719 549.585938 "/></g></g></g><g clip-rule="nonzero" clip-path="url(#6d7e1b296e)"><g clip-rule="nonzero" clip-path="url(#06e9f9e712)"><g clip-rule="nonzero" clip-path="url(#be98be3e67)"><path style=" stroke:none;fill-rule:nonzero;fill:#f1e5d7;fill-opacity:1;" d="M 419.140625 486.851562 L 437.144531 498.847656 L 405.230469 546.734375 L 387.226562 534.738281 Z M 419.140625 486.851562 "/></g></g></g><g clip-rule="nonzero" clip-path="url(#c2b92cd5d8)"><g clip-rule="nonzero" clip-path="url(#a2002585d4)"><g clip-rule="nonzero" clip-path="url(#2d2c676a41)"><path style=" stroke:none;fill-rule:nonzero;fill:#f1e5d7;fill-opacity:1;" d="M 371.085938 514.457031 L 371 492.824219 L 428.550781 492.601562 L 428.632812 514.234375 Z M 371.085938 514.457031 "/></g></g></g><g clip-rule="nonzero" clip-path="url(#47973c92be)"><g clip-rule="nonzero" clip-path="url(#49c45b51bf)"><path style=" stroke:none;fill-rule:nonzero;fill:#f1e5d7;fill-opacity:1;" d="M 283.523438 9.226562 L 588.714844 9.226562 L 588.714844 183.621094 L 283.523438 183.621094 Z M 283.523438 9.226562 "/></g></g><g clip-rule="nonzero" clip-path="url(#b74cbfa105)"><g clip-rule="nonzero" clip-path="url(#110b436fa8)"><g clip-rule="nonzero" clip-path="url(#2ec0111b0e)"><path style=" stroke:none;fill-rule:nonzero;fill:#f1e5d7;fill-opacity:1;" d="M 258.019531 573.226562 L 102.101562 310.222656 L 266.316406 212.871094 L 422.238281 475.871094 Z M 258.019531 573.226562 "/></g></g></g><g clip-rule="nonzero" clip-path="url(#5c3b2f2479)"><g clip-rule="nonzero" clip-path="url(#f3946700f3)"><g clip-rule="nonzero" clip-path="url(#ea1dff2b97)"><path style=" stroke:none;fill-rule:nonzero;fill:#f1e5d7;fill-opacity:1;" d="M 770.597656 312.90625 L 612.851562 574.816406 L 449.316406 476.320312 L 607.066406 214.410156 Z M 770.597656 312.90625 "/></g></g></g><g clip-rule="nonzero" clip-path="url(#964b6be727)"><g clip-rule="nonzero" clip-path="url(#77b507fbf7)"><path style=" stroke:none;fill-rule:nonzero;fill:#f1e5d7;fill-opacity:1;" d="M 596.527344 478.757812 L 275.554688 478.757812 L 275.554688 198.316406 L 596.527344 198.316406 Z M 596.527344 478.757812 "/></g></g><g clip-rule="nonzero" clip-path="url(#78e9b4a5a8)"><path style=" stroke:none;fill-rule:nonzero;fill:#f1e5d7;fill-opacity:1;" d="M 0.078125 324.289062 L 399.300781 324.289062 L 399.300781 597.554688 L 0.078125 597.554688 Z M 0.078125 324.289062 "/></g><g clip-rule="nonzero" clip-path="url(#b181ecc8db)"><path style="fill:none;stroke-width:40;stroke-linecap:butt;stroke-linejoin:miter;stroke:#260101;stroke-opacity:1;stroke-miterlimit:4;" d="M -0.000391428 -0.00167518 L 532.380235 -0.00167518 L 532.380235 364.46743 L -0.000391428 364.46743 Z M -0.000391428 -0.00167518 " transform="matrix(0.748767,0,0,0.748767,0.0823243,324.290317)"/></g><g clip-rule="nonzero" clip-path="url(#7cd843f6a1)"><path style=" stroke:none;fill-rule:nonzero;fill:#f1e5d7;fill-opacity:1;" d="M 131.800781 643.664062 L 267.4375 643.664062 L 267.4375 695.800781 L 131.800781 695.800781 Z M 131.800781 643.664062 "/></g><g clip-rule="nonzero" clip-path="url(#270f513f13)"><path style="fill:none;stroke-width:40;stroke-linecap:butt;stroke-linejoin:miter;stroke:#260101;stroke-opacity:1;stroke-miterlimit:4;" d="M 0.000896897 -0.000499608 L 180.992897 -0.000499608 L 180.992897 69.530442 L 0.000896897 69.530442 Z M 0.000896897 -0.000499608 " transform="matrix(0.749666,0,0,0.749666,131.807921,643.664437)"/></g><g clip-rule="nonzero" clip-path="url(#420ddff024)"><path style=" stroke:none;fill-rule:nonzero;fill:#f1e5d7;fill-opacity:1;" d="M 162.804688 555.023438 L 236.511719 555.023438 L 236.511719 660.691406 L 162.804688 660.691406 Z M 162.804688 555.023438 "/></g><g clip-rule="nonzero" clip-path="url(#e63dc981da)"><path style=" stroke:none;fill-rule:nonzero;fill:#260101;fill-opacity:1;" d="M 25.5 351.210938 L 373.484375 351.210938 L 373.484375 570.632812 L 25.5 570.632812 Z M 25.5 351.210938 "/></g><g clip-rule="nonzero" clip-path="url(#c1f0ad037c)"><path style="fill:none;stroke-width:40;stroke-linecap:butt;stroke-linejoin:miter;stroke:#260101;stroke-opacity:1;stroke-miterlimit:4;" d="M 0.00107052 -0.00213585 L 464.573976 -0.00213585 L 464.573976 292.654932 L 0.00107052 292.654932 Z M 0.00107052 -0.00213585 " transform="matrix(0.749731,0,0,0.749731,25.499197,351.212539)"/></g><path style="fill:none;stroke-width:11;stroke-linecap:butt;stroke-linejoin:miter;stroke:#260101;stroke-opacity:1;stroke-miterlimit:4;" d="M 0.00236173 5.500268 L 101.91913 5.500268 " transform="matrix(0.00000000130853,0.749731,-0.749731,0.00000000130853,162.951846,589.256042)"/><path style="fill:none;stroke-width:11;stroke-linecap:butt;stroke-linejoin:miter;stroke:#260101;stroke-opacity:1;stroke-miterlimit:4;" d="M 0.000471725 5.498343 L 101.333602 5.498343 " transform="matrix(0.00000000130429,0.747303,-0.747303,0.00000000130429,244.710491,589.691054)"/></g></svg>