<svg xmlns="http://www.w3.org/2000/svg" xmlns:xlink="http://www.w3.org/1999/xlink" width="682" zoomAndPan="magnify" viewBox="0 0 511.5 511.499968" height="682" preserveAspectRatio="xMidYMid meet" version="1.2"><defs><clipPath id="35e896531a"><path d="M 0 0 L 510.488281 0 L 510.488281 510.488281 L 0 510.488281 Z M 0 0 "/></clipPath><clipPath id="0f8763ceab"><path d="M 255.246094 0 C 114.277344 0 0 114.277344 0 255.246094 C 0 396.210938 114.277344 510.488281 255.246094 510.488281 C 396.210938 510.488281 510.488281 396.210938 510.488281 255.246094 C 510.488281 114.277344 396.210938 0 255.246094 0 Z M 255.246094 0 "/></clipPath><clipPath id="d66fe84576"><path d="M 186.910156 73.335938 L 323.277344 73.335938 L 323.277344 209.703125 L 186.910156 209.703125 Z M 186.910156 73.335938 "/></clipPath><clipPath id="204312bb3e"><path d="M 255.09375 73.335938 C 217.4375 73.335938 186.910156 103.863281 186.910156 141.519531 C 186.910156 179.175781 217.4375 209.703125 255.09375 209.703125 C 292.75 209.703125 323.277344 179.175781 323.277344 141.519531 C 323.277344 103.863281 292.75 73.335938 255.09375 73.335938 Z M 255.09375 73.335938 "/></clipPath><clipPath id="3a2a4523c8"><path d="M 137.238281 241.480469 L 373.25 241.480469 L 373.25 436 L 137.238281 436 Z M 137.238281 241.480469 "/></clipPath><clipPath id="6655fa27a0"><path d="M 255.242188 241.480469 C 190.070312 241.480469 137.238281 285.011719 137.238281 338.710938 C 137.238281 392.410156 190.070312 435.945312 255.242188 435.945312 C 320.414062 435.945312 373.246094 392.410156 373.246094 338.710938 C 373.246094 285.011719 320.414062 241.480469 255.242188 241.480469 Z M 255.242188 241.480469 "/></clipPath><clipPath id="fee4472fe6"><path d="M 111.238281 335.679688 L 399.253906 335.679688 L 399.253906 462.621094 L 111.238281 462.621094 Z M 111.238281 335.679688 "/></clipPath><clipPath id="3472854a78"><path d="M 21 205 L 488 205 L 488 511 L 21 511 Z M 21 205 "/></clipPath></defs><g id="786c219506"><g clip-rule="nonzero" clip-path="url(#35e896531a)"><g clip-rule="nonzero" clip-path="url(#0f8763ceab)"><path style=" stroke:none;fill-rule:nonzero;fill:#c97d7d;fill-opacity:1;" d="M 0 0 L 510.488281 0 L 510.488281 510.488281 L 0 510.488281 Z M 0 0 "/></g></g><g clip-rule="nonzero" clip-path="url(#d66fe84576)"><g clip-rule="nonzero" clip-path="url(#204312bb3e)"><path style="fill:none;stroke-width:60;stroke-linecap:butt;stroke-linejoin:miter;stroke:#ffffff;stroke-opacity:1;stroke-miterlimit:4;" d="M 91.193861 0.00108003 C 40.828574 0.00108003 -0.00179102 40.831445 -0.00179102 91.196732 C -0.00179102 141.562018 40.828574 182.392383 91.193861 182.392383 C 141.559147 182.392383 182.389512 141.562018 182.389512 91.196732 C 182.389512 40.831445 141.559147 0.00108003 91.193861 0.00108003 Z M 91.193861 0.00108003 " transform="matrix(0.747663,0,0,0.747663,186.911495,73.33513)"/></g></g><g clip-rule="nonzero" clip-path="url(#3a2a4523c8)"><g clip-rule="nonzero" clip-path="url(#6655fa27a0)"><path style="fill:none;stroke-width:60;stroke-linecap:butt;stroke-linejoin:miter;stroke:#ffffff;stroke-opacity:1;stroke-miterlimit:4;" d="M 157.492556 0.00248484 C 70.511771 0.00248484 0.000196693 58.100894 0.000196693 129.769849 C 0.000196693 201.438804 70.511771 259.542427 157.492556 259.542427 C 244.47334 259.542427 314.984915 201.438804 314.984915 129.769849 C 314.984915 58.100894 244.47334 0.00248484 157.492556 0.00248484 Z M 157.492556 0.00248484 " transform="matrix(0.749268,0,0,0.749268,137.238134,241.478607)"/></g></g><g clip-rule="nonzero" clip-path="url(#fee4472fe6)"><path style=" stroke:none;fill-rule:nonzero;fill:#c97d7d;fill-opacity:1;" d="M 111.238281 335.679688 L 399.335938 335.679688 L 399.335938 462.621094 L 111.238281 462.621094 Z M 111.238281 335.679688 "/></g><g clip-rule="nonzero" clip-path="url(#3472854a78)"><path style="fill:none;stroke-width:30;stroke-linecap:butt;stroke-linejoin:miter;stroke:#ffffff;stroke-opacity:1;stroke-miterlimit:4;" d="M 15.001831 2.376146 L 15.001831 61.410773 C 15.001831 94.011361 41.43064 120.44017 74.031227 120.44017 L 239.016456 120.44017 C 272.270834 120.44017 299.233136 93.477868 299.233136 60.21826 L 299.233136 0.00158058 " transform="matrix(0.746847,0,0,0.746847,137.409207,331.799601)"/></g></g></svg>