<svg xmlns="http://www.w3.org/2000/svg" xmlns:xlink="http://www.w3.org/1999/xlink" width="1000" zoomAndPan="magnify" viewBox="0 0 750 749.999995" height="1000" preserveAspectRatio="xMidYMid meet" version="1.0"><defs><g/><clipPath id="5815e56901"><path d="M 400 452 L 464 452 L 464 510 L 400 510 Z M 400 452 " clip-rule="nonzero"/></clipPath><clipPath id="b93e8e8098"><path d="M 392.539062 462.808594 L 409.308594 443.085938 L 463.851562 489.464844 L 447.082031 509.183594 Z M 392.539062 462.808594 " clip-rule="nonzero"/></clipPath><clipPath id="9518aa971e"><path d="M 400.925781 452.945312 L 463.816406 489.433594 L 447.046875 509.15625 Z M 400.925781 452.945312 " clip-rule="nonzero"/></clipPath><clipPath id="b10c2fb97b"><path d="M 446 488 L 470 488 L 470 508 L 446 508 Z M 446 488 " clip-rule="nonzero"/></clipPath><clipPath id="8300f9316f"><path d="M 449.753906 513.027344 L 442.480469 501.875 L 462.652344 488.714844 L 469.925781 499.867188 Z M 449.753906 513.027344 " clip-rule="nonzero"/></clipPath><clipPath id="8b2b02022a"><path d="M 446.117188 507.449219 L 462.628906 488.730469 L 469.90625 499.882812 Z M 446.117188 507.449219 " clip-rule="nonzero"/></clipPath><clipPath id="1419aceb4f"><path d="M 462 488 L 478 488 L 478 505 L 462 505 Z M 462 488 " clip-rule="nonzero"/></clipPath><clipPath id="f3aa5438e3"><path d="M 477.722656 489.398438 L 477.039062 505.25 L 462.066406 504.605469 L 462.75 488.753906 Z M 477.722656 489.398438 " clip-rule="nonzero"/></clipPath><clipPath id="aea9349a32"><path d="M 477.382812 497.300781 L 462.066406 504.5625 L 462.75 488.753906 Z M 477.382812 497.300781 " clip-rule="nonzero"/></clipPath><clipPath id="da1426fea1"><path d="M 448 494 L 465 494 L 465 513 L 448 513 Z M 448 494 " clip-rule="nonzero"/></clipPath><clipPath id="ff97c7fe76"><path d="M 453.125 516.421875 L 443.109375 507.644531 L 454.453125 494.695312 L 464.46875 503.46875 Z M 453.125 516.421875 " clip-rule="nonzero"/></clipPath><clipPath id="1e85d4db62"><path d="M 448.117188 512.03125 L 454.441406 494.707031 L 464.457031 503.484375 Z M 448.117188 512.03125 " clip-rule="nonzero"/></clipPath><clipPath id="64e65c5002"><path d="M 439 498 L 456 498 L 456 513 L 439 513 Z M 439 498 " clip-rule="nonzero"/></clipPath><clipPath id="35921a8d7d"><path d="M 436.027344 503.308594 L 442.808594 493.640625 L 455.308594 502.410156 L 448.527344 512.078125 Z M 436.027344 503.308594 " clip-rule="nonzero"/></clipPath><clipPath id="d2301487b3"><path d="M 439.417969 498.476562 L 455.292969 502.402344 L 448.511719 512.070312 Z M 439.417969 498.476562 " clip-rule="nonzero"/></clipPath><clipPath id="163bd342bc"><path d="M 289 517 L 318 517 L 318 596 L 289 596 Z M 289 517 " clip-rule="nonzero"/></clipPath><clipPath id="fb66e84d6a"><path d="M 302.734375 597.703125 L 275.5 592.5 L 289.886719 517.183594 L 317.121094 522.382812 Z M 302.734375 597.703125 " clip-rule="nonzero"/></clipPath><clipPath id="a0deda8113"><path d="M 289.117188 595.101562 L 289.878906 517.230469 L 317.113281 522.429688 Z M 289.117188 595.101562 " clip-rule="nonzero"/></clipPath><clipPath id="b5371274c4"><path d="M 289 506 L 317 506 L 317 525 L 289 525 Z M 289 506 " clip-rule="nonzero"/></clipPath><clipPath id="e6e1e1e88e"><path d="M 319.296875 517.855469 L 312.75 530.527344 L 289.832031 518.6875 L 296.378906 506.015625 Z M 319.296875 517.855469 " clip-rule="nonzero"/></clipPath><clipPath id="64bb98ff94"><path d="M 316.023438 524.191406 L 289.855469 518.699219 L 296.402344 506.027344 Z M 316.023438 524.191406 " clip-rule="nonzero"/></clipPath><clipPath id="e7451c10b0"><path d="M 289 500 L 305 500 L 305 519 L 289 519 Z M 289 500 " clip-rule="nonzero"/></clipPath><clipPath id="1f965be4a9"><path d="M 282.492188 504.289062 L 297.621094 496.546875 L 304.929688 510.839844 L 289.800781 518.578125 Z M 282.492188 504.289062 " clip-rule="nonzero"/></clipPath><clipPath id="6b9e1443d2"><path d="M 290.035156 500.429688 L 304.890625 510.859375 L 289.800781 518.578125 Z M 290.035156 500.429688 " clip-rule="nonzero"/></clipPath><clipPath id="109187dd96"><path d="M 299 509 L 320 509 L 320 524 L 299 524 Z M 299 509 " clip-rule="nonzero"/></clipPath><clipPath id="cbe698dd17"><path d="M 320.660156 512.921875 L 317.777344 526.890625 L 299.71875 523.164062 L 302.597656 509.195312 Z M 320.660156 512.921875 " clip-rule="nonzero"/></clipPath><clipPath id="ff522b3954"><path d="M 319.21875 519.90625 L 299.734375 523.167969 L 302.617188 509.199219 Z M 319.21875 519.90625 " clip-rule="nonzero"/></clipPath><clipPath id="bf6684a305"><path d="M 306 518 L 320 518 L 320 536 L 306 536 Z M 306 518 " clip-rule="nonzero"/></clipPath><clipPath id="ed68dd54d9"><path d="M 317.492188 535.785156 L 304.902344 534.574219 L 306.46875 518.296875 L 319.058594 519.507812 Z M 317.492188 535.785156 " clip-rule="nonzero"/></clipPath><clipPath id="1d19c821fc"><path d="M 311.199219 535.179688 L 306.464844 518.3125 L 319.054688 519.523438 Z M 311.199219 535.179688 " clip-rule="nonzero"/></clipPath><clipPath id="3b1b9d2c63"><path d="M 394 612 L 479 612 L 479 653 L 394 653 Z M 394 612 " clip-rule="nonzero"/></clipPath><clipPath id="ccdff1a3d7"><path d="M 474.171875 598.527344 L 483.289062 627.3125 L 403.671875 652.527344 L 394.554688 623.742188 Z M 474.171875 598.527344 " clip-rule="nonzero"/></clipPath><clipPath id="29b59b9e9b"><path d="M 478.730469 612.917969 L 403.722656 652.511719 L 394.605469 623.726562 Z M 478.730469 612.917969 " clip-rule="nonzero"/></clipPath><clipPath id="f4496a5a38"><path d="M 389 623 L 406 623 L 406 653 L 389 653 Z M 389 623 " clip-rule="nonzero"/></clipPath><clipPath id="058aa63bd5"><path d="M 389.089844 624.007812 L 404.621094 623.71875 L 405.144531 651.808594 L 389.613281 652.097656 Z M 389.089844 624.007812 " clip-rule="nonzero"/></clipPath><clipPath id="ecf6c8df68"><path d="M 396.855469 623.863281 L 405.144531 651.777344 L 389.613281 652.066406 Z M 396.855469 623.863281 " clip-rule="nonzero"/></clipPath><clipPath id="593d670077"><path d="M 387 641 L 406 641 L 406 662 L 387 662 Z M 387 641 " clip-rule="nonzero"/></clipPath><clipPath id="2e18cb4cc2"><path d="M 395.148438 666.308594 L 379.898438 655.820312 L 389.808594 641.414062 L 405.054688 651.902344 Z M 395.148438 666.308594 " clip-rule="nonzero"/></clipPath><clipPath id="75fe86d71f"><path d="M 387.542969 661.078125 L 389.847656 641.441406 L 405.054688 651.902344 Z M 387.542969 661.078125 " clip-rule="nonzero"/></clipPath><clipPath id="889b0f3d75"><path d="M 389 623 L 405 623 L 405 645 L 389 645 Z M 389 623 " clip-rule="nonzero"/></clipPath><clipPath id="d7ae5724c0"><path d="M 383.660156 625.253906 L 398.535156 620.78125 L 404.316406 640.015625 L 389.441406 644.488281 Z M 383.660156 625.253906 " clip-rule="nonzero"/></clipPath><clipPath id="3b4ba21668"><path d="M 391.097656 623.019531 L 404.3125 639.996094 L 389.433594 644.46875 Z M 391.097656 623.019531 " clip-rule="nonzero"/></clipPath><clipPath id="610c32cb35"><path d="M 390 622 L 410 622 L 410 637 L 390 637 Z M 390 622 " clip-rule="nonzero"/></clipPath><clipPath id="2404fb10dc"><path d="M 407.203125 616.457031 L 412.558594 629.144531 L 396.152344 636.074219 L 390.792969 623.382812 Z M 407.203125 616.457031 " clip-rule="nonzero"/></clipPath><clipPath id="c0bbb821b1"><path d="M 409.882812 622.800781 L 396.171875 636.066406 L 390.8125 623.375 Z M 409.882812 622.800781 " clip-rule="nonzero"/></clipPath><clipPath id="8abe800234"><path d="M 314 452 L 371 452 L 371 503 L 314 503 Z M 314 452 " clip-rule="nonzero"/></clipPath><clipPath id="617840ca1b"><path d="M 363.839844 444.535156 L 377.492188 460.785156 L 328.113281 502.273438 L 314.460938 486.023438 Z M 363.839844 444.535156 " clip-rule="nonzero"/></clipPath><clipPath id="ea9f8b661b"><path d="M 370.664062 452.660156 L 328.117188 502.265625 L 314.464844 486.019531 Z M 370.664062 452.660156 " clip-rule="nonzero"/></clipPath><clipPath id="c760bbbca1"><path d="M 294 484 L 317 484 L 317 503 L 294 503 Z M 294 484 " clip-rule="nonzero"/></clipPath><clipPath id="a0941d2f21"><path d="M 323.289062 496.308594 L 301.734375 509.289062 L 294.796875 497.765625 L 316.351562 484.789062 Z M 323.289062 496.308594 " clip-rule="nonzero"/></clipPath><clipPath id="44bf884795"><path d="M 312.515625 502.792969 L 294.808594 497.757812 L 316.351562 484.789062 Z M 312.515625 502.792969 " clip-rule="nonzero"/></clipPath><clipPath id="571f792cdb"><path d="M 315 489 L 338 489 L 338 511 L 315 511 Z M 315 489 " clip-rule="nonzero"/></clipPath><clipPath id="30f43e9392"><path d="M 307.921875 499.527344 L 323.460938 479.746094 L 337.257812 490.585938 L 321.722656 510.367188 Z M 307.921875 499.527344 " clip-rule="nonzero"/></clipPath><clipPath id="ed363c0bfe"><path d="M 315.6875 489.640625 L 337.253906 490.589844 L 321.722656 510.367188 Z M 315.6875 489.640625 " clip-rule="nonzero"/></clipPath><clipPath id="2a1ae1907e"><path d="M 294 491 L 321 491 L 321 512 L 294 512 Z M 294 491 " clip-rule="nonzero"/></clipPath><clipPath id="c6d83274b3"><path d="M 301.957031 484.507812 L 327.464844 497.941406 L 320.328125 511.488281 L 294.820312 498.054688 Z M 301.957031 484.507812 " clip-rule="nonzero"/></clipPath><clipPath id="68eb7646b1"><path d="M 314.699219 491.21875 L 320.308594 511.476562 L 294.820312 498.054688 Z M 314.699219 491.21875 " clip-rule="nonzero"/></clipPath><clipPath id="48ad2f6eea"><path d="M 310 484 L 332 484 L 332 508 L 310 508 Z M 310 484 " clip-rule="nonzero"/></clipPath><clipPath id="2173ef7cd3"><path d="M 305.230469 499.847656 L 315.589844 476.925781 L 331.578125 484.15625 L 321.21875 507.074219 Z M 305.230469 499.847656 " clip-rule="nonzero"/></clipPath><clipPath id="c3a2816c84"><path d="M 310.40625 488.390625 L 331.574219 484.160156 L 321.21875 507.074219 Z M 310.40625 488.390625 " clip-rule="nonzero"/></clipPath><clipPath id="81990ce89e"><path d="M 314 492 L 335 492 L 335 512 L 314 512 Z M 314 492 " clip-rule="nonzero"/></clipPath><clipPath id="89ea117928"><path d="M 307.242188 501.011719 L 321.238281 483.117188 L 334.875 493.785156 L 320.875 511.679688 Z M 307.242188 501.011719 " clip-rule="nonzero"/></clipPath><clipPath id="c8913543f5"><path d="M 314.222656 492.085938 L 334.839844 493.824219 L 320.875 511.679688 Z M 314.222656 492.085938 " clip-rule="nonzero"/></clipPath><clipPath id="303d20f95a"><path d="M 310 494 L 321 494 L 321 512 L 310 512 Z M 310 494 " clip-rule="nonzero"/></clipPath><clipPath id="8a87a0de76"><path d="M 323.746094 510.171875 L 317.859375 512.949219 L 310.464844 497.269531 L 316.347656 494.496094 Z M 323.746094 510.171875 " clip-rule="nonzero"/></clipPath><clipPath id="10b30a9021"><path d="M 320.800781 511.5625 L 310.472656 497.292969 L 316.359375 494.515625 Z M 320.800781 511.5625 " clip-rule="nonzero"/></clipPath><clipPath id="0bf984bd89"><path d="M 315 495 L 327 495 L 327 512 L 315 512 Z M 315 495 " clip-rule="nonzero"/></clipPath><clipPath id="5d18a68ce9"><path d="M 324.097656 493.511719 L 329.683594 496.847656 L 320.796875 511.734375 L 315.207031 508.398438 Z M 324.097656 493.511719 " clip-rule="nonzero"/></clipPath><clipPath id="70ab0dffc3"><path d="M 326.890625 495.179688 L 320.808594 511.710938 L 315.222656 508.375 Z M 326.890625 495.179688 " clip-rule="nonzero"/></clipPath><clipPath id="331599f3da"><path d="M 458 524 L 482 524 L 482 597 L 458 597 Z M 458 524 " clip-rule="nonzero"/></clipPath><clipPath id="afcae7a04b"><path d="M 491.785156 595.367188 L 468.605469 598.605469 L 458.761719 528.160156 L 481.941406 524.921875 Z M 491.785156 595.367188 " clip-rule="nonzero"/></clipPath><clipPath id="bcc5686ff9"><path d="M 480.195312 596.984375 L 458.761719 528.167969 L 481.941406 524.929688 Z M 480.195312 596.984375 " clip-rule="nonzero"/></clipPath><clipPath id="58909e2ee0"><path d="M 467 499 L 483 499 L 483 528 L 467 528 Z M 467 499 " clip-rule="nonzero"/></clipPath><clipPath id="b604f76d50"><path d="M 467.164062 527.144531 L 467.660156 499.398438 L 482.488281 499.664062 L 481.992188 527.410156 Z M 467.164062 527.144531 " clip-rule="nonzero"/></clipPath><clipPath id="a7fefb0cd3"><path d="M 467.410156 513.28125 L 482.488281 499.679688 L 481.992188 527.410156 Z M 467.410156 513.28125 " clip-rule="nonzero"/></clipPath><clipPath id="7a737035b9"><path d="M 454 517 L 478 517 L 478 544 L 454 544 Z M 454 517 " clip-rule="nonzero"/></clipPath><clipPath id="9bc82aa1b7"><path d="M 473.144531 510.902344 L 482.53125 537.011719 L 464.320312 543.554688 L 454.933594 517.449219 Z M 473.144531 510.902344 " clip-rule="nonzero"/></clipPath><clipPath id="93aa5e025f"><path d="M 477.835938 523.953125 L 464.316406 543.550781 L 454.933594 517.449219 Z M 477.835938 523.953125 " clip-rule="nonzero"/></clipPath><clipPath id="9170a4c844"><path d="M 454 499 L 483 499 L 483 523 L 454 523 Z M 454 499 " clip-rule="nonzero"/></clipPath><clipPath id="5656a46e6e"><path d="M 490.675781 514.121094 L 463.179688 530.085938 L 454.699219 515.484375 L 482.195312 499.515625 Z M 490.675781 514.121094 " clip-rule="nonzero"/></clipPath><clipPath id="d361045923"><path d="M 476.941406 522.097656 L 454.722656 515.46875 L 482.195312 499.515625 Z M 476.941406 522.097656 " clip-rule="nonzero"/></clipPath><clipPath id="60bfaa3b5d"><path d="M 458 518 L 483 518 L 483 543 L 458 543 Z M 458 518 " clip-rule="nonzero"/></clipPath><clipPath id="ef01abf195"><path d="M 474.425781 508.199219 L 489.773438 531.308594 L 473.65625 542.015625 L 458.304688 518.90625 Z M 474.425781 508.199219 " clip-rule="nonzero"/></clipPath><clipPath id="b51c546eb2"><path d="M 482.097656 519.75 L 473.652344 542.007812 L 458.304688 518.90625 Z M 482.097656 519.75 " clip-rule="nonzero"/></clipPath><clipPath id="f51aa01bfd"><path d="M 454 515 L 477 515 L 477 540 L 454 540 Z M 454 515 " clip-rule="nonzero"/></clipPath><clipPath id="643200a292"><path d="M 472.160156 509.386719 L 480.683594 532.949219 L 462.730469 539.445312 L 454.207031 515.878906 Z M 472.160156 509.386719 " clip-rule="nonzero"/></clipPath><clipPath id="7dcfdbe712"><path d="M 476.410156 521.140625 L 462.710938 539.386719 L 454.207031 515.878906 Z M 476.410156 521.140625 " clip-rule="nonzero"/></clipPath><clipPath id="15a20d84d6"><path d="M 454 514 L 474 514 L 474 522 L 454 522 Z M 454 514 " clip-rule="nonzero"/></clipPath><clipPath id="89c2e58563"><path d="M 453.941406 519.441406 L 454.792969 512.316406 L 473.777344 514.589844 L 472.921875 521.714844 Z M 453.941406 519.441406 " clip-rule="nonzero"/></clipPath><clipPath id="11ffcf1493"><path d="M 454.367188 515.878906 L 473.75 514.585938 L 472.894531 521.710938 Z M 454.367188 515.878906 " clip-rule="nonzero"/></clipPath><clipPath id="bc1cf0629a"><path d="M 454 512 L 467 512 L 467 532 L 454 532 Z M 454 512 " clip-rule="nonzero"/></clipPath><clipPath id="3528ea4ca0"><path d="M 469.296875 529.53125 L 462.90625 532.796875 L 454.207031 515.773438 L 460.59375 512.507812 Z M 469.296875 529.53125 " clip-rule="nonzero"/></clipPath><clipPath id="20f6900c57"><path d="M 466.101562 531.164062 L 454.21875 515.796875 L 460.609375 512.53125 Z M 466.101562 531.164062 " clip-rule="nonzero"/></clipPath><clipPath id="ff22ca4f02"><path d="M 288 610 L 369 610 L 369 649 L 288 649 Z M 288 610 " clip-rule="nonzero"/></clipPath><clipPath id="99a2f76b67"><path d="M 284.640625 622.53125 L 293.089844 597.847656 L 368.101562 623.53125 L 359.652344 648.210938 Z M 284.640625 622.53125 " clip-rule="nonzero"/></clipPath><clipPath id="b276ec4433"><path d="M 288.867188 610.1875 L 368.09375 623.527344 L 359.644531 648.210938 Z M 288.867188 610.1875 " clip-rule="nonzero"/></clipPath><clipPath id="89d4bcfc81"><path d="M 357 639 L 385 639 L 385 662 L 357 662 Z M 357 639 " clip-rule="nonzero"/></clipPath><clipPath id="480caa83f6"><path d="M 364.871094 632.390625 L 392.210938 646.859375 L 384.480469 661.46875 L 357.140625 647.003906 Z M 364.871094 632.390625 " clip-rule="nonzero"/></clipPath><clipPath id="7652461396"><path d="M 378.535156 639.621094 L 384.464844 661.460938 L 357.140625 647.003906 Z M 378.535156 639.621094 " clip-rule="nonzero"/></clipPath><clipPath id="2a78e93aff"><path d="M 350 621 L 381 621 L 381 645 L 350 645 Z M 350 621 " clip-rule="nonzero"/></clipPath><clipPath id="df123a6665"><path d="M 378.019531 646.527344 L 347.332031 642.710938 L 349.992188 621.308594 L 380.679688 625.121094 Z M 378.019531 646.527344 " clip-rule="nonzero"/></clipPath><clipPath id="bdaa2a5e39"><path d="M 362.679688 644.621094 L 350.003906 621.308594 L 380.679688 625.121094 Z M 362.679688 644.621094 " clip-rule="nonzero"/></clipPath><clipPath id="118ab9c0b3"><path d="M 364 625 L 385 625 L 385 662 L 364 662 Z M 364 625 " clip-rule="nonzero"/></clipPath><clipPath id="8babbcbefc"><path d="M 365.992188 662.34375 L 363.957031 626.960938 L 382.75 625.878906 L 384.785156 661.265625 Z M 365.992188 662.34375 " clip-rule="nonzero"/></clipPath><clipPath id="912ca21b66"><path d="M 364.976562 644.667969 L 382.753906 625.910156 L 384.785156 661.265625 Z M 364.976562 644.667969 " clip-rule="nonzero"/></clipPath><clipPath id="a4c0abd735"><path d="M 346 627 L 378 627 L 378 651 L 346 651 Z M 346 627 " clip-rule="nonzero"/></clipPath><clipPath id="d8fe6d89ae"><path d="M 380.066406 649.160156 L 349.355469 652.789062 L 346.824219 631.367188 L 377.535156 627.738281 Z M 380.066406 649.160156 " clip-rule="nonzero"/></clipPath><clipPath id="cfb2fe4fa2"><path d="M 364.714844 650.972656 L 346.832031 631.363281 L 377.535156 627.738281 Z M 364.714844 650.972656 " clip-rule="nonzero"/></clipPath><clipPath id="435ac5a2fe"><path d="M 354 621 L 383 621 L 383 645 L 354 645 Z M 354 621 " clip-rule="nonzero"/></clipPath><clipPath id="17508041c8"><path d="M 380.023438 646.3125 L 352.296875 642.921875 L 354.882812 621.796875 L 382.605469 625.1875 Z M 380.023438 646.3125 " clip-rule="nonzero"/></clipPath><clipPath id="048bb7bac8"><path d="M 366.191406 644.621094 L 354.945312 621.808594 L 382.605469 625.1875 Z M 366.191406 644.621094 " clip-rule="nonzero"/></clipPath><clipPath id="52eaae1928"><path d="M 367 625 L 383 625 L 383 646 L 367 646 Z M 367 625 " clip-rule="nonzero"/></clipPath><clipPath id="1cc5eb6507"><path d="M 379.199219 623.117188 L 385.855469 627.554688 L 374.039062 645.289062 L 367.378906 640.851562 Z M 379.199219 623.117188 " clip-rule="nonzero"/></clipPath><clipPath id="617bb13206"><path d="M 382.527344 625.335938 L 374.054688 645.261719 L 367.398438 640.824219 Z M 382.527344 625.335938 " clip-rule="nonzero"/></clipPath><clipPath id="21e8e3325a"><path d="M 361 625 L 383 625 L 383 634 L 361 634 Z M 361 625 " clip-rule="nonzero"/></clipPath><clipPath id="df6f6628a2"><path d="M 361.425781 633.320312 L 361.394531 625.320312 L 382.707031 625.238281 L 382.738281 633.238281 Z M 361.425781 633.320312 " clip-rule="nonzero"/></clipPath><clipPath id="bde61f3318"><path d="M 361.410156 629.320312 L 382.675781 625.238281 L 382.707031 633.238281 Z M 361.410156 629.320312 " clip-rule="nonzero"/></clipPath><clipPath id="bfa4285ea6"><path d="M 329.050781 446.503906 L 442 446.503906 L 442 510.988281 L 329.050781 510.988281 Z M 329.050781 446.503906 " clip-rule="nonzero"/></clipPath><clipPath id="edc52dfeaf"><path d="M 385.539062 446.503906 L 442.023438 510.988281 L 329.050781 510.988281 Z M 385.539062 446.503906 " clip-rule="nonzero"/></clipPath><clipPath id="4992f9c359"><path d="M 290 521 L 381 521 L 381 620 L 290 620 Z M 290 521 " clip-rule="nonzero"/></clipPath><clipPath id="c47602603f"><path d="M 319.613281 655.050781 L 261.960938 557.800781 L 322.683594 521.800781 L 380.339844 619.050781 Z M 319.613281 655.050781 " clip-rule="nonzero"/></clipPath><clipPath id="20c5ec53c4"><path d="M 290.808594 606.460938 L 322.726562 521.875 L 380.339844 619.050781 Z M 290.808594 606.460938 " clip-rule="nonzero"/></clipPath><clipPath id="e3e236b91a"><path d="M 390 522 L 481 522 L 481 620 L 390 620 Z M 390 522 " clip-rule="nonzero"/></clipPath><clipPath id="2e6c6ca817"><path d="M 509.152344 558.796875 L 450.820312 655.644531 L 390.351562 619.226562 L 448.683594 522.378906 Z M 509.152344 558.796875 " clip-rule="nonzero"/></clipPath><clipPath id="c1a418a4f2"><path d="M 480.007812 607.183594 L 390.394531 619.148438 L 448.683594 522.378906 Z M 480.007812 607.183594 " clip-rule="nonzero"/></clipPath><clipPath id="b0ddff3469"><path d="M 326.101562 516.417969 L 444.789062 516.417969 L 444.789062 620.121094 L 326.101562 620.121094 Z M 326.101562 516.417969 " clip-rule="nonzero"/></clipPath><clipPath id="2d00982c7c"><path d="M 385.53125 620.121094 L 326.273438 516.417969 L 444.789062 516.417969 Z M 385.53125 620.121094 " clip-rule="nonzero"/></clipPath></defs><g fill="#260101" fill-opacity="1"><g transform="translate(-3.535895, 332.364378)"><g><path d="M 80.5 -267.796875 L 80.5 -53.5625 L 172.6875 -53.5625 L 172.6875 0 L 19.46875 0 L 19.46875 -267.796875 Z M 80.5 -267.796875 "/></g></g></g><g fill="#260101" fill-opacity="1"><g transform="translate(179.858573, 332.364378)"><g><path d="M 187.9375 -75.3125 L 67.1875 -75.3125 C 67.1875 -63.625 70.972656 -54.96875 78.546875 -49.34375 C 86.117188 -43.71875 94.34375 -40.90625 103.21875 -40.90625 C 112.519531 -40.90625 119.875 -42.144531 125.28125 -44.625 C 130.695312 -47.113281 136.867188 -52.039062 143.796875 -59.40625 L 185.34375 -38.625 C 168.03125 -9.625 139.25 4.875 99 4.875 C 73.894531 4.875 52.363281 -3.722656 34.40625 -20.921875 C 16.445312 -38.128906 7.46875 -58.851562 7.46875 -83.09375 C 7.46875 -107.332031 16.445312 -128.109375 34.40625 -145.421875 C 52.363281 -162.734375 73.894531 -171.390625 99 -171.390625 C 125.394531 -171.390625 146.867188 -163.757812 163.421875 -148.5 C 179.984375 -133.25 188.265625 -111.445312 188.265625 -83.09375 C 188.265625 -79.195312 188.15625 -76.601562 187.9375 -75.3125 Z M 68.8125 -107.109375 L 132.109375 -107.109375 C 130.804688 -115.765625 127.394531 -122.421875 121.875 -127.078125 C 116.363281 -131.734375 109.28125 -134.0625 100.625 -134.0625 C 91.101562 -134.0625 83.53125 -131.570312 77.90625 -126.59375 C 72.28125 -121.613281 69.25 -115.117188 68.8125 -107.109375 Z M 68.8125 -107.109375 "/></g></g></g><g fill="#260101" fill-opacity="1"><g transform="translate(373.964549, 332.364378)"><g><path d="M 29.21875 -166.515625 L 29.21875 -228.515625 L 86.671875 -228.515625 L 86.671875 -166.515625 L 121.71875 -166.515625 L 121.71875 -122.703125 L 86.671875 -122.703125 L 86.671875 -69.78125 C 86.671875 -54.414062 91 -46.734375 99.65625 -46.734375 C 101.8125 -46.734375 104.078125 -47.164062 106.453125 -48.03125 C 108.835938 -48.90625 110.679688 -49.773438 111.984375 -50.640625 L 113.9375 -51.9375 L 128.21875 -5.515625 C 115.882812 1.410156 101.816406 4.875 86.015625 4.875 C 75.191406 4.875 65.882812 2.984375 58.09375 -0.796875 C 50.3125 -4.585938 44.414062 -9.675781 40.40625 -16.0625 C 36.40625 -22.445312 33.539062 -29.15625 31.8125 -36.1875 C 30.082031 -43.21875 29.21875 -50.738281 29.21875 -58.75 L 29.21875 -122.703125 L 5.1875 -122.703125 L 5.1875 -166.515625 Z M 29.21875 -166.515625 "/></g></g></g><g fill="#590202" fill-opacity="1"><g transform="translate(502.18674, 332.364378)"><g><path d="M 80.5 -267.796875 L 80.5 0 L 19.46875 0 L 19.46875 -267.796875 Z M 80.5 -267.796875 "/></g></g></g><g fill="#590202" fill-opacity="1"><g transform="translate(602.161028, 332.364378)"><g><path d="M 29.21875 -166.515625 L 29.21875 -228.515625 L 86.671875 -228.515625 L 86.671875 -166.515625 L 121.71875 -166.515625 L 121.71875 -122.703125 L 86.671875 -122.703125 L 86.671875 -69.78125 C 86.671875 -54.414062 91 -46.734375 99.65625 -46.734375 C 101.8125 -46.734375 104.078125 -47.164062 106.453125 -48.03125 C 108.835938 -48.90625 110.679688 -49.773438 111.984375 -50.640625 L 113.9375 -51.9375 L 128.21875 -5.515625 C 115.882812 1.410156 101.816406 4.875 86.015625 4.875 C 75.191406 4.875 65.882812 2.984375 58.09375 -0.796875 C 50.3125 -4.585938 44.414062 -9.675781 40.40625 -16.0625 C 36.40625 -22.445312 33.539062 -29.15625 31.8125 -36.1875 C 30.082031 -43.21875 29.21875 -50.738281 29.21875 -58.75 L 29.21875 -122.703125 L 5.1875 -122.703125 L 5.1875 -166.515625 Z M 29.21875 -166.515625 "/></g></g></g><g clip-path="url(#5815e56901)"><g clip-path="url(#b93e8e8098)"><g clip-path="url(#9518aa971e)"><path fill="#260101" d="M 392.539062 462.808594 L 409.308594 443.085938 L 463.851562 489.464844 L 447.082031 509.183594 Z M 392.539062 462.808594 " fill-opacity="1" fill-rule="nonzero"/></g></g></g><g clip-path="url(#b10c2fb97b)"><g clip-path="url(#8300f9316f)"><g clip-path="url(#8b2b02022a)"><path fill="#260101" d="M 449.753906 513.027344 L 442.480469 501.875 L 462.609375 488.742188 L 469.882812 499.898438 Z M 449.753906 513.027344 " fill-opacity="1" fill-rule="nonzero"/></g></g></g><g clip-path="url(#1419aceb4f)"><g clip-path="url(#f3aa5438e3)"><g clip-path="url(#aea9349a32)"><path fill="#260101" d="M 477.722656 489.398438 L 477.042969 505.191406 L 462.066406 504.546875 L 462.75 488.753906 Z M 477.722656 489.398438 " fill-opacity="1" fill-rule="nonzero"/></g></g></g><g clip-path="url(#da1426fea1)"><g clip-path="url(#ff97c7fe76)"><g clip-path="url(#1e85d4db62)"><path fill="#260101" d="M 453.125 516.421875 L 443.109375 507.644531 L 454.453125 494.695312 L 464.46875 503.46875 Z M 453.125 516.421875 " fill-opacity="1" fill-rule="nonzero"/></g></g></g><g clip-path="url(#64e65c5002)"><g clip-path="url(#35921a8d7d)"><g clip-path="url(#d2301487b3)"><path fill="#260101" d="M 436.027344 503.308594 L 442.808594 493.640625 L 455.308594 502.410156 L 448.527344 512.078125 Z M 436.027344 503.308594 " fill-opacity="1" fill-rule="nonzero"/></g></g></g><g clip-path="url(#163bd342bc)"><g clip-path="url(#fb66e84d6a)"><g clip-path="url(#a0deda8113)"><path fill="#260101" d="M 302.734375 597.703125 L 275.5 592.5 L 289.886719 517.183594 L 317.121094 522.382812 Z M 302.734375 597.703125 " fill-opacity="1" fill-rule="nonzero"/></g></g></g><g clip-path="url(#b5371274c4)"><g clip-path="url(#e6e1e1e88e)"><g clip-path="url(#64bb98ff94)"><path fill="#260101" d="M 319.296875 517.855469 L 312.75 530.527344 L 289.882812 518.710938 L 296.425781 506.039062 Z M 319.296875 517.855469 " fill-opacity="1" fill-rule="nonzero"/></g></g></g><g clip-path="url(#e7451c10b0)"><g clip-path="url(#1f965be4a9)"><g clip-path="url(#6b9e1443d2)"><path fill="#260101" d="M 282.492188 504.289062 L 297.5625 496.578125 L 304.875 510.867188 L 289.800781 518.578125 Z M 282.492188 504.289062 " fill-opacity="1" fill-rule="nonzero"/></g></g></g><g clip-path="url(#109187dd96)"><g clip-path="url(#cbe698dd17)"><g clip-path="url(#ff522b3954)"><path fill="#260101" d="M 320.660156 512.921875 L 317.777344 526.890625 L 299.71875 523.164062 L 302.597656 509.195312 Z M 320.660156 512.921875 " fill-opacity="1" fill-rule="nonzero"/></g></g></g><g clip-path="url(#bf6684a305)"><g clip-path="url(#ed68dd54d9)"><g clip-path="url(#1d19c821fc)"><path fill="#260101" d="M 317.492188 535.785156 L 304.902344 534.574219 L 306.46875 518.296875 L 319.058594 519.507812 Z M 317.492188 535.785156 " fill-opacity="1" fill-rule="nonzero"/></g></g></g><g clip-path="url(#3b1b9d2c63)"><g clip-path="url(#ccdff1a3d7)"><g clip-path="url(#29b59b9e9b)"><path fill="#260101" d="M 474.171875 598.527344 L 483.289062 627.3125 L 403.671875 652.527344 L 394.554688 623.742188 Z M 474.171875 598.527344 " fill-opacity="1" fill-rule="nonzero"/></g></g></g><g clip-path="url(#f4496a5a38)"><g clip-path="url(#058aa63bd5)"><g clip-path="url(#ecf6c8df68)"><path fill="#260101" d="M 389.089844 624.007812 L 404.621094 623.71875 L 405.144531 651.75 L 389.609375 652.039062 Z M 389.089844 624.007812 " fill-opacity="1" fill-rule="nonzero"/></g></g></g><g clip-path="url(#593d670077)"><g clip-path="url(#2e18cb4cc2)"><g clip-path="url(#75fe86d71f)"><path fill="#260101" d="M 395.148438 666.308594 L 379.957031 655.859375 L 389.863281 641.453125 L 405.054688 651.902344 Z M 395.148438 666.308594 " fill-opacity="1" fill-rule="nonzero"/></g></g></g><g clip-path="url(#889b0f3d75)"><g clip-path="url(#d7ae5724c0)"><g clip-path="url(#3b4ba21668)"><path fill="#260101" d="M 383.660156 625.253906 L 398.535156 620.78125 L 404.316406 640.015625 L 389.441406 644.488281 Z M 383.660156 625.253906 " fill-opacity="1" fill-rule="nonzero"/></g></g></g><g clip-path="url(#610c32cb35)"><g clip-path="url(#2404fb10dc)"><g clip-path="url(#c0bbb821b1)"><path fill="#260101" d="M 407.203125 616.457031 L 412.558594 629.144531 L 396.152344 636.074219 L 390.792969 623.382812 Z M 407.203125 616.457031 " fill-opacity="1" fill-rule="nonzero"/></g></g></g><g clip-path="url(#8abe800234)"><g clip-path="url(#617840ca1b)"><g clip-path="url(#ea9f8b661b)"><path fill="#260101" d="M 363.839844 444.535156 L 377.492188 460.785156 L 328.113281 502.273438 L 314.460938 486.023438 Z M 363.839844 444.535156 " fill-opacity="1" fill-rule="nonzero"/></g></g></g><g clip-path="url(#c760bbbca1)"><g clip-path="url(#a0941d2f21)"><g clip-path="url(#44bf884795)"><path fill="#260101" d="M 323.289062 496.308594 L 301.734375 509.289062 L 294.796875 497.765625 L 316.351562 484.789062 Z M 323.289062 496.308594 " fill-opacity="1" fill-rule="nonzero"/></g></g></g><g clip-path="url(#571f792cdb)"><g clip-path="url(#30f43e9392)"><g clip-path="url(#ed363c0bfe)"><path fill="#260101" d="M 307.921875 499.527344 L 323.460938 479.746094 L 337.257812 490.585938 L 321.722656 510.367188 Z M 307.921875 499.527344 " fill-opacity="1" fill-rule="nonzero"/></g></g></g><g clip-path="url(#2a1ae1907e)"><g clip-path="url(#c6d83274b3)"><g clip-path="url(#68eb7646b1)"><path fill="#260101" d="M 301.957031 484.507812 L 327.464844 497.941406 L 320.328125 511.488281 L 294.820312 498.054688 Z M 301.957031 484.507812 " fill-opacity="1" fill-rule="nonzero"/></g></g></g><g clip-path="url(#48ad2f6eea)"><g clip-path="url(#2173ef7cd3)"><g clip-path="url(#c3a2816c84)"><path fill="#260101" d="M 305.230469 499.847656 L 315.589844 476.925781 L 331.578125 484.15625 L 321.21875 507.074219 Z M 305.230469 499.847656 " fill-opacity="1" fill-rule="nonzero"/></g></g></g><g clip-path="url(#81990ce89e)"><g clip-path="url(#89ea117928)"><g clip-path="url(#c8913543f5)"><path fill="#260101" d="M 307.242188 501.011719 L 321.199219 483.171875 L 334.832031 493.835938 L 320.875 511.679688 Z M 307.242188 501.011719 " fill-opacity="1" fill-rule="nonzero"/></g></g></g><g clip-path="url(#303d20f95a)"><g clip-path="url(#8a87a0de76)"><g clip-path="url(#10b30a9021)"><path fill="#260101" d="M 323.746094 510.171875 L 317.859375 512.949219 L 310.472656 497.292969 L 316.359375 494.515625 Z M 323.746094 510.171875 " fill-opacity="1" fill-rule="nonzero"/></g></g></g><g clip-path="url(#0bf984bd89)"><g clip-path="url(#5d18a68ce9)"><g clip-path="url(#70ab0dffc3)"><path fill="#260101" d="M 324.097656 493.511719 L 329.683594 496.847656 L 320.808594 511.710938 L 315.222656 508.375 Z M 324.097656 493.511719 " fill-opacity="1" fill-rule="nonzero"/></g></g></g><g clip-path="url(#331599f3da)"><g clip-path="url(#afcae7a04b)"><g clip-path="url(#bcc5686ff9)"><path fill="#260101" d="M 491.785156 595.367188 L 468.605469 598.605469 L 458.761719 528.160156 L 481.941406 524.921875 Z M 491.785156 595.367188 " fill-opacity="1" fill-rule="nonzero"/></g></g></g><g clip-path="url(#58909e2ee0)"><g clip-path="url(#b604f76d50)"><g clip-path="url(#a7fefb0cd3)"><path fill="#260101" d="M 467.164062 527.144531 L 467.660156 499.398438 L 482.488281 499.664062 L 481.992188 527.410156 Z M 467.164062 527.144531 " fill-opacity="1" fill-rule="nonzero"/></g></g></g><g clip-path="url(#7a737035b9)"><g clip-path="url(#9bc82aa1b7)"><g clip-path="url(#93aa5e025f)"><path fill="#260101" d="M 473.144531 510.902344 L 482.53125 537.011719 L 464.320312 543.554688 L 454.933594 517.449219 Z M 473.144531 510.902344 " fill-opacity="1" fill-rule="nonzero"/></g></g></g><g clip-path="url(#9170a4c844)"><g clip-path="url(#5656a46e6e)"><g clip-path="url(#d361045923)"><path fill="#260101" d="M 490.675781 514.121094 L 463.179688 530.085938 L 454.699219 515.484375 L 482.195312 499.515625 Z M 490.675781 514.121094 " fill-opacity="1" fill-rule="nonzero"/></g></g></g><g clip-path="url(#60bfaa3b5d)"><g clip-path="url(#ef01abf195)"><g clip-path="url(#b51c546eb2)"><path fill="#260101" d="M 474.425781 508.199219 L 489.773438 531.308594 L 473.65625 542.015625 L 458.304688 518.90625 Z M 474.425781 508.199219 " fill-opacity="1" fill-rule="nonzero"/></g></g></g><g clip-path="url(#f51aa01bfd)"><g clip-path="url(#643200a292)"><g clip-path="url(#7dcfdbe712)"><path fill="#260101" d="M 472.160156 509.386719 L 480.65625 532.878906 L 462.703125 539.375 L 454.207031 515.878906 Z M 472.160156 509.386719 " fill-opacity="1" fill-rule="nonzero"/></g></g></g><g clip-path="url(#15a20d84d6)"><g clip-path="url(#89c2e58563)"><g clip-path="url(#11ffcf1493)"><path fill="#260101" d="M 453.941406 519.441406 L 454.792969 512.316406 L 473.75 514.585938 L 472.894531 521.710938 Z M 453.941406 519.441406 " fill-opacity="1" fill-rule="nonzero"/></g></g></g><g clip-path="url(#bc1cf0629a)"><g clip-path="url(#3528ea4ca0)"><g clip-path="url(#20f6900c57)"><path fill="#260101" d="M 469.296875 529.53125 L 462.90625 532.796875 L 454.21875 515.796875 L 460.609375 512.53125 Z M 469.296875 529.53125 " fill-opacity="1" fill-rule="nonzero"/></g></g></g><g clip-path="url(#ff22ca4f02)"><g clip-path="url(#99a2f76b67)"><g clip-path="url(#b276ec4433)"><path fill="#260101" d="M 284.640625 622.53125 L 293.089844 597.847656 L 368.101562 623.53125 L 359.652344 648.210938 Z M 284.640625 622.53125 " fill-opacity="1" fill-rule="nonzero"/></g></g></g><g clip-path="url(#89d4bcfc81)"><g clip-path="url(#480caa83f6)"><g clip-path="url(#7652461396)"><path fill="#260101" d="M 364.871094 632.390625 L 392.210938 646.859375 L 384.480469 661.46875 L 357.140625 647.003906 Z M 364.871094 632.390625 " fill-opacity="1" fill-rule="nonzero"/></g></g></g><g clip-path="url(#2a78e93aff)"><g clip-path="url(#df123a6665)"><g clip-path="url(#bdaa2a5e39)"><path fill="#260101" d="M 378.019531 646.527344 L 347.332031 642.710938 L 349.992188 621.308594 L 380.679688 625.121094 Z M 378.019531 646.527344 " fill-opacity="1" fill-rule="nonzero"/></g></g></g><g clip-path="url(#118ab9c0b3)"><g clip-path="url(#8babbcbefc)"><g clip-path="url(#912ca21b66)"><path fill="#260101" d="M 365.992188 662.34375 L 363.957031 626.960938 L 382.75 625.878906 L 384.785156 661.265625 Z M 365.992188 662.34375 " fill-opacity="1" fill-rule="nonzero"/></g></g></g><g clip-path="url(#a4c0abd735)"><g clip-path="url(#d8fe6d89ae)"><g clip-path="url(#cfb2fe4fa2)"><path fill="#260101" d="M 380.066406 649.160156 L 349.355469 652.789062 L 346.824219 631.367188 L 377.535156 627.738281 Z M 380.066406 649.160156 " fill-opacity="1" fill-rule="nonzero"/></g></g></g><g clip-path="url(#435ac5a2fe)"><g clip-path="url(#17508041c8)"><g clip-path="url(#048bb7bac8)"><path fill="#260101" d="M 380.023438 646.3125 L 352.382812 642.929688 L 354.964844 621.808594 L 382.605469 625.1875 Z M 380.023438 646.3125 " fill-opacity="1" fill-rule="nonzero"/></g></g></g><g clip-path="url(#52eaae1928)"><g clip-path="url(#1cc5eb6507)"><g clip-path="url(#617bb13206)"><path fill="#260101" d="M 379.199219 623.117188 L 385.855469 627.554688 L 374.054688 645.261719 L 367.398438 640.824219 Z M 379.199219 623.117188 " fill-opacity="1" fill-rule="nonzero"/></g></g></g><g clip-path="url(#21e8e3325a)"><g clip-path="url(#df6f6628a2)"><g clip-path="url(#bde61f3318)"><path fill="#260101" d="M 361.425781 633.320312 L 361.394531 625.320312 L 382.675781 625.238281 L 382.707031 633.238281 Z M 361.425781 633.320312 " fill-opacity="1" fill-rule="nonzero"/></g></g></g><g clip-path="url(#bfa4285ea6)"><g clip-path="url(#edc52dfeaf)"><path fill="#260101" d="M 329.050781 446.503906 L 441.902344 446.503906 L 441.902344 510.988281 L 329.050781 510.988281 Z M 329.050781 446.503906 " fill-opacity="1" fill-rule="nonzero"/></g></g><g clip-path="url(#4992f9c359)"><g clip-path="url(#c47602603f)"><g clip-path="url(#20c5ec53c4)"><path fill="#260101" d="M 319.613281 655.050781 L 261.960938 557.800781 L 322.683594 521.800781 L 380.339844 619.050781 Z M 319.613281 655.050781 " fill-opacity="1" fill-rule="nonzero"/></g></g></g><g clip-path="url(#e3e236b91a)"><g clip-path="url(#2e6c6ca817)"><g clip-path="url(#c1a418a4f2)"><path fill="#260101" d="M 509.152344 558.796875 L 450.820312 655.644531 L 390.351562 619.226562 L 448.679688 522.378906 Z M 509.152344 558.796875 " fill-opacity="1" fill-rule="nonzero"/></g></g></g><g clip-path="url(#b0ddff3469)"><g clip-path="url(#2d00982c7c)"><path fill="#260101" d="M 444.789062 620.121094 L 326.101562 620.121094 L 326.101562 516.417969 L 444.789062 516.417969 Z M 444.789062 620.121094 " fill-opacity="1" fill-rule="nonzero"/></g></g><g fill="#260101" fill-opacity="1"><g transform="translate(47.077387, 660.102684)"><g><path d="M 19.46875 -267.796875 L 115.234375 -267.796875 C 140.984375 -267.796875 161.972656 -260.921875 178.203125 -247.171875 C 194.429688 -233.429688 202.546875 -213.796875 202.546875 -188.265625 C 202.546875 -168.566406 197.625 -152.0625 187.78125 -138.75 C 177.9375 -125.445312 164.570312 -116.09375 147.6875 -110.6875 L 239.875 0 L 162.296875 0 L 80.5 -105.8125 L 80.5 0 L 19.46875 0 Z M 80.5 -148.984375 L 87.640625 -148.984375 C 93.265625 -148.984375 98.023438 -149.09375 101.921875 -149.3125 C 105.816406 -149.53125 110.253906 -150.285156 115.234375 -151.578125 C 120.210938 -152.878906 124.210938 -154.71875 127.234375 -157.09375 C 130.265625 -159.476562 132.863281 -162.941406 135.03125 -167.484375 C 137.195312 -172.035156 138.28125 -177.554688 138.28125 -184.046875 C 138.28125 -190.535156 137.195312 -196.050781 135.03125 -200.59375 C 132.863281 -205.144531 130.265625 -208.609375 127.234375 -210.984375 C 124.210938 -213.367188 120.210938 -215.207031 115.234375 -216.5 C 110.253906 -217.800781 105.816406 -218.554688 101.921875 -218.765625 C 98.023438 -218.984375 93.265625 -219.09375 87.640625 -219.09375 L 80.5 -219.09375 Z M 80.5 -148.984375 "/></g></g></g><g fill="#260101" fill-opacity="1"><g transform="translate(486.117046, 660.102684)"><g><path d="M 19.46875 0 L 19.46875 -279.15625 L 76.921875 -279.15625 L 76.921875 0 Z M 19.46875 0 "/></g></g></g><g fill="#260101" fill-opacity="1"><g transform="translate(582.520835, 660.102684)"><g><path d="M 19.46875 0 L 19.46875 -279.15625 L 76.921875 -279.15625 L 76.921875 0 Z M 19.46875 0 "/></g></g></g></svg>