<svg xmlns="http://www.w3.org/2000/svg" xmlns:xlink="http://www.w3.org/1999/xlink" width="1164" zoomAndPan="magnify" viewBox="0 0 872.88 335.249999" height="447" preserveAspectRatio="xMidYMid meet" version="1.0"><defs><g/><clipPath id="31c8fb8be3"><path d="M 643 95 L 680 95 L 680 128 L 643 128 Z M 643 95 " clip-rule="nonzero"/></clipPath><clipPath id="4e52fc8014"><path d="M 638.1875 100.753906 L 647.902344 89.328125 L 679.496094 116.195312 L 669.78125 127.617188 Z M 638.1875 100.753906 " clip-rule="nonzero"/></clipPath><clipPath id="3b1043fb01"><path d="M 643.046875 95.039062 L 679.476562 116.175781 L 669.761719 127.601562 Z M 643.046875 95.039062 " clip-rule="nonzero"/></clipPath><clipPath id="cda784f7a7"><path d="M 669 115 L 683 115 L 683 127 L 669 127 Z M 669 115 " clip-rule="nonzero"/></clipPath><clipPath id="c37ed0bccd"><path d="M 671.332031 129.84375 L 667.117188 123.382812 L 678.800781 115.761719 L 683.015625 122.222656 Z M 671.332031 129.84375 " clip-rule="nonzero"/></clipPath><clipPath id="5d808e1d5d"><path d="M 669.222656 126.613281 L 678.789062 115.769531 L 683.003906 122.230469 Z M 669.222656 126.613281 " clip-rule="nonzero"/></clipPath><clipPath id="a4c7e18453"><path d="M 678 115 L 688 115 L 688 125 L 678 125 Z M 678 115 " clip-rule="nonzero"/></clipPath><clipPath id="51dcba3fc8"><path d="M 687.53125 116.15625 L 687.136719 125.339844 L 678.460938 124.964844 L 678.859375 115.78125 Z M 687.53125 116.15625 " clip-rule="nonzero"/></clipPath><clipPath id="8123df42ef"><path d="M 687.335938 120.734375 L 678.464844 124.941406 L 678.859375 115.78125 Z M 687.335938 120.734375 " clip-rule="nonzero"/></clipPath><clipPath id="9df5a18908"><path d="M 670 119 L 680 119 L 680 130 L 670 130 Z M 670 119 " clip-rule="nonzero"/></clipPath><clipPath id="f62de0d6cb"><path d="M 673.28125 131.808594 L 667.480469 126.726562 L 674.054688 119.222656 L 679.855469 124.308594 Z M 673.28125 131.808594 " clip-rule="nonzero"/></clipPath><clipPath id="b407432a53"><path d="M 670.382812 129.269531 L 674.046875 119.230469 L 679.847656 124.316406 Z M 670.382812 129.269531 " clip-rule="nonzero"/></clipPath><clipPath id="fe58d4dbc0"><path d="M 665 121 L 675 121 L 675 130 L 665 130 Z M 665 121 " clip-rule="nonzero"/></clipPath><clipPath id="d88b23b64e"><path d="M 663.378906 124.214844 L 667.308594 118.613281 L 674.546875 123.695312 L 670.621094 129.292969 Z M 663.378906 124.214844 " clip-rule="nonzero"/></clipPath><clipPath id="f8c8f7a9ce"><path d="M 665.34375 121.414062 L 674.539062 123.6875 L 670.613281 129.289062 Z M 665.34375 121.414062 " clip-rule="nonzero"/></clipPath><clipPath id="5d6ae9fab9"><path d="M 578 132 L 595 132 L 595 178 L 578 178 Z M 578 132 " clip-rule="nonzero"/></clipPath><clipPath id="b07866225f"><path d="M 586.167969 178.890625 L 570.394531 175.878906 L 578.726562 132.25 L 594.5 135.261719 Z M 586.167969 178.890625 " clip-rule="nonzero"/></clipPath><clipPath id="1164c453d4"><path d="M 578.28125 177.386719 L 578.722656 132.277344 L 594.496094 135.289062 Z M 578.28125 177.386719 " clip-rule="nonzero"/></clipPath><clipPath id="6450f2ceed"><path d="M 578 125 L 594 125 L 594 137 L 578 137 Z M 578 125 " clip-rule="nonzero"/></clipPath><clipPath id="46e5abf701"><path d="M 595.761719 132.640625 L 591.96875 139.980469 L 578.695312 133.121094 L 582.484375 125.78125 Z M 595.761719 132.640625 " clip-rule="nonzero"/></clipPath><clipPath id="6af551cbbf"><path d="M 593.867188 136.308594 L 578.707031 133.128906 L 582.5 125.789062 Z M 593.867188 136.308594 " clip-rule="nonzero"/></clipPath><clipPath id="b6053cf14b"><path d="M 578 122 L 588 122 L 588 134 L 578 134 Z M 578 122 " clip-rule="nonzero"/></clipPath><clipPath id="c8ed3c9f97"><path d="M 574.441406 124.78125 L 583.207031 120.296875 L 587.441406 128.578125 L 578.675781 133.058594 Z M 574.441406 124.78125 " clip-rule="nonzero"/></clipPath><clipPath id="658d4b20b9"><path d="M 578.8125 122.546875 L 587.417969 128.589844 L 578.675781 133.058594 Z M 578.8125 122.546875 " clip-rule="nonzero"/></clipPath><clipPath id="a78fd9d009"><path d="M 584 127 L 596 127 L 596 136 L 584 136 Z M 584 127 " clip-rule="nonzero"/></clipPath><clipPath id="a00962e9f1"><path d="M 596.550781 129.78125 L 594.882812 137.875 L 584.421875 135.714844 L 586.089844 127.625 Z M 596.550781 129.78125 " clip-rule="nonzero"/></clipPath><clipPath id="6eac07875b"><path d="M 595.71875 133.828125 L 584.429688 135.71875 L 586.101562 127.625 Z M 595.71875 133.828125 " clip-rule="nonzero"/></clipPath><clipPath id="fc3fdc0511"><path d="M 588 132 L 596 132 L 596 143 L 588 143 Z M 588 132 " clip-rule="nonzero"/></clipPath><clipPath id="f60df8f71d"><path d="M 594.714844 143.027344 L 587.425781 142.324219 L 588.332031 132.894531 L 595.625 133.597656 Z M 594.714844 143.027344 " clip-rule="nonzero"/></clipPath><clipPath id="9425c09389"><path d="M 591.070312 142.675781 L 588.328125 132.90625 L 595.621094 133.605469 Z M 591.070312 142.675781 " clip-rule="nonzero"/></clipPath><clipPath id="630004fc81"><path d="M 639 187 L 689 187 L 689 211 L 639 211 Z M 639 187 " clip-rule="nonzero"/></clipPath><clipPath id="08a117d739"><path d="M 685.476562 179.371094 L 690.757812 196.046875 L 644.636719 210.652344 L 639.355469 193.976562 Z M 685.476562 179.371094 " clip-rule="nonzero"/></clipPath><clipPath id="2764575c94"><path d="M 688.117188 187.707031 L 644.667969 210.640625 L 639.382812 193.964844 Z M 688.117188 187.707031 " clip-rule="nonzero"/></clipPath><clipPath id="17f4f3a971"><path d="M 636 194 L 646 194 L 646 211 L 636 211 Z M 636 194 " clip-rule="nonzero"/></clipPath><clipPath id="3a738fd20e"><path d="M 636.191406 194.132812 L 645.1875 193.964844 L 645.488281 210.234375 L 636.492188 210.402344 Z M 636.191406 194.132812 " clip-rule="nonzero"/></clipPath><clipPath id="ccccf8a449"><path d="M 640.6875 194.046875 L 645.488281 210.21875 L 636.492188 210.382812 Z M 640.6875 194.046875 " clip-rule="nonzero"/></clipPath><clipPath id="3df862c5ab"><path d="M 635 204 L 646 204 L 646 216 L 635 216 Z M 635 204 " clip-rule="nonzero"/></clipPath><clipPath id="096a93e93d"><path d="M 639.699219 218.632812 L 630.867188 212.558594 L 636.605469 204.214844 L 645.4375 210.289062 Z M 639.699219 218.632812 " clip-rule="nonzero"/></clipPath><clipPath id="ac131e18f4"><path d="M 635.296875 215.601562 L 636.628906 204.230469 L 645.4375 210.289062 Z M 635.296875 215.601562 " clip-rule="nonzero"/></clipPath><clipPath id="6152b5fc19"><path d="M 636 193 L 646 193 L 646 206 L 636 206 Z M 636 193 " clip-rule="nonzero"/></clipPath><clipPath id="daa91b49f5"><path d="M 633.042969 194.851562 L 641.664062 192.261719 L 645.011719 203.402344 L 636.394531 205.992188 Z M 633.042969 194.851562 " clip-rule="nonzero"/></clipPath><clipPath id="6c4be34b4b"><path d="M 637.355469 193.558594 L 645.007812 203.390625 L 636.390625 205.980469 Z M 637.355469 193.558594 " clip-rule="nonzero"/></clipPath><clipPath id="1ae6cf0501"><path d="M 637 193 L 649 193 L 649 202 L 637 202 Z M 637 193 " clip-rule="nonzero"/></clipPath><clipPath id="bbda7d557c"><path d="M 646.683594 189.753906 L 649.785156 197.105469 L 640.28125 201.121094 L 637.179688 193.769531 Z M 646.683594 189.753906 " clip-rule="nonzero"/></clipPath><clipPath id="0710c24719"><path d="M 648.234375 193.429688 L 640.292969 201.113281 L 637.1875 193.765625 Z M 648.234375 193.429688 " clip-rule="nonzero"/></clipPath><clipPath id="a9510c540e"><path d="M 592 94 L 626 94 L 626 124 L 592 124 Z M 592 94 " clip-rule="nonzero"/></clipPath><clipPath id="8f989538f3"><path d="M 621.5625 90.167969 L 629.472656 99.582031 L 600.867188 123.613281 L 592.960938 114.203125 Z M 621.5625 90.167969 " clip-rule="nonzero"/></clipPath><clipPath id="89f15bb099"><path d="M 625.519531 94.875 L 600.871094 123.609375 L 592.964844 114.199219 Z M 625.519531 94.875 " clip-rule="nonzero"/></clipPath><clipPath id="23f9f09ec7"><path d="M 581 113 L 595 113 L 595 124 L 581 124 Z M 581 113 " clip-rule="nonzero"/></clipPath><clipPath id="c5da866fe6"><path d="M 598.074219 120.160156 L 585.585938 127.675781 L 581.570312 121.003906 L 594.054688 113.484375 Z M 598.074219 120.160156 " clip-rule="nonzero"/></clipPath><clipPath id="662446376e"><path d="M 591.835938 123.914062 L 581.578125 121 L 594.054688 113.484375 Z M 591.835938 123.914062 " clip-rule="nonzero"/></clipPath><clipPath id="5f57c38d39"><path d="M 593 116 L 607 116 L 607 129 L 593 129 Z M 593 116 " clip-rule="nonzero"/></clipPath><clipPath id="af04ef10c3"><path d="M 589.171875 122.023438 L 598.171875 110.566406 L 606.167969 116.84375 L 597.167969 128.300781 Z M 589.171875 122.023438 " clip-rule="nonzero"/></clipPath><clipPath id="a3e940f71f"><path d="M 593.671875 116.296875 L 606.164062 116.847656 L 597.167969 128.300781 Z M 593.671875 116.296875 " clip-rule="nonzero"/></clipPath><clipPath id="fdf66770e2"><path d="M 581 117 L 597 117 L 597 129 L 581 129 Z M 581 117 " clip-rule="nonzero"/></clipPath><clipPath id="1f6f1519af"><path d="M 585.71875 113.324219 L 600.492188 121.105469 L 596.359375 128.953125 L 581.585938 121.171875 Z M 585.71875 113.324219 " clip-rule="nonzero"/></clipPath><clipPath id="c0d22a0253"><path d="M 593.097656 117.210938 L 596.347656 128.945312 L 581.585938 121.171875 Z M 593.097656 117.210938 " clip-rule="nonzero"/></clipPath><clipPath id="f6f2b42ffb"><path d="M 590 113 L 603 113 L 603 127 L 590 127 Z M 590 113 " clip-rule="nonzero"/></clipPath><clipPath id="d191c9660d"><path d="M 587.613281 122.210938 L 593.613281 108.933594 L 602.875 113.117188 L 596.875 126.394531 Z M 587.613281 122.210938 " clip-rule="nonzero"/></clipPath><clipPath id="71645c944e"><path d="M 590.613281 115.574219 L 602.875 113.121094 L 596.875 126.394531 Z M 590.613281 115.574219 " clip-rule="nonzero"/></clipPath><clipPath id="728b3107fc"><path d="M 592 117 L 605 117 L 605 130 L 592 130 Z M 592 117 " clip-rule="nonzero"/></clipPath><clipPath id="bd6e83fe72"><path d="M 588.777344 122.882812 L 596.886719 112.519531 L 604.785156 118.695312 L 596.675781 129.0625 Z M 588.777344 122.882812 " clip-rule="nonzero"/></clipPath><clipPath id="4ae9c9edba"><path d="M 592.824219 117.714844 L 604.765625 118.722656 L 596.675781 129.0625 Z M 592.824219 117.714844 " clip-rule="nonzero"/></clipPath><clipPath id="69197675c8"><path d="M 590 119 L 597 119 L 597 129 L 590 129 Z M 590 119 " clip-rule="nonzero"/></clipPath><clipPath id="52a8c00dee"><path d="M 598.339844 128.191406 L 594.929688 129.796875 L 590.644531 120.714844 L 594.054688 119.109375 Z M 598.339844 128.191406 " clip-rule="nonzero"/></clipPath><clipPath id="aba5c4a72c"><path d="M 596.632812 128.992188 L 590.652344 120.730469 L 594.058594 119.121094 Z M 596.632812 128.992188 " clip-rule="nonzero"/></clipPath><clipPath id="daf3d027ff"><path d="M 593 119 L 601 119 L 601 130 L 593 130 Z M 593 119 " clip-rule="nonzero"/></clipPath><clipPath id="670885b2e5"><path d="M 598.542969 118.539062 L 601.777344 120.472656 L 596.628906 129.09375 L 593.394531 127.160156 Z M 598.542969 118.539062 " clip-rule="nonzero"/></clipPath><clipPath id="b0237de992"><path d="M 600.160156 119.507812 L 596.636719 129.082031 L 593.402344 127.148438 Z M 600.160156 119.507812 " clip-rule="nonzero"/></clipPath><clipPath id="71a2b53045"><path d="M 676 136 L 690 136 L 690 179 L 676 179 Z M 676 136 " clip-rule="nonzero"/></clipPath><clipPath id="62c48d2286"><path d="M 695.675781 177.539062 L 682.25 179.414062 L 676.546875 138.609375 L 689.976562 136.734375 Z M 695.675781 177.539062 " clip-rule="nonzero"/></clipPath><clipPath id="9be2609b51"><path d="M 688.964844 178.476562 L 676.550781 138.613281 L 689.976562 136.738281 Z M 688.964844 178.476562 " clip-rule="nonzero"/></clipPath><clipPath id="46e9f36d00"><path d="M 681 122 L 691 122 L 691 139 L 681 139 Z M 681 122 " clip-rule="nonzero"/></clipPath><clipPath id="e6c297fe8c"><path d="M 681.414062 138.019531 L 681.703125 121.949219 L 690.292969 122.101562 L 690.003906 138.175781 Z M 681.414062 138.019531 " clip-rule="nonzero"/></clipPath><clipPath id="c801299aad"><path d="M 681.558594 129.988281 L 690.292969 122.113281 L 690.003906 138.175781 Z M 681.558594 129.988281 " clip-rule="nonzero"/></clipPath><clipPath id="be3ac861a9"><path d="M 674 132 L 688 132 L 688 148 L 674 148 Z M 674 132 " clip-rule="nonzero"/></clipPath><clipPath id="c2732e437d"><path d="M 684.878906 128.613281 L 690.316406 143.734375 L 679.765625 147.527344 L 674.332031 132.40625 Z M 684.878906 128.613281 " clip-rule="nonzero"/></clipPath><clipPath id="af94bb6497"><path d="M 687.597656 136.171875 L 679.765625 147.523438 L 674.332031 132.40625 Z M 687.597656 136.171875 " clip-rule="nonzero"/></clipPath><clipPath id="5e62447907"><path d="M 674 122 L 691 122 L 691 136 L 674 136 Z M 674 122 " clip-rule="nonzero"/></clipPath><clipPath id="ae7b7b8d9f"><path d="M 695.035156 130.476562 L 679.109375 139.726562 L 674.195312 131.265625 L 690.125 122.019531 Z M 695.035156 130.476562 " clip-rule="nonzero"/></clipPath><clipPath id="ca3ebdada0"><path d="M 687.078125 135.097656 L 674.210938 131.257812 L 690.125 122.019531 Z M 687.078125 135.097656 " clip-rule="nonzero"/></clipPath><clipPath id="24805441ab"><path d="M 676 133 L 691 133 L 691 147 L 676 147 Z M 676 133 " clip-rule="nonzero"/></clipPath><clipPath id="baa7ff3a09"><path d="M 685.621094 127.046875 L 694.511719 140.433594 L 685.175781 146.636719 L 676.285156 133.25 Z M 685.621094 127.046875 " clip-rule="nonzero"/></clipPath><clipPath id="254f57f943"><path d="M 690.066406 133.738281 L 685.171875 146.632812 L 676.285156 133.25 Z M 690.066406 133.738281 " clip-rule="nonzero"/></clipPath><clipPath id="b98317e755"><path d="M 673 131 L 687 131 L 687 146 L 673 146 Z M 673 131 " clip-rule="nonzero"/></clipPath><clipPath id="86dae6f53e"><path d="M 684.308594 127.734375 L 689.246094 141.382812 L 678.847656 145.144531 L 673.910156 131.496094 Z M 684.308594 127.734375 " clip-rule="nonzero"/></clipPath><clipPath id="1fe438dbb9"><path d="M 686.773438 134.542969 L 678.835938 145.113281 L 673.910156 131.496094 Z M 686.773438 134.542969 " clip-rule="nonzero"/></clipPath><clipPath id="2d0d562c5c"><path d="M 674 130 L 686 130 L 686 135 L 674 135 Z M 674 130 " clip-rule="nonzero"/></clipPath><clipPath id="62ae9339f1"><path d="M 673.753906 133.558594 L 674.25 129.433594 L 685.246094 130.75 L 684.753906 134.875 Z M 673.753906 133.558594 " clip-rule="nonzero"/></clipPath><clipPath id="cbfc7ddfca"><path d="M 674.003906 131.496094 L 685.230469 130.746094 L 684.734375 134.875 Z M 674.003906 131.496094 " clip-rule="nonzero"/></clipPath><clipPath id="4aecc11f6d"><path d="M 673 129 L 681 129 L 681 141 L 673 141 Z M 673 129 " clip-rule="nonzero"/></clipPath><clipPath id="a0f92e547f"><path d="M 682.652344 139.402344 L 678.949219 141.296875 L 673.910156 131.433594 L 677.609375 129.542969 Z M 682.652344 139.402344 " clip-rule="nonzero"/></clipPath><clipPath id="03ef863a44"><path d="M 680.800781 140.347656 L 673.917969 131.449219 L 677.617188 129.554688 Z M 680.800781 140.347656 " clip-rule="nonzero"/></clipPath><clipPath id="bf954cade3"><path d="M 578 186 L 625 186 L 625 209 L 578 209 Z M 578 186 " clip-rule="nonzero"/></clipPath><clipPath id="190bb17fca"><path d="M 575.6875 193.273438 L 580.582031 178.976562 L 624.035156 193.851562 L 619.136719 208.152344 Z M 575.6875 193.273438 " clip-rule="nonzero"/></clipPath><clipPath id="a9b69797d7"><path d="M 578.132812 186.125 L 624.027344 193.851562 L 619.132812 208.148438 Z M 578.132812 186.125 " clip-rule="nonzero"/></clipPath><clipPath id="723cedec41"><path d="M 617 203 L 634 203 L 634 216 L 617 216 Z M 617 203 " clip-rule="nonzero"/></clipPath><clipPath id="fc465100c5"><path d="M 622.160156 198.988281 L 638 207.367188 L 633.519531 215.832031 L 617.683594 207.449219 Z M 622.160156 198.988281 " clip-rule="nonzero"/></clipPath><clipPath id="47873eb383"><path d="M 630.074219 203.175781 L 633.511719 215.824219 L 617.683594 207.449219 Z M 630.074219 203.175781 " clip-rule="nonzero"/></clipPath><clipPath id="6be0767b73"><path d="M 613 192 L 632 192 L 632 207 L 613 207 Z M 613 192 " clip-rule="nonzero"/></clipPath><clipPath id="2367c7d73d"><path d="M 629.777344 207.175781 L 612.003906 204.964844 L 613.542969 192.566406 L 631.320312 194.773438 Z M 629.777344 207.175781 " clip-rule="nonzero"/></clipPath><clipPath id="6c7c6c6dda"><path d="M 620.894531 206.070312 L 613.546875 192.566406 L 631.320312 194.773438 Z M 620.894531 206.070312 " clip-rule="nonzero"/></clipPath><clipPath id="7beb18fb0b"><path d="M 622 195 L 634 195 L 634 216 L 622 216 Z M 622 195 " clip-rule="nonzero"/></clipPath><clipPath id="375deda1b0"><path d="M 622.808594 216.335938 L 621.632812 195.839844 L 632.519531 195.214844 L 633.695312 215.710938 Z M 622.808594 216.335938 " clip-rule="nonzero"/></clipPath><clipPath id="5062a24198"><path d="M 622.222656 206.097656 L 632.519531 195.234375 L 633.695312 215.710938 Z M 622.222656 206.097656 " clip-rule="nonzero"/></clipPath><clipPath id="ba17da2b3e"><path d="M 611 196 L 630 196 L 630 210 L 611 210 Z M 611 196 " clip-rule="nonzero"/></clipPath><clipPath id="6d4a5c0fe2"><path d="M 630.964844 208.699219 L 613.175781 210.800781 L 611.707031 198.390625 L 629.496094 196.289062 Z M 630.964844 208.699219 " clip-rule="nonzero"/></clipPath><clipPath id="b0aa72359b"><path d="M 622.070312 209.75 L 611.714844 198.390625 L 629.496094 196.289062 Z M 622.070312 209.75 " clip-rule="nonzero"/></clipPath><clipPath id="aa9e4a97b4"><path d="M 616 192 L 633 192 L 633 207 L 616 207 Z M 616 192 " clip-rule="nonzero"/></clipPath><clipPath id="0c91bdc99c"><path d="M 630.9375 207.050781 L 614.878906 205.085938 L 616.375 192.851562 L 632.433594 194.8125 Z M 630.9375 207.050781 " clip-rule="nonzero"/></clipPath><clipPath id="6e599f8f44"><path d="M 622.925781 206.070312 L 616.414062 192.855469 L 632.433594 194.8125 Z M 622.925781 206.070312 " clip-rule="nonzero"/></clipPath><clipPath id="be8258778b"><path d="M 623 194 L 633 194 L 633 207 L 623 207 Z M 623 194 " clip-rule="nonzero"/></clipPath><clipPath id="9ffa689941"><path d="M 630.460938 193.613281 L 634.316406 196.183594 L 627.472656 206.457031 L 623.613281 203.886719 Z M 630.460938 193.613281 " clip-rule="nonzero"/></clipPath><clipPath id="3ee497164a"><path d="M 632.390625 194.898438 L 627.480469 206.441406 L 623.625 203.871094 Z M 632.390625 194.898438 " clip-rule="nonzero"/></clipPath><clipPath id="051ef5a085"><path d="M 620 194 L 633 194 L 633 200 L 620 200 Z M 620 194 " clip-rule="nonzero"/></clipPath><clipPath id="526c696bba"><path d="M 620.167969 199.523438 L 620.148438 194.890625 L 632.492188 194.84375 L 632.511719 199.476562 Z M 620.167969 199.523438 " clip-rule="nonzero"/></clipPath><clipPath id="5e33458453"><path d="M 620.15625 197.207031 L 632.476562 194.84375 L 632.492188 199.476562 Z M 620.15625 197.207031 " clip-rule="nonzero"/></clipPath><clipPath id="5311f7f407"><path d="M 601.414062 91.308594 L 666.929688 91.308594 L 666.929688 128.664062 L 601.414062 128.664062 Z M 601.414062 91.308594 " clip-rule="nonzero"/></clipPath><clipPath id="6eec578524"><path d="M 634.132812 91.308594 L 666.851562 128.664062 L 601.414062 128.664062 Z M 634.132812 91.308594 " clip-rule="nonzero"/></clipPath><clipPath id="55f591e455"><path d="M 579 134 L 632 134 L 632 192 L 579 192 Z M 579 134 " clip-rule="nonzero"/></clipPath><clipPath id="de7d4eba66"><path d="M 595.945312 212.113281 L 562.550781 155.777344 L 597.722656 134.925781 L 631.121094 191.257812 Z M 595.945312 212.113281 " clip-rule="nonzero"/></clipPath><clipPath id="ddc7a96a4a"><path d="M 579.261719 183.96875 L 597.75 134.96875 L 631.121094 191.257812 Z M 579.261719 183.96875 " clip-rule="nonzero"/></clipPath><clipPath id="c4aa6e5b04"><path d="M 636 135 L 689 135 L 689 192 L 636 192 Z M 636 135 " clip-rule="nonzero"/></clipPath><clipPath id="49e572e460"><path d="M 705.738281 156.355469 L 671.949219 212.457031 L 636.921875 191.359375 L 670.710938 135.257812 Z M 705.738281 156.355469 " clip-rule="nonzero"/></clipPath><clipPath id="5b36e0c95c"><path d="M 688.855469 184.386719 L 636.945312 191.316406 L 670.710938 135.257812 Z M 688.855469 184.386719 " clip-rule="nonzero"/></clipPath><clipPath id="22999240eb"><path d="M 599.703125 131.808594 L 668.453125 131.808594 L 668.453125 191.878906 L 599.703125 191.878906 Z M 599.703125 131.808594 " clip-rule="nonzero"/></clipPath><clipPath id="87293399a9"><path d="M 634.128906 191.878906 L 599.804688 131.808594 L 668.453125 131.808594 Z M 634.128906 191.878906 " clip-rule="nonzero"/></clipPath></defs><g clip-path="url(#31c8fb8be3)"><g clip-path="url(#4e52fc8014)"><g clip-path="url(#3b1043fb01)"><path fill="#f1e5d7" d="M 638.1875 100.753906 L 647.902344 89.328125 L 679.496094 116.195312 L 669.78125 127.617188 Z M 638.1875 100.753906 " fill-opacity="1" fill-rule="nonzero"/></g></g></g><g clip-path="url(#cda784f7a7)"><g clip-path="url(#c37ed0bccd)"><g clip-path="url(#5d808e1d5d)"><path fill="#f1e5d7" d="M 671.332031 129.84375 L 667.117188 123.382812 L 678.777344 115.777344 L 682.992188 122.238281 Z M 671.332031 129.84375 " fill-opacity="1" fill-rule="nonzero"/></g></g></g><g clip-path="url(#a4c7e18453)"><g clip-path="url(#51dcba3fc8)"><g clip-path="url(#8123df42ef)"><path fill="#f1e5d7" d="M 687.53125 116.15625 L 687.136719 125.304688 L 678.464844 124.929688 L 678.859375 115.78125 Z M 687.53125 116.15625 " fill-opacity="1" fill-rule="nonzero"/></g></g></g><g clip-path="url(#9df5a18908)"><g clip-path="url(#f62de0d6cb)"><g clip-path="url(#b407432a53)"><path fill="#f1e5d7" d="M 673.28125 131.808594 L 667.480469 126.726562 L 674.054688 119.222656 L 679.855469 124.308594 Z M 673.28125 131.808594 " fill-opacity="1" fill-rule="nonzero"/></g></g></g><g clip-path="url(#fe58d4dbc0)"><g clip-path="url(#d88b23b64e)"><g clip-path="url(#f8c8f7a9ce)"><path fill="#f1e5d7" d="M 663.378906 124.214844 L 667.308594 118.613281 L 674.546875 123.695312 L 670.621094 129.292969 Z M 663.378906 124.214844 " fill-opacity="1" fill-rule="nonzero"/></g></g></g><g clip-path="url(#5d6ae9fab9)"><g clip-path="url(#b07866225f)"><g clip-path="url(#1164c453d4)"><path fill="#f1e5d7" d="M 586.167969 178.890625 L 570.394531 175.878906 L 578.726562 132.25 L 594.503906 135.261719 Z M 586.167969 178.890625 " fill-opacity="1" fill-rule="nonzero"/></g></g></g><g clip-path="url(#6450f2ceed)"><g clip-path="url(#46e5abf701)"><g clip-path="url(#6af551cbbf)"><path fill="#f1e5d7" d="M 595.761719 132.640625 L 591.96875 139.980469 L 578.722656 133.136719 L 582.515625 125.796875 Z M 595.761719 132.640625 " fill-opacity="1" fill-rule="nonzero"/></g></g></g><g clip-path="url(#b6053cf14b)"><g clip-path="url(#c8ed3c9f97)"><g clip-path="url(#658d4b20b9)"><path fill="#f1e5d7" d="M 574.441406 124.78125 L 583.171875 120.316406 L 587.40625 128.59375 L 578.675781 133.058594 Z M 574.441406 124.78125 " fill-opacity="1" fill-rule="nonzero"/></g></g></g><g clip-path="url(#a78fd9d009)"><g clip-path="url(#a00962e9f1)"><g clip-path="url(#6eac07875b)"><path fill="#f1e5d7" d="M 596.550781 129.78125 L 594.882812 137.875 L 584.421875 135.714844 L 586.089844 127.625 Z M 596.550781 129.78125 " fill-opacity="1" fill-rule="nonzero"/></g></g></g><g clip-path="url(#fc3fdc0511)"><g clip-path="url(#f60df8f71d)"><g clip-path="url(#9425c09389)"><path fill="#f1e5d7" d="M 594.714844 143.027344 L 587.425781 142.324219 L 588.332031 132.894531 L 595.625 133.597656 Z M 594.714844 143.027344 " fill-opacity="1" fill-rule="nonzero"/></g></g></g><g clip-path="url(#630004fc81)"><g clip-path="url(#08a117d739)"><g clip-path="url(#2764575c94)"><path fill="#f1e5d7" d="M 685.476562 179.371094 L 690.757812 196.046875 L 644.636719 210.652344 L 639.355469 193.976562 Z M 685.476562 179.371094 " fill-opacity="1" fill-rule="nonzero"/></g></g></g><g clip-path="url(#17f4f3a971)"><g clip-path="url(#3a738fd20e)"><g clip-path="url(#ccccf8a449)"><path fill="#f1e5d7" d="M 636.191406 194.132812 L 645.1875 193.964844 L 645.488281 210.199219 L 636.492188 210.367188 Z M 636.191406 194.132812 " fill-opacity="1" fill-rule="nonzero"/></g></g></g><g clip-path="url(#3df862c5ab)"><g clip-path="url(#096a93e93d)"><g clip-path="url(#ac131e18f4)"><path fill="#f1e5d7" d="M 639.699219 218.632812 L 630.898438 212.578125 L 636.636719 204.234375 L 645.4375 210.289062 Z M 639.699219 218.632812 " fill-opacity="1" fill-rule="nonzero"/></g></g></g><g clip-path="url(#6152b5fc19)"><g clip-path="url(#daa91b49f5)"><g clip-path="url(#6c4be34b4b)"><path fill="#f1e5d7" d="M 633.042969 194.851562 L 641.664062 192.261719 L 645.011719 203.402344 L 636.394531 205.992188 Z M 633.042969 194.851562 " fill-opacity="1" fill-rule="nonzero"/></g></g></g><g clip-path="url(#1ae6cf0501)"><g clip-path="url(#bbda7d557c)"><g clip-path="url(#0710c24719)"><path fill="#f1e5d7" d="M 646.683594 189.753906 L 649.785156 197.105469 L 640.28125 201.121094 L 637.179688 193.769531 Z M 646.683594 189.753906 " fill-opacity="1" fill-rule="nonzero"/></g></g></g><g clip-path="url(#a9510c540e)"><g clip-path="url(#8f989538f3)"><g clip-path="url(#89f15bb099)"><path fill="#f1e5d7" d="M 621.5625 90.167969 L 629.472656 99.582031 L 600.867188 123.613281 L 592.960938 114.203125 Z M 621.5625 90.167969 " fill-opacity="1" fill-rule="nonzero"/></g></g></g><g clip-path="url(#23f9f09ec7)"><g clip-path="url(#c5da866fe6)"><g clip-path="url(#662446376e)"><path fill="#f1e5d7" d="M 598.074219 120.160156 L 585.585938 127.675781 L 581.570312 121.003906 L 594.054688 113.484375 Z M 598.074219 120.160156 " fill-opacity="1" fill-rule="nonzero"/></g></g></g><g clip-path="url(#5f57c38d39)"><g clip-path="url(#af04ef10c3)"><g clip-path="url(#a3e940f71f)"><path fill="#f1e5d7" d="M 589.171875 122.023438 L 598.171875 110.566406 L 606.167969 116.84375 L 597.167969 128.300781 Z M 589.171875 122.023438 " fill-opacity="1" fill-rule="nonzero"/></g></g></g><g clip-path="url(#fdf66770e2)"><g clip-path="url(#1f6f1519af)"><g clip-path="url(#c0d22a0253)"><path fill="#f1e5d7" d="M 585.71875 113.324219 L 600.492188 121.105469 L 596.359375 128.953125 L 581.585938 121.171875 Z M 585.71875 113.324219 " fill-opacity="1" fill-rule="nonzero"/></g></g></g><g clip-path="url(#f6f2b42ffb)"><g clip-path="url(#d191c9660d)"><g clip-path="url(#71645c944e)"><path fill="#f1e5d7" d="M 587.613281 122.210938 L 593.613281 108.933594 L 602.875 113.117188 L 596.875 126.394531 Z M 587.613281 122.210938 " fill-opacity="1" fill-rule="nonzero"/></g></g></g><g clip-path="url(#728b3107fc)"><g clip-path="url(#bd6e83fe72)"><g clip-path="url(#4ae9c9edba)"><path fill="#f1e5d7" d="M 588.777344 122.882812 L 596.863281 112.550781 L 604.761719 118.726562 L 596.675781 129.0625 Z M 588.777344 122.882812 " fill-opacity="1" fill-rule="nonzero"/></g></g></g><g clip-path="url(#69197675c8)"><g clip-path="url(#52a8c00dee)"><g clip-path="url(#aba5c4a72c)"><path fill="#f1e5d7" d="M 598.339844 128.191406 L 594.929688 129.796875 L 590.652344 120.730469 L 594.058594 119.121094 Z M 598.339844 128.191406 " fill-opacity="1" fill-rule="nonzero"/></g></g></g><g clip-path="url(#daf3d027ff)"><g clip-path="url(#670885b2e5)"><g clip-path="url(#b0237de992)"><path fill="#f1e5d7" d="M 598.542969 118.539062 L 601.777344 120.472656 L 596.636719 129.082031 L 593.402344 127.148438 Z M 598.542969 118.539062 " fill-opacity="1" fill-rule="nonzero"/></g></g></g><g clip-path="url(#71a2b53045)"><g clip-path="url(#62c48d2286)"><g clip-path="url(#9be2609b51)"><path fill="#f1e5d7" d="M 695.675781 177.539062 L 682.25 179.414062 L 676.546875 138.609375 L 689.976562 136.734375 Z M 695.675781 177.539062 " fill-opacity="1" fill-rule="nonzero"/></g></g></g><g clip-path="url(#46e9f36d00)"><g clip-path="url(#e6c297fe8c)"><g clip-path="url(#c801299aad)"><path fill="#f1e5d7" d="M 681.414062 138.019531 L 681.703125 121.949219 L 690.292969 122.101562 L 690.003906 138.175781 Z M 681.414062 138.019531 " fill-opacity="1" fill-rule="nonzero"/></g></g></g><g clip-path="url(#be3ac861a9)"><g clip-path="url(#c2732e437d)"><g clip-path="url(#af94bb6497)"><path fill="#f1e5d7" d="M 684.878906 128.613281 L 690.316406 143.734375 L 679.765625 147.527344 L 674.332031 132.40625 Z M 684.878906 128.613281 " fill-opacity="1" fill-rule="nonzero"/></g></g></g><g clip-path="url(#5e62447907)"><g clip-path="url(#ae7b7b8d9f)"><g clip-path="url(#ca3ebdada0)"><path fill="#f1e5d7" d="M 695.035156 130.476562 L 679.109375 139.726562 L 674.195312 131.265625 L 690.125 122.019531 Z M 695.035156 130.476562 " fill-opacity="1" fill-rule="nonzero"/></g></g></g><g clip-path="url(#24805441ab)"><g clip-path="url(#baa7ff3a09)"><g clip-path="url(#254f57f943)"><path fill="#f1e5d7" d="M 685.621094 127.046875 L 694.511719 140.433594 L 685.175781 146.636719 L 676.285156 133.25 Z M 685.621094 127.046875 " fill-opacity="1" fill-rule="nonzero"/></g></g></g><g clip-path="url(#b98317e755)"><g clip-path="url(#86dae6f53e)"><g clip-path="url(#1fe438dbb9)"><path fill="#f1e5d7" d="M 684.308594 127.734375 L 689.230469 141.34375 L 678.832031 145.105469 L 673.910156 131.496094 Z M 684.308594 127.734375 " fill-opacity="1" fill-rule="nonzero"/></g></g></g><g clip-path="url(#2d0d562c5c)"><g clip-path="url(#62ae9339f1)"><g clip-path="url(#cbfc7ddfca)"><path fill="#f1e5d7" d="M 673.753906 133.558594 L 674.25 129.433594 L 685.230469 130.746094 L 684.734375 134.875 Z M 673.753906 133.558594 " fill-opacity="1" fill-rule="nonzero"/></g></g></g><g clip-path="url(#4aecc11f6d)"><g clip-path="url(#a0f92e547f)"><g clip-path="url(#03ef863a44)"><path fill="#f1e5d7" d="M 682.652344 139.402344 L 678.949219 141.296875 L 673.917969 131.449219 L 677.617188 129.554688 Z M 682.652344 139.402344 " fill-opacity="1" fill-rule="nonzero"/></g></g></g><g clip-path="url(#bf954cade3)"><g clip-path="url(#190bb17fca)"><g clip-path="url(#a9b69797d7)"><path fill="#f1e5d7" d="M 575.6875 193.273438 L 580.582031 178.976562 L 624.035156 193.851562 L 619.136719 208.152344 Z M 575.6875 193.273438 " fill-opacity="1" fill-rule="nonzero"/></g></g></g><g clip-path="url(#723cedec41)"><g clip-path="url(#fc465100c5)"><g clip-path="url(#47873eb383)"><path fill="#f1e5d7" d="M 622.160156 198.988281 L 638 207.367188 L 633.519531 215.832031 L 617.683594 207.449219 Z M 622.160156 198.988281 " fill-opacity="1" fill-rule="nonzero"/></g></g></g><g clip-path="url(#6be0767b73)"><g clip-path="url(#2367c7d73d)"><g clip-path="url(#6c7c6c6dda)"><path fill="#f1e5d7" d="M 629.777344 207.175781 L 612.003906 204.964844 L 613.542969 192.566406 L 631.320312 194.773438 Z M 629.777344 207.175781 " fill-opacity="1" fill-rule="nonzero"/></g></g></g><g clip-path="url(#7beb18fb0b)"><g clip-path="url(#375deda1b0)"><g clip-path="url(#5062a24198)"><path fill="#f1e5d7" d="M 622.808594 216.335938 L 621.632812 195.839844 L 632.519531 195.214844 L 633.695312 215.710938 Z M 622.808594 216.335938 " fill-opacity="1" fill-rule="nonzero"/></g></g></g><g clip-path="url(#ba17da2b3e)"><g clip-path="url(#6d4a5c0fe2)"><g clip-path="url(#b0aa72359b)"><path fill="#f1e5d7" d="M 630.964844 208.699219 L 613.175781 210.800781 L 611.707031 198.390625 L 629.496094 196.289062 Z M 630.964844 208.699219 " fill-opacity="1" fill-rule="nonzero"/></g></g></g><g clip-path="url(#aa9e4a97b4)"><g clip-path="url(#0c91bdc99c)"><g clip-path="url(#6e599f8f44)"><path fill="#f1e5d7" d="M 630.9375 207.050781 L 614.925781 205.09375 L 616.421875 192.855469 L 632.433594 194.8125 Z M 630.9375 207.050781 " fill-opacity="1" fill-rule="nonzero"/></g></g></g><g clip-path="url(#be8258778b)"><g clip-path="url(#9ffa689941)"><g clip-path="url(#3ee497164a)"><path fill="#f1e5d7" d="M 630.460938 193.613281 L 634.316406 196.183594 L 627.480469 206.441406 L 623.625 203.871094 Z M 630.460938 193.613281 " fill-opacity="1" fill-rule="nonzero"/></g></g></g><g clip-path="url(#051ef5a085)"><g clip-path="url(#526c696bba)"><g clip-path="url(#5e33458453)"><path fill="#f1e5d7" d="M 620.167969 199.523438 L 620.148438 194.890625 L 632.476562 194.84375 L 632.492188 199.476562 Z M 620.167969 199.523438 " fill-opacity="1" fill-rule="nonzero"/></g></g></g><g clip-path="url(#5311f7f407)"><g clip-path="url(#6eec578524)"><path fill="#f1e5d7" d="M 601.414062 91.308594 L 666.785156 91.308594 L 666.785156 128.664062 L 601.414062 128.664062 Z M 601.414062 91.308594 " fill-opacity="1" fill-rule="nonzero"/></g></g><g clip-path="url(#55f591e455)"><g clip-path="url(#de7d4eba66)"><g clip-path="url(#ddc7a96a4a)"><path fill="#f1e5d7" d="M 595.945312 212.113281 L 562.550781 155.777344 L 597.722656 134.925781 L 631.121094 191.257812 Z M 595.945312 212.113281 " fill-opacity="1" fill-rule="nonzero"/></g></g></g><g clip-path="url(#c4aa6e5b04)"><g clip-path="url(#49e572e460)"><g clip-path="url(#5b36e0c95c)"><path fill="#f1e5d7" d="M 705.738281 156.355469 L 671.949219 212.457031 L 636.921875 191.359375 L 670.710938 135.257812 Z M 705.738281 156.355469 " fill-opacity="1" fill-rule="nonzero"/></g></g></g><g clip-path="url(#22999240eb)"><g clip-path="url(#87293399a9)"><path fill="#f1e5d7" d="M 668.453125 191.878906 L 599.703125 191.878906 L 599.703125 131.808594 L 668.453125 131.808594 Z M 668.453125 191.878906 " fill-opacity="1" fill-rule="nonzero"/></g></g><g fill="#f1e5d7" fill-opacity="1"><g transform="translate(67.282403, 214.029611)"><g><path d="M 42.78125 -142.3125 L 42.78125 -28.46875 L 91.765625 -28.46875 L 91.765625 0 L 10.34375 0 L 10.34375 -142.3125 Z M 42.78125 -142.3125 "/></g></g></g><g fill="#f1e5d7" fill-opacity="1"><g transform="translate(164.745395, 214.029611)"><g><path d="M 99.875 -40.015625 L 35.703125 -40.015625 C 35.703125 -33.804688 37.710938 -29.207031 41.734375 -26.21875 C 45.765625 -23.226562 50.140625 -21.734375 54.859375 -21.734375 C 59.796875 -21.734375 63.703125 -22.394531 66.578125 -23.71875 C 69.453125 -25.039062 72.734375 -27.65625 76.421875 -31.5625 L 98.5 -20.53125 C 89.300781 -5.113281 74.003906 2.59375 52.609375 2.59375 C 39.273438 2.59375 27.832031 -1.976562 18.28125 -11.125 C 8.738281 -20.269531 3.96875 -31.28125 3.96875 -44.15625 C 3.96875 -57.039062 8.738281 -68.082031 18.28125 -77.28125 C 27.832031 -86.476562 39.273438 -91.078125 52.609375 -91.078125 C 66.640625 -91.078125 78.050781 -87.019531 86.84375 -78.90625 C 95.644531 -70.800781 100.046875 -59.21875 100.046875 -44.15625 C 100.046875 -42.09375 99.988281 -40.710938 99.875 -40.015625 Z M 36.5625 -56.921875 L 70.203125 -56.921875 C 69.515625 -61.523438 67.703125 -65.0625 64.765625 -67.53125 C 61.835938 -70.007812 58.070312 -71.25 53.46875 -71.25 C 48.414062 -71.25 44.394531 -69.925781 41.40625 -67.28125 C 38.414062 -64.632812 36.800781 -61.179688 36.5625 -56.921875 Z M 36.5625 -56.921875 "/></g></g></g><g fill="#f1e5d7" fill-opacity="1"><g transform="translate(267.900897, 214.029611)"><g><path d="M 15.53125 -88.5 L 15.53125 -121.4375 L 46.0625 -121.4375 L 46.0625 -88.5 L 64.6875 -88.5 L 64.6875 -65.203125 L 46.0625 -65.203125 L 46.0625 -37.09375 C 46.0625 -28.925781 48.359375 -24.84375 52.953125 -24.84375 C 54.109375 -24.84375 55.316406 -25.070312 56.578125 -25.53125 C 57.847656 -25.988281 58.828125 -26.445312 59.515625 -26.90625 L 60.546875 -27.59375 L 68.140625 -2.9375 C 61.585938 0.75 54.113281 2.59375 45.71875 2.59375 C 39.96875 2.59375 35.019531 1.585938 30.875 -0.421875 C 26.738281 -2.441406 23.601562 -5.144531 21.46875 -8.53125 C 19.34375 -11.925781 17.820312 -15.492188 16.90625 -19.234375 C 15.988281 -22.972656 15.53125 -26.96875 15.53125 -31.21875 L 15.53125 -65.203125 L 2.765625 -65.203125 L 2.765625 -88.5 Z M 15.53125 -88.5 "/></g></g></g><g fill="#c97d7d" fill-opacity="1"><g transform="translate(336.048312, 214.029611)"><g><path d="M 42.78125 -142.3125 L 42.78125 0 L 10.34375 0 L 10.34375 -142.3125 Z M 42.78125 -142.3125 "/></g></g></g><g fill="#c97d7d" fill-opacity="1"><g transform="translate(389.17858, 214.029611)"><g><path d="M 15.53125 -88.5 L 15.53125 -121.4375 L 46.0625 -121.4375 L 46.0625 -88.5 L 64.6875 -88.5 L 64.6875 -65.203125 L 46.0625 -65.203125 L 46.0625 -37.09375 C 46.0625 -28.925781 48.359375 -24.84375 52.953125 -24.84375 C 54.109375 -24.84375 55.316406 -25.070312 56.578125 -25.53125 C 57.847656 -25.988281 58.828125 -26.445312 59.515625 -26.90625 L 60.546875 -27.59375 L 68.140625 -2.9375 C 61.585938 0.75 54.113281 2.59375 45.71875 2.59375 C 39.96875 2.59375 35.019531 1.585938 30.875 -0.421875 C 26.738281 -2.441406 23.601562 -5.144531 21.46875 -8.53125 C 19.34375 -11.925781 17.820312 -15.492188 16.90625 -19.234375 C 15.988281 -22.972656 15.53125 -26.96875 15.53125 -31.21875 L 15.53125 -65.203125 L 2.765625 -65.203125 L 2.765625 -88.5 Z M 15.53125 -88.5 "/></g></g></g><g fill="#f1e5d7" fill-opacity="1"><g transform="translate(457.323872, 214.029611)"><g><path d="M 10.34375 -142.3125 L 61.234375 -142.3125 C 74.921875 -142.3125 86.078125 -138.660156 94.703125 -131.359375 C 103.328125 -124.054688 107.640625 -113.617188 107.640625 -100.046875 C 107.640625 -89.585938 105.019531 -80.820312 99.78125 -73.75 C 94.550781 -66.675781 87.453125 -61.703125 78.484375 -58.828125 L 127.484375 0 L 86.25 0 L 42.78125 -56.234375 L 42.78125 0 L 10.34375 0 Z M 42.78125 -79.171875 L 46.578125 -79.171875 C 49.566406 -79.171875 52.09375 -79.226562 54.15625 -79.34375 C 56.226562 -79.457031 58.585938 -79.859375 61.234375 -80.546875 C 63.878906 -81.242188 66.003906 -82.222656 67.609375 -83.484375 C 69.222656 -84.753906 70.601562 -86.59375 71.75 -89 C 72.90625 -91.414062 73.484375 -94.347656 73.484375 -97.796875 C 73.484375 -101.253906 72.90625 -104.191406 71.75 -106.609375 C 70.601562 -109.023438 69.222656 -110.863281 67.609375 -112.125 C 66.003906 -113.382812 63.878906 -114.359375 61.234375 -115.046875 C 58.585938 -115.742188 56.226562 -116.148438 54.15625 -116.265625 C 52.09375 -116.378906 49.566406 -116.4375 46.578125 -116.4375 L 42.78125 -116.4375 Z M 42.78125 -79.171875 "/></g></g></g><g fill="#f1e5d7" fill-opacity="1"><g transform="translate(690.068955, 214.029611)"><g><path d="M 10.34375 0 L 10.34375 -148.34375 L 40.875 -148.34375 L 40.875 0 Z M 10.34375 0 "/></g></g></g><g fill="#f1e5d7" fill-opacity="1"><g transform="translate(741.301711, 214.029611)"><g><path d="M 10.34375 0 L 10.34375 -148.34375 L 40.875 -148.34375 L 40.875 0 Z M 10.34375 0 "/></g></g></g></svg>