<?xml version="1.0" encoding="utf-8"?>
<svg xmlns="http://www.w3.org/2000/svg" viewBox="77.6262 65.6859 704.5505 149.3141" width="939.53px" height="199.086px">
  <defs>
    <clipPath id="0d7d9c5153">
      <path d="M 641 95 L 678 95 L 678 128 L 641 128 Z M 641 95 " clip-rule="nonzero"/>
    </clipPath>
    <clipPath id="a45b0b421b">
      <path d="M 636.691406 100.753906 L 646.40625 89.328125 L 678 116.195312 L 668.285156 127.617188 Z M 636.691406 100.753906 " clip-rule="nonzero"/>
    </clipPath>
    <clipPath id="9e6d8fd1c0">
      <path d="M 641.550781 95.039062 L 677.980469 116.175781 L 668.265625 127.601562 Z M 641.550781 95.039062 " clip-rule="nonzero"/>
    </clipPath>
    <clipPath id="d3c397e6c9">
      <path d="M 667 115 L 682 115 L 682 127 L 667 127 Z M 667 115 " clip-rule="nonzero"/>
    </clipPath>
    <clipPath id="e6b67640fd">
      <path d="M 669.835938 129.84375 L 665.621094 123.382812 L 677.304688 115.761719 L 681.519531 122.222656 Z M 669.835938 129.84375 " clip-rule="nonzero"/>
    </clipPath>
    <clipPath id="98bd69d79d">
      <path d="M 667.726562 126.613281 L 677.292969 115.769531 L 681.507812 122.230469 Z M 667.726562 126.613281 " clip-rule="nonzero"/>
    </clipPath>
    <clipPath id="3d797368fd">
      <path d="M 676 115 L 686 115 L 686 125 L 676 125 Z M 676 115 " clip-rule="nonzero"/>
    </clipPath>
    <clipPath id="28f168ebac">
      <path d="M 686.035156 116.15625 L 685.640625 125.339844 L 676.964844 124.964844 L 677.359375 115.78125 Z M 686.035156 116.15625 " clip-rule="nonzero"/>
    </clipPath>
    <clipPath id="4db71f8aa2">
      <path d="M 685.835938 120.734375 L 676.964844 124.941406 L 677.359375 115.78125 Z M 685.835938 120.734375 " clip-rule="nonzero"/>
    </clipPath>
    <clipPath id="11df06ab0c">
      <path d="M 668 119 L 679 119 L 679 130 L 668 130 Z M 668 119 " clip-rule="nonzero"/>
    </clipPath>
    <clipPath id="47b1688669">
      <path d="M 671.785156 131.808594 L 665.984375 126.726562 L 672.554688 119.222656 L 678.359375 124.308594 Z M 671.785156 131.808594 " clip-rule="nonzero"/>
    </clipPath>
    <clipPath id="e52be27ee8">
      <path d="M 668.886719 129.269531 L 672.550781 119.230469 L 678.351562 124.316406 Z M 668.886719 129.269531 " clip-rule="nonzero"/>
    </clipPath>
    <clipPath id="a41bcb12f2">
      <path d="M 663 121 L 674 121 L 674 130 L 663 130 Z M 663 121 " clip-rule="nonzero"/>
    </clipPath>
    <clipPath id="7c103b2085">
      <path d="M 661.882812 124.214844 L 665.8125 118.613281 L 673.050781 123.695312 L 669.121094 129.292969 Z M 661.882812 124.214844 " clip-rule="nonzero"/>
    </clipPath>
    <clipPath id="5cf2a1ecc2">
      <path d="M 663.847656 121.414062 L 673.042969 123.6875 L 669.113281 129.289062 Z M 663.847656 121.414062 " clip-rule="nonzero"/>
    </clipPath>
    <clipPath id="29536634b9">
      <path d="M 576 132 L 593 132 L 593 178 L 576 178 Z M 576 132 " clip-rule="nonzero"/>
    </clipPath>
    <clipPath id="929cef1695">
      <path d="M 584.671875 178.890625 L 568.898438 175.878906 L 577.230469 132.25 L 593.003906 135.261719 Z M 584.671875 178.890625 " clip-rule="nonzero"/>
    </clipPath>
    <clipPath id="c30dac370f">
      <path d="M 576.785156 177.386719 L 577.226562 132.277344 L 593 135.289062 Z M 576.785156 177.386719 " clip-rule="nonzero"/>
    </clipPath>
    <clipPath id="afe5689371">
      <path d="M 577 125 L 593 125 L 593 137 L 577 137 Z M 577 125 " clip-rule="nonzero"/>
    </clipPath>
    <clipPath id="c7e6525a97">
      <path d="M 594.265625 132.640625 L 590.472656 139.980469 L 577.199219 133.121094 L 580.988281 125.78125 Z M 594.265625 132.640625 " clip-rule="nonzero"/>
    </clipPath>
    <clipPath id="40c67dddc6">
      <path d="M 592.367188 136.308594 L 577.210938 133.128906 L 581.003906 125.789062 Z M 592.367188 136.308594 " clip-rule="nonzero"/>
    </clipPath>
    <clipPath id="f9c125c3b3">
      <path d="M 577 122 L 586 122 L 586 134 L 577 134 Z M 577 122 " clip-rule="nonzero"/>
    </clipPath>
    <clipPath id="c228788f68">
      <path d="M 572.945312 124.78125 L 581.707031 120.296875 L 585.945312 128.578125 L 577.179688 133.058594 Z M 572.945312 124.78125 " clip-rule="nonzero"/>
    </clipPath>
    <clipPath id="82b0e113f4">
      <path d="M 577.316406 122.546875 L 585.917969 128.589844 L 577.179688 133.058594 Z M 577.316406 122.546875 " clip-rule="nonzero"/>
    </clipPath>
    <clipPath id="ed73ce0abf">
      <path d="M 582 127 L 595 127 L 595 136 L 582 136 Z M 582 127 " clip-rule="nonzero"/>
    </clipPath>
    <clipPath id="419e244340">
      <path d="M 595.054688 129.78125 L 593.386719 137.875 L 582.921875 135.714844 L 584.59375 127.625 Z M 595.054688 129.78125 " clip-rule="nonzero"/>
    </clipPath>
    <clipPath id="dabac67a49">
      <path d="M 594.21875 133.828125 L 582.933594 135.71875 L 584.605469 127.625 Z M 594.21875 133.828125 " clip-rule="nonzero"/>
    </clipPath>
    <clipPath id="8100367881">
      <path d="M 586 132 L 595 132 L 595 143 L 586 143 Z M 586 132 " clip-rule="nonzero"/>
    </clipPath>
    <clipPath id="119e4605f2">
      <path d="M 593.21875 143.027344 L 585.925781 142.324219 L 586.835938 132.894531 L 594.125 133.597656 Z M 593.21875 143.027344 " clip-rule="nonzero"/>
    </clipPath>
    <clipPath id="9254ba1a4b">
      <path d="M 589.574219 142.675781 L 586.832031 132.90625 L 594.125 133.605469 Z M 589.574219 142.675781 " clip-rule="nonzero"/>
    </clipPath>
    <clipPath id="a924458927">
      <path d="M 637 187 L 687 187 L 687 211 L 637 211 Z M 637 187 " clip-rule="nonzero"/>
    </clipPath>
    <clipPath id="29e864a3af">
      <path d="M 683.976562 179.371094 L 689.257812 196.046875 L 643.140625 210.652344 L 637.859375 193.976562 Z M 683.976562 179.371094 " clip-rule="nonzero"/>
    </clipPath>
    <clipPath id="4420931986">
      <path d="M 686.617188 187.707031 L 643.167969 210.640625 L 637.886719 193.964844 Z M 686.617188 187.707031 " clip-rule="nonzero"/>
    </clipPath>
    <clipPath id="0060cf5823">
      <path d="M 634 194 L 644 194 L 644 211 L 634 211 Z M 634 194 " clip-rule="nonzero"/>
    </clipPath>
    <clipPath id="bdcb1535be">
      <path d="M 634.695312 194.132812 L 643.691406 193.964844 L 643.992188 210.234375 L 634.996094 210.402344 Z M 634.695312 194.132812 " clip-rule="nonzero"/>
    </clipPath>
    <clipPath id="6ea59ba1d0">
      <path d="M 639.191406 194.046875 L 643.992188 210.21875 L 634.996094 210.382812 Z M 639.191406 194.046875 " clip-rule="nonzero"/>
    </clipPath>
    <clipPath id="b322d04e5f">
      <path d="M 633 204 L 644 204 L 644 216 L 633 216 Z M 633 204 " clip-rule="nonzero"/>
    </clipPath>
    <clipPath id="5539458191">
      <path d="M 638.203125 218.632812 L 629.371094 212.558594 L 635.109375 204.214844 L 643.941406 210.289062 Z M 638.203125 218.632812 " clip-rule="nonzero"/>
    </clipPath>
    <clipPath id="280afd1bab">
      <path d="M 633.796875 215.601562 L 635.132812 204.230469 L 643.941406 210.289062 Z M 633.796875 215.601562 " clip-rule="nonzero"/>
    </clipPath>
    <clipPath id="dd23be6d82">
      <path d="M 634 193 L 644 193 L 644 206 L 634 206 Z M 634 193 " clip-rule="nonzero"/>
    </clipPath>
    <clipPath id="d3a015900c">
      <path d="M 631.546875 194.851562 L 640.164062 192.261719 L 643.515625 203.402344 L 634.898438 205.992188 Z M 631.546875 194.851562 " clip-rule="nonzero"/>
    </clipPath>
    <clipPath id="82fde4ed56">
      <path d="M 635.855469 193.558594 L 643.511719 203.390625 L 634.894531 205.980469 Z M 635.855469 193.558594 " clip-rule="nonzero"/>
    </clipPath>
    <clipPath id="9506245f5f">
      <path d="M 635 193 L 647 193 L 647 202 L 635 202 Z M 635 193 " clip-rule="nonzero"/>
    </clipPath>
    <clipPath id="ef5ecbd8f4">
      <path d="M 645.183594 189.753906 L 648.289062 197.105469 L 638.785156 201.121094 L 635.679688 193.769531 Z M 645.183594 189.753906 " clip-rule="nonzero"/>
    </clipPath>
    <clipPath id="631e851e8c">
      <path d="M 646.738281 193.429688 L 638.796875 201.113281 L 635.691406 193.765625 Z M 646.738281 193.429688 " clip-rule="nonzero"/>
    </clipPath>
    <clipPath id="2d94f1f998">
      <path d="M 591 94 L 625 94 L 625 124 L 591 124 Z M 591 94 " clip-rule="nonzero"/>
    </clipPath>
    <clipPath id="d64a53f04f">
      <path d="M 620.066406 90.167969 L 627.976562 99.582031 L 599.371094 123.613281 L 591.464844 114.203125 Z M 620.066406 90.167969 " clip-rule="nonzero"/>
    </clipPath>
    <clipPath id="94cd015959">
      <path d="M 624.019531 94.875 L 599.375 123.609375 L 591.46875 114.199219 Z M 624.019531 94.875 " clip-rule="nonzero"/>
    </clipPath>
    <clipPath id="bb3f97e4d4">
      <path d="M 580 113 L 593 113 L 593 124 L 580 124 Z M 580 113 " clip-rule="nonzero"/>
    </clipPath>
    <clipPath id="917744859d">
      <path d="M 596.578125 120.160156 L 584.089844 127.675781 L 580.074219 121.003906 L 592.558594 113.484375 Z M 596.578125 120.160156 " clip-rule="nonzero"/>
    </clipPath>
    <clipPath id="57f3178438">
      <path d="M 590.335938 123.914062 L 580.082031 121 L 592.558594 113.484375 Z M 590.335938 123.914062 " clip-rule="nonzero"/>
    </clipPath>
    <clipPath id="21bd35295b">
      <path d="M 592 116 L 605 116 L 605 129 L 592 129 Z M 592 116 " clip-rule="nonzero"/>
    </clipPath>
    <clipPath id="5fea246dcb">
      <path d="M 587.675781 122.023438 L 596.675781 110.566406 L 604.671875 116.84375 L 595.667969 128.300781 Z M 587.675781 122.023438 " clip-rule="nonzero"/>
    </clipPath>
    <clipPath id="ccc45031d5">
      <path d="M 592.175781 116.296875 L 604.667969 116.847656 L 595.667969 128.300781 Z M 592.175781 116.296875 " clip-rule="nonzero"/>
    </clipPath>
    <clipPath id="68997d2091">
      <path d="M 580 117 L 595 117 L 595 129 L 580 129 Z M 580 117 " clip-rule="nonzero"/>
    </clipPath>
    <clipPath id="a178bd0bf1">
      <path d="M 584.222656 113.324219 L 598.996094 121.105469 L 594.863281 128.953125 L 580.089844 121.171875 Z M 584.222656 113.324219 " clip-rule="nonzero"/>
    </clipPath>
    <clipPath id="e0ce735e08">
      <path d="M 591.601562 117.210938 L 594.851562 128.945312 L 580.089844 121.171875 Z M 591.601562 117.210938 " clip-rule="nonzero"/>
    </clipPath>
    <clipPath id="c61f13ab40">
      <path d="M 589 113 L 602 113 L 602 127 L 589 127 Z M 589 113 " clip-rule="nonzero"/>
    </clipPath>
    <clipPath id="9982750900">
      <path d="M 586.117188 122.210938 L 592.117188 108.933594 L 601.378906 113.117188 L 595.378906 126.394531 Z M 586.117188 122.210938 " clip-rule="nonzero"/>
    </clipPath>
    <clipPath id="cf369e3a57">
      <path d="M 589.117188 115.574219 L 601.378906 113.121094 L 595.378906 126.394531 Z M 589.117188 115.574219 " clip-rule="nonzero"/>
    </clipPath>
    <clipPath id="6205b697eb">
      <path d="M 591 117 L 604 117 L 604 130 L 591 130 Z M 591 117 " clip-rule="nonzero"/>
    </clipPath>
    <clipPath id="a51d0c9f9e">
      <path d="M 587.28125 122.882812 L 595.390625 112.519531 L 603.289062 118.695312 L 595.179688 129.0625 Z M 587.28125 122.882812 " clip-rule="nonzero"/>
    </clipPath>
    <clipPath id="bafe258eaa">
      <path d="M 591.328125 117.714844 L 603.269531 118.722656 L 595.179688 129.0625 Z M 591.328125 117.714844 " clip-rule="nonzero"/>
    </clipPath>
    <clipPath id="a1ed161be5">
      <path d="M 589 119 L 596 119 L 596 129 L 589 129 Z M 589 119 " clip-rule="nonzero"/>
    </clipPath>
    <clipPath id="e254897802">
      <path d="M 596.84375 128.191406 L 593.433594 129.796875 L 589.148438 120.714844 L 592.558594 119.109375 Z M 596.84375 128.191406 " clip-rule="nonzero"/>
    </clipPath>
    <clipPath id="da1d3ca4df">
      <path d="M 595.136719 128.992188 L 589.15625 120.730469 L 592.5625 119.121094 Z M 595.136719 128.992188 " clip-rule="nonzero"/>
    </clipPath>
    <clipPath id="591d04e960">
      <path d="M 591 119 L 599 119 L 599 130 L 591 130 Z M 591 119 " clip-rule="nonzero"/>
    </clipPath>
    <clipPath id="1de16a6b54">
      <path d="M 597.046875 118.539062 L 600.28125 120.472656 L 595.132812 129.09375 L 591.898438 127.160156 Z M 597.046875 118.539062 " clip-rule="nonzero"/>
    </clipPath>
    <clipPath id="d63460fb69">
      <path d="M 598.664062 119.507812 L 595.140625 129.082031 L 591.90625 127.148438 Z M 598.664062 119.507812 " clip-rule="nonzero"/>
    </clipPath>
    <clipPath id="c2b1559d3a">
      <path d="M 675 136 L 689 136 L 689 179 L 675 179 Z M 675 136 " clip-rule="nonzero"/>
    </clipPath>
    <clipPath id="411a1adbc3">
      <path d="M 694.179688 177.539062 L 680.753906 179.414062 L 675.050781 138.609375 L 688.480469 136.734375 Z M 694.179688 177.539062 " clip-rule="nonzero"/>
    </clipPath>
    <clipPath id="877172754d">
      <path d="M 687.46875 178.476562 L 675.050781 138.613281 L 688.480469 136.738281 Z M 687.46875 178.476562 " clip-rule="nonzero"/>
    </clipPath>
    <clipPath id="548213487d">
      <path d="M 680 122 L 689 122 L 689 139 L 680 139 Z M 680 122 " clip-rule="nonzero"/>
    </clipPath>
    <clipPath id="8be3b81108">
      <path d="M 679.917969 138.019531 L 680.207031 121.949219 L 688.796875 122.101562 L 688.507812 138.175781 Z M 679.917969 138.019531 " clip-rule="nonzero"/>
    </clipPath>
    <clipPath id="75921e4b2b">
      <path d="M 680.0625 129.988281 L 688.796875 122.113281 L 688.507812 138.175781 Z M 680.0625 129.988281 " clip-rule="nonzero"/>
    </clipPath>
    <clipPath id="bb186b19b2">
      <path d="M 672 132 L 687 132 L 687 148 L 672 148 Z M 672 132 " clip-rule="nonzero"/>
    </clipPath>
    <clipPath id="ef0737fdf5">
      <path d="M 683.382812 128.613281 L 688.820312 143.734375 L 678.269531 147.527344 L 672.835938 132.40625 Z M 683.382812 128.613281 " clip-rule="nonzero"/>
    </clipPath>
    <clipPath id="ccfe5d38ab">
      <path d="M 686.101562 136.171875 L 678.269531 147.523438 L 672.835938 132.40625 Z M 686.101562 136.171875 " clip-rule="nonzero"/>
    </clipPath>
    <clipPath id="0f4b4cc30b">
      <path d="M 672 122 L 689 122 L 689 136 L 672 136 Z M 672 122 " clip-rule="nonzero"/>
    </clipPath>
    <clipPath id="28413db6c0">
      <path d="M 693.539062 130.476562 L 677.609375 139.726562 L 672.699219 131.265625 L 688.625 122.019531 Z M 693.539062 130.476562 " clip-rule="nonzero"/>
    </clipPath>
    <clipPath id="145428e782">
      <path d="M 685.582031 135.097656 L 672.710938 131.257812 L 688.625 122.019531 Z M 685.582031 135.097656 " clip-rule="nonzero"/>
    </clipPath>
    <clipPath id="788e4829fd">
      <path d="M 674 133 L 689 133 L 689 147 L 674 147 Z M 674 133 " clip-rule="nonzero"/>
    </clipPath>
    <clipPath id="3ad1dc5e26">
      <path d="M 684.125 127.046875 L 693.015625 140.433594 L 683.679688 146.636719 L 674.789062 133.25 Z M 684.125 127.046875 " clip-rule="nonzero"/>
    </clipPath>
    <clipPath id="c975f89f2a">
      <path d="M 688.570312 133.738281 L 683.675781 146.632812 L 674.789062 133.25 Z M 688.570312 133.738281 " clip-rule="nonzero"/>
    </clipPath>
    <clipPath id="877b1ef42b">
      <path d="M 672 131 L 686 131 L 686 146 L 672 146 Z M 672 131 " clip-rule="nonzero"/>
    </clipPath>
    <clipPath id="5c587d19fb">
      <path d="M 682.8125 127.734375 L 687.75 141.382812 L 677.351562 145.144531 L 672.414062 131.496094 Z M 682.8125 127.734375 " clip-rule="nonzero"/>
    </clipPath>
    <clipPath id="d03261b3ff">
      <path d="M 685.277344 134.542969 L 677.339844 145.113281 L 672.414062 131.496094 Z M 685.277344 134.542969 " clip-rule="nonzero"/>
    </clipPath>
    <clipPath id="848ebf7624">
      <path d="M 672 130 L 684 130 L 684 135 L 672 135 Z M 672 130 " clip-rule="nonzero"/>
    </clipPath>
    <clipPath id="7244e3889a">
      <path d="M 672.257812 133.558594 L 672.753906 129.433594 L 683.75 130.75 L 683.253906 134.875 Z M 672.257812 133.558594 " clip-rule="nonzero"/>
    </clipPath>
    <clipPath id="79cd1d2f08">
      <path d="M 672.507812 131.496094 L 683.734375 130.746094 L 683.238281 134.875 Z M 672.507812 131.496094 " clip-rule="nonzero"/>
    </clipPath>
    <clipPath id="b3d1784fca">
      <path d="M 672 129 L 680 129 L 680 141 L 672 141 Z M 672 129 " clip-rule="nonzero"/>
    </clipPath>
    <clipPath id="69d580b878">
      <path d="M 681.15625 139.402344 L 677.453125 141.296875 L 672.414062 131.433594 L 676.113281 129.542969 Z M 681.15625 139.402344 " clip-rule="nonzero"/>
    </clipPath>
    <clipPath id="ef31472011">
      <path d="M 679.304688 140.347656 L 672.421875 131.449219 L 676.121094 129.554688 Z M 679.304688 140.347656 " clip-rule="nonzero"/>
    </clipPath>
    <clipPath id="65b76ecd80">
      <path d="M 576 186 L 623 186 L 623 209 L 576 209 Z M 576 186 " clip-rule="nonzero"/>
    </clipPath>
    <clipPath id="e91ae666c3">
      <path d="M 574.191406 193.273438 L 579.085938 178.976562 L 622.535156 193.851562 L 617.640625 208.152344 Z M 574.191406 193.273438 " clip-rule="nonzero"/>
    </clipPath>
    <clipPath id="7d91a724b3">
      <path d="M 576.636719 186.125 L 622.53125 193.851562 L 617.636719 208.148438 Z M 576.636719 186.125 " clip-rule="nonzero"/>
    </clipPath>
    <clipPath id="7eb8f2c1cc">
      <path d="M 616 203 L 633 203 L 633 216 L 616 216 Z M 616 203 " clip-rule="nonzero"/>
    </clipPath>
    <clipPath id="b9514aa54c">
      <path d="M 620.664062 198.988281 L 636.503906 207.367188 L 632.023438 215.832031 L 616.1875 207.449219 Z M 620.664062 198.988281 " clip-rule="nonzero"/>
    </clipPath>
    <clipPath id="6cd4837692">
      <path d="M 628.578125 203.175781 L 632.015625 215.824219 L 616.1875 207.449219 Z M 628.578125 203.175781 " clip-rule="nonzero"/>
    </clipPath>
    <clipPath id="d5aaa3b2ad">
      <path d="M 612 192 L 630 192 L 630 207 L 612 207 Z M 612 192 " clip-rule="nonzero"/>
    </clipPath>
    <clipPath id="2a1530d3c0">
      <path d="M 628.28125 207.175781 L 610.507812 204.964844 L 612.046875 192.566406 L 629.824219 194.773438 Z M 628.28125 207.175781 " clip-rule="nonzero"/>
    </clipPath>
    <clipPath id="ad0daddb10">
      <path d="M 619.394531 206.070312 L 612.050781 192.566406 L 629.824219 194.773438 Z M 619.394531 206.070312 " clip-rule="nonzero"/>
    </clipPath>
    <clipPath id="9647afc7af">
      <path d="M 620 195 L 633 195 L 633 216 L 620 216 Z M 620 195 " clip-rule="nonzero"/>
    </clipPath>
    <clipPath id="91f763d079">
      <path d="M 621.3125 216.335938 L 620.136719 195.839844 L 631.023438 195.214844 L 632.199219 215.710938 Z M 621.3125 216.335938 " clip-rule="nonzero"/>
    </clipPath>
    <clipPath id="b9b740abde">
      <path d="M 620.726562 206.097656 L 631.023438 195.234375 L 632.199219 215.710938 Z M 620.726562 206.097656 " clip-rule="nonzero"/>
    </clipPath>
    <clipPath id="c745d4c843">
      <path d="M 610 196 L 628 196 L 628 210 L 610 210 Z M 610 196 " clip-rule="nonzero"/>
    </clipPath>
    <clipPath id="64f4d25948">
      <path d="M 629.464844 208.699219 L 611.675781 210.800781 L 610.210938 198.390625 L 628 196.289062 Z M 629.464844 208.699219 " clip-rule="nonzero"/>
    </clipPath>
    <clipPath id="fb6478fafe">
      <path d="M 620.574219 209.75 L 610.214844 198.390625 L 628 196.289062 Z M 620.574219 209.75 " clip-rule="nonzero"/>
    </clipPath>
    <clipPath id="15251cef2e">
      <path d="M 614 192 L 631 192 L 631 207 L 614 207 Z M 614 192 " clip-rule="nonzero"/>
    </clipPath>
    <clipPath id="19533353ef">
      <path d="M 629.441406 207.050781 L 613.382812 205.085938 L 614.878906 192.851562 L 630.9375 194.8125 Z M 629.441406 207.050781 " clip-rule="nonzero"/>
    </clipPath>
    <clipPath id="3fe05419d7">
      <path d="M 621.429688 206.070312 L 614.917969 192.855469 L 630.9375 194.8125 Z M 621.429688 206.070312 " clip-rule="nonzero"/>
    </clipPath>
    <clipPath id="b5d848603a">
      <path d="M 622 194 L 631 194 L 631 207 L 622 207 Z M 622 194 " clip-rule="nonzero"/>
    </clipPath>
    <clipPath id="48fde50104">
      <path d="M 628.964844 193.613281 L 632.820312 196.183594 L 625.972656 206.457031 L 622.117188 203.886719 Z M 628.964844 193.613281 " clip-rule="nonzero"/>
    </clipPath>
    <clipPath id="3759c31a6d">
      <path d="M 630.890625 194.898438 L 625.984375 206.441406 L 622.128906 203.871094 Z M 630.890625 194.898438 " clip-rule="nonzero"/>
    </clipPath>
    <clipPath id="a0837505f4">
      <path d="M 618 194 L 631 194 L 631 200 L 618 200 Z M 618 194 " clip-rule="nonzero"/>
    </clipPath>
    <clipPath id="2bc0e20211">
      <path d="M 618.667969 199.523438 L 618.652344 194.890625 L 630.996094 194.84375 L 631.015625 199.476562 Z M 618.667969 199.523438 " clip-rule="nonzero"/>
    </clipPath>
    <clipPath id="1f6a3afe5b">
      <path d="M 618.660156 197.207031 L 630.980469 194.84375 L 630.996094 199.476562 Z M 618.660156 197.207031 " clip-rule="nonzero"/>
    </clipPath>
    <clipPath id="0ca506ed89">
      <path d="M 599.917969 91.308594 L 665.433594 91.308594 L 665.433594 128.664062 L 599.917969 128.664062 Z M 599.917969 91.308594 " clip-rule="nonzero"/>
    </clipPath>
    <clipPath id="6735eb60ac">
      <path d="M 632.636719 91.308594 L 665.355469 128.664062 L 599.917969 128.664062 Z M 632.636719 91.308594 " clip-rule="nonzero"/>
    </clipPath>
    <clipPath id="126a415f89">
      <path d="M 577 134 L 630 134 L 630 192 L 577 192 Z M 577 134 " clip-rule="nonzero"/>
    </clipPath>
    <clipPath id="f278d09b26">
      <path d="M 594.449219 212.113281 L 561.054688 155.777344 L 596.226562 134.925781 L 629.625 191.257812 Z M 594.449219 212.113281 " clip-rule="nonzero"/>
    </clipPath>
    <clipPath id="7f3c95947a">
      <path d="M 577.765625 183.96875 L 596.253906 134.96875 L 629.625 191.257812 Z M 577.765625 183.96875 " clip-rule="nonzero"/>
    </clipPath>
    <clipPath id="9bc57a58cf">
      <path d="M 635 135 L 688 135 L 688 192 L 635 192 Z M 635 135 " clip-rule="nonzero"/>
    </clipPath>
    <clipPath id="3d7023e03d">
      <path d="M 704.242188 156.355469 L 670.453125 212.457031 L 635.425781 191.359375 L 669.210938 135.257812 Z M 704.242188 156.355469 " clip-rule="nonzero"/>
    </clipPath>
    <clipPath id="3697022501">
      <path d="M 687.359375 184.386719 L 635.449219 191.316406 L 669.210938 135.257812 Z M 687.359375 184.386719 " clip-rule="nonzero"/>
    </clipPath>
    <clipPath id="b8cf3f9155">
      <path d="M 598.207031 131.808594 L 666.957031 131.808594 L 666.957031 191.878906 L 598.207031 191.878906 Z M 598.207031 131.808594 " clip-rule="nonzero"/>
    </clipPath>
    <clipPath id="cd49af69cb">
      <path d="M 632.632812 191.878906 L 598.308594 131.808594 L 666.957031 131.808594 Z M 632.632812 191.878906 " clip-rule="nonzero"/>
    </clipPath>
  </defs>
  <g fill="#260101" fill-opacity="1" transform="matrix(1, 0, 0, 1, 1.4210854715202004e-14, 1.4210854715202004e-14)">
    <g transform="translate(67.282403, 214.029611)">
      <g>
        <path d="M 42.78125 -142.3125 L 42.78125 -28.46875 L 91.765625 -28.46875 L 91.765625 0 L 10.34375 0 L 10.34375 -142.3125 Z M 42.78125 -142.3125 "/>
      </g>
    </g>
  </g>
  <g fill="#260101" fill-opacity="1" transform="matrix(1, 0, 0, 1, 1.4210854715202004e-14, -2.0000000000000036)">
    <g transform="translate(164.745395, 214.029611)">
      <g>
        <path d="M 99.875 -40.015625 L 35.703125 -40.015625 C 35.703125 -33.804688 37.710938 -29.207031 41.734375 -26.21875 C 45.765625 -23.226562 50.140625 -21.734375 54.859375 -21.734375 C 59.796875 -21.734375 63.703125 -22.394531 66.578125 -23.71875 C 69.453125 -25.039062 72.734375 -27.65625 76.421875 -31.5625 L 98.5 -20.53125 C 89.300781 -5.113281 74.003906 2.59375 52.609375 2.59375 C 39.273438 2.59375 27.832031 -1.976562 18.28125 -11.125 C 8.738281 -20.269531 3.96875 -31.28125 3.96875 -44.15625 C 3.96875 -57.039062 8.738281 -68.082031 18.28125 -77.28125 C 27.832031 -86.476562 39.273438 -91.078125 52.609375 -91.078125 C 66.640625 -91.078125 78.050781 -87.019531 86.84375 -78.90625 C 95.644531 -70.800781 100.046875 -59.21875 100.046875 -44.15625 C 100.046875 -42.09375 99.988281 -40.710938 99.875 -40.015625 Z M 36.5625 -56.921875 L 70.203125 -56.921875 C 69.515625 -61.523438 67.703125 -65.0625 64.765625 -67.53125 C 61.835938 -70.007812 58.070312 -71.25 53.46875 -71.25 C 48.414062 -71.25 44.394531 -69.925781 41.40625 -67.28125 C 38.414062 -64.632812 36.800781 -61.179688 36.5625 -56.921875 Z M 36.5625 -56.921875 "/>
      </g>
    </g>
  </g>
  <g fill="#260101" fill-opacity="1" transform="matrix(1, 0, 0, 1, 1.4210854715202004e-14, -2.0000000000000036)">
    <g transform="translate(267.900897, 214.029611)">
      <g>
        <path d="M 15.53125 -88.5 L 15.53125 -121.4375 L 46.0625 -121.4375 L 46.0625 -88.5 L 64.6875 -88.5 L 64.6875 -65.203125 L 46.0625 -65.203125 L 46.0625 -37.09375 C 46.0625 -28.925781 48.359375 -24.84375 52.953125 -24.84375 C 54.109375 -24.84375 55.316406 -25.070312 56.578125 -25.53125 C 57.847656 -25.988281 58.828125 -26.445312 59.515625 -26.90625 L 60.546875 -27.59375 L 68.140625 -2.9375 C 61.585938 0.75 54.113281 2.59375 45.71875 2.59375 C 39.96875 2.59375 35.019531 1.585938 30.875 -0.421875 C 26.738281 -2.441406 23.601562 -5.144531 21.46875 -8.53125 C 19.34375 -11.925781 17.820312 -15.492188 16.90625 -19.234375 C 15.988281 -22.972656 15.53125 -26.96875 15.53125 -31.21875 L 15.53125 -65.203125 L 2.765625 -65.203125 L 2.765625 -88.5 Z M 15.53125 -88.5 "/>
      </g>
    </g>
  </g>
  <g fill="#590202" fill-opacity="1" transform="matrix(1, 0, 0, 1, 1.4210854715202004e-14, -1)">
    <g transform="translate(336.048312, 214.029611)">
      <g>
        <path d="M 42.78125 -142.3125 L 42.78125 0 L 10.34375 0 L 10.34375 -142.3125 Z M 42.78125 -142.3125 "/>
      </g>
    </g>
  </g>
  <g fill="#590202" fill-opacity="1" transform="matrix(1, 0, 0, 1, 1.4210854715202004e-14, -2.0000000000000036)">
    <g transform="translate(389.17858, 214.029611)">
      <g>
        <path d="M 15.53125 -88.5 L 15.53125 -121.4375 L 46.0625 -121.4375 L 46.0625 -88.5 L 64.6875 -88.5 L 64.6875 -65.203125 L 46.0625 -65.203125 L 46.0625 -37.09375 C 46.0625 -28.925781 48.359375 -24.84375 52.953125 -24.84375 C 54.109375 -24.84375 55.316406 -25.070312 56.578125 -25.53125 C 57.847656 -25.988281 58.828125 -26.445312 59.515625 -26.90625 L 60.546875 -27.59375 L 68.140625 -2.9375 C 61.585938 0.75 54.113281 2.59375 45.71875 2.59375 C 39.96875 2.59375 35.019531 1.585938 30.875 -0.421875 C 26.738281 -2.441406 23.601562 -5.144531 21.46875 -8.53125 C 19.34375 -11.925781 17.820312 -15.492188 16.90625 -19.234375 C 15.988281 -22.972656 15.53125 -26.96875 15.53125 -31.21875 L 15.53125 -65.203125 L 2.765625 -65.203125 L 2.765625 -88.5 Z M 15.53125 -88.5 "/>
      </g>
    </g>
  </g>
  <g fill="#260101" fill-opacity="1" transform="matrix(1, 0, 0, 1, 1.4210854715202004e-14, 1.4210854715202004e-14)">
    <g transform="translate(457.323872, 214.029611)">
      <g>
        <path d="M 10.34375 -142.3125 L 61.234375 -142.3125 C 74.921875 -142.3125 86.078125 -138.660156 94.703125 -131.359375 C 103.328125 -124.054688 107.640625 -113.617188 107.640625 -100.046875 C 107.640625 -89.585938 105.019531 -80.820312 99.78125 -73.75 C 94.550781 -66.675781 87.453125 -61.703125 78.484375 -58.828125 L 127.484375 0 L 86.25 0 L 42.78125 -56.234375 L 42.78125 0 L 10.34375 0 Z M 42.78125 -79.171875 L 46.578125 -79.171875 C 49.566406 -79.171875 52.09375 -79.226562 54.15625 -79.34375 C 56.226562 -79.457031 58.585938 -79.859375 61.234375 -80.546875 C 63.878906 -81.242188 66.003906 -82.222656 67.609375 -83.484375 C 69.222656 -84.753906 70.601562 -86.59375 71.75 -89 C 72.90625 -91.414062 73.484375 -94.347656 73.484375 -97.796875 C 73.484375 -101.253906 72.90625 -104.191406 71.75 -106.609375 C 70.601562 -109.023438 69.222656 -110.863281 67.609375 -112.125 C 66.003906 -113.382812 63.878906 -114.359375 61.234375 -115.046875 C 58.585938 -115.742188 56.226562 -116.148438 54.15625 -116.265625 C 52.09375 -116.378906 49.566406 -116.4375 46.578125 -116.4375 L 42.78125 -116.4375 Z M 42.78125 -79.171875 "/>
      </g>
    </g>
  </g>
  <g clip-path="url(#0d7d9c5153)" transform="matrix(1, 0, 0, 1, 0, -1)">
    <g clip-path="url(#a45b0b421b)">
      <g clip-path="url(#9e6d8fd1c0)">
        <path fill="#260101" d="M 636.691406 100.753906 L 646.40625 89.328125 L 678 116.195312 L 668.285156 127.617188 Z M 636.691406 100.753906 " fill-opacity="1" fill-rule="nonzero"/>
      </g>
    </g>
  </g>
  <g clip-path="url(#d3c397e6c9)" transform="matrix(1, 0, 0, 1, 0, -1)">
    <g clip-path="url(#e6b67640fd)">
      <g clip-path="url(#98bd69d79d)">
        <path fill="#260101" d="M 669.835938 129.84375 L 665.621094 123.382812 L 677.28125 115.777344 L 681.496094 122.238281 Z M 669.835938 129.84375 " fill-opacity="1" fill-rule="nonzero"/>
      </g>
    </g>
  </g>
  <g clip-path="url(#3d797368fd)" transform="matrix(1, 0, 0, 1, 0, -1)">
    <g clip-path="url(#28f168ebac)">
      <g clip-path="url(#4db71f8aa2)">
        <path fill="#260101" d="M 686.035156 116.15625 L 685.640625 125.304688 L 676.96875 124.929688 L 677.359375 115.78125 Z M 686.035156 116.15625 " fill-opacity="1" fill-rule="nonzero"/>
      </g>
    </g>
  </g>
  <g clip-path="url(#11df06ab0c)" transform="matrix(1, 0, 0, 1, 0, -1)">
    <g clip-path="url(#47b1688669)">
      <g clip-path="url(#e52be27ee8)">
        <path fill="#260101" d="M 671.785156 131.808594 L 665.984375 126.726562 L 672.554688 119.222656 L 678.359375 124.308594 Z M 671.785156 131.808594 " fill-opacity="1" fill-rule="nonzero"/>
      </g>
    </g>
  </g>
  <g clip-path="url(#a41bcb12f2)" transform="matrix(1, 0, 0, 1, 0, -1)">
    <g clip-path="url(#7c103b2085)">
      <g clip-path="url(#5cf2a1ecc2)">
        <path fill="#260101" d="M 661.882812 124.214844 L 665.8125 118.613281 L 673.050781 123.695312 L 669.121094 129.292969 Z M 661.882812 124.214844 " fill-opacity="1" fill-rule="nonzero"/>
      </g>
    </g>
  </g>
  <g clip-path="url(#29536634b9)" transform="matrix(1, 0, 0, 1, 0, -1)">
    <g clip-path="url(#929cef1695)">
      <g clip-path="url(#c30dac370f)">
        <path fill="#260101" d="M 584.671875 178.890625 L 568.898438 175.878906 L 577.230469 132.25 L 593.003906 135.261719 Z M 584.671875 178.890625 " fill-opacity="1" fill-rule="nonzero"/>
      </g>
    </g>
  </g>
  <g clip-path="url(#afe5689371)" transform="matrix(1, 0, 0, 1, 0, -1)">
    <g clip-path="url(#c7e6525a97)">
      <g clip-path="url(#40c67dddc6)">
        <path fill="#260101" d="M 594.265625 132.640625 L 590.472656 139.980469 L 577.226562 133.136719 L 581.019531 125.796875 Z M 594.265625 132.640625 " fill-opacity="1" fill-rule="nonzero"/>
      </g>
    </g>
  </g>
  <g clip-path="url(#f9c125c3b3)" transform="matrix(1, 0, 0, 1, 0, -1)">
    <g clip-path="url(#c228788f68)">
      <g clip-path="url(#82b0e113f4)">
        <path fill="#260101" d="M 572.945312 124.78125 L 581.675781 120.316406 L 585.910156 128.59375 L 577.179688 133.058594 Z M 572.945312 124.78125 " fill-opacity="1" fill-rule="nonzero"/>
      </g>
    </g>
  </g>
  <g clip-path="url(#ed73ce0abf)" transform="matrix(1, 0, 0, 1, 0, -1)">
    <g clip-path="url(#419e244340)">
      <g clip-path="url(#dabac67a49)">
        <path fill="#260101" d="M 595.054688 129.78125 L 593.386719 137.875 L 582.921875 135.714844 L 584.59375 127.625 Z M 595.054688 129.78125 " fill-opacity="1" fill-rule="nonzero"/>
      </g>
    </g>
  </g>
  <g clip-path="url(#8100367881)" transform="matrix(1, 0, 0, 1, 0, -1)">
    <g clip-path="url(#119e4605f2)">
      <g clip-path="url(#9254ba1a4b)">
        <path fill="#260101" d="M 593.21875 143.027344 L 585.925781 142.324219 L 586.835938 132.894531 L 594.125 133.597656 Z M 593.21875 143.027344 " fill-opacity="1" fill-rule="nonzero"/>
      </g>
    </g>
  </g>
  <g clip-path="url(#a924458927)" transform="matrix(1, 0, 0, 1, 0, -1)">
    <g clip-path="url(#29e864a3af)">
      <g clip-path="url(#4420931986)">
        <path fill="#260101" d="M 683.976562 179.371094 L 689.257812 196.046875 L 643.140625 210.652344 L 637.859375 193.976562 Z M 683.976562 179.371094 " fill-opacity="1" fill-rule="nonzero"/>
      </g>
    </g>
  </g>
  <g clip-path="url(#0060cf5823)" transform="matrix(1, 0, 0, 1, 0, -1)">
    <g clip-path="url(#bdcb1535be)">
      <g clip-path="url(#6ea59ba1d0)">
        <path fill="#260101" d="M 634.695312 194.132812 L 643.691406 193.964844 L 643.992188 210.199219 L 634.996094 210.367188 Z M 634.695312 194.132812 " fill-opacity="1" fill-rule="nonzero"/>
      </g>
    </g>
  </g>
  <g clip-path="url(#b322d04e5f)" transform="matrix(1, 0, 0, 1, 0, -1)">
    <g clip-path="url(#5539458191)">
      <g clip-path="url(#280afd1bab)">
        <path fill="#260101" d="M 638.203125 218.632812 L 629.402344 212.578125 L 635.140625 204.234375 L 643.941406 210.289062 Z M 638.203125 218.632812 " fill-opacity="1" fill-rule="nonzero"/>
      </g>
    </g>
  </g>
  <g clip-path="url(#dd23be6d82)" transform="matrix(1, 0, 0, 1, 0, -1)">
    <g clip-path="url(#d3a015900c)">
      <g clip-path="url(#82fde4ed56)">
        <path fill="#260101" d="M 631.546875 194.851562 L 640.164062 192.261719 L 643.515625 203.402344 L 634.898438 205.992188 Z M 631.546875 194.851562 " fill-opacity="1" fill-rule="nonzero"/>
      </g>
    </g>
  </g>
  <g clip-path="url(#9506245f5f)" transform="matrix(1, 0, 0, 1, 0, -1)">
    <g clip-path="url(#ef5ecbd8f4)">
      <g clip-path="url(#631e851e8c)">
        <path fill="#260101" d="M 645.183594 189.753906 L 648.289062 197.105469 L 638.785156 201.121094 L 635.679688 193.769531 Z M 645.183594 189.753906 " fill-opacity="1" fill-rule="nonzero"/>
      </g>
    </g>
  </g>
  <g clip-path="url(#2d94f1f998)" transform="matrix(1, 0, 0, 1, 0, -1)">
    <g clip-path="url(#d64a53f04f)">
      <g clip-path="url(#94cd015959)">
        <path fill="#260101" d="M 620.066406 90.167969 L 627.976562 99.582031 L 599.371094 123.613281 L 591.464844 114.203125 Z M 620.066406 90.167969 " fill-opacity="1" fill-rule="nonzero"/>
      </g>
    </g>
  </g>
  <g clip-path="url(#bb3f97e4d4)" transform="matrix(1, 0, 0, 1, 0, -1)">
    <g clip-path="url(#917744859d)">
      <g clip-path="url(#57f3178438)">
        <path fill="#260101" d="M 596.578125 120.160156 L 584.089844 127.675781 L 580.074219 121.003906 L 592.558594 113.484375 Z M 596.578125 120.160156 " fill-opacity="1" fill-rule="nonzero"/>
      </g>
    </g>
  </g>
  <g clip-path="url(#21bd35295b)" transform="matrix(1, 0, 0, 1, 0, -1)">
    <g clip-path="url(#5fea246dcb)">
      <g clip-path="url(#ccc45031d5)">
        <path fill="#260101" d="M 587.675781 122.023438 L 596.675781 110.566406 L 604.671875 116.84375 L 595.667969 128.300781 Z M 587.675781 122.023438 " fill-opacity="1" fill-rule="nonzero"/>
      </g>
    </g>
  </g>
  <g clip-path="url(#68997d2091)" transform="matrix(1, 0, 0, 1, 0, -1)">
    <g clip-path="url(#a178bd0bf1)">
      <g clip-path="url(#e0ce735e08)">
        <path fill="#260101" d="M 584.222656 113.324219 L 598.996094 121.105469 L 594.863281 128.953125 L 580.089844 121.171875 Z M 584.222656 113.324219 " fill-opacity="1" fill-rule="nonzero"/>
      </g>
    </g>
  </g>
  <g clip-path="url(#c61f13ab40)" transform="matrix(1, 0, 0, 1, 0, -1)">
    <g clip-path="url(#9982750900)">
      <g clip-path="url(#cf369e3a57)">
        <path fill="#260101" d="M 586.117188 122.210938 L 592.117188 108.933594 L 601.378906 113.117188 L 595.378906 126.394531 Z M 586.117188 122.210938 " fill-opacity="1" fill-rule="nonzero"/>
      </g>
    </g>
  </g>
  <g clip-path="url(#6205b697eb)" transform="matrix(1, 0, 0, 1, 0, -1)">
    <g clip-path="url(#a51d0c9f9e)">
      <g clip-path="url(#bafe258eaa)">
        <path fill="#260101" d="M 587.28125 122.882812 L 595.367188 112.550781 L 603.265625 118.726562 L 595.179688 129.0625 Z M 587.28125 122.882812 " fill-opacity="1" fill-rule="nonzero"/>
      </g>
    </g>
  </g>
  <g clip-path="url(#a1ed161be5)" transform="matrix(1, 0, 0, 1, 0, -1)">
    <g clip-path="url(#e254897802)">
      <g clip-path="url(#da1d3ca4df)">
        <path fill="#260101" d="M 596.84375 128.191406 L 593.433594 129.796875 L 589.15625 120.730469 L 592.5625 119.121094 Z M 596.84375 128.191406 " fill-opacity="1" fill-rule="nonzero"/>
      </g>
    </g>
  </g>
  <g clip-path="url(#591d04e960)" transform="matrix(1, 0, 0, 1, 0, -1)">
    <g clip-path="url(#1de16a6b54)">
      <g clip-path="url(#d63460fb69)">
        <path fill="#260101" d="M 597.046875 118.539062 L 600.28125 120.472656 L 595.140625 129.082031 L 591.90625 127.148438 Z M 597.046875 118.539062 " fill-opacity="1" fill-rule="nonzero"/>
      </g>
    </g>
  </g>
  <g clip-path="url(#c2b1559d3a)" transform="matrix(1, 0, 0, 1, 0, -1)">
    <g clip-path="url(#411a1adbc3)">
      <g clip-path="url(#877172754d)">
        <path fill="#260101" d="M 694.179688 177.539062 L 680.753906 179.414062 L 675.050781 138.609375 L 688.480469 136.734375 Z M 694.179688 177.539062 " fill-opacity="1" fill-rule="nonzero"/>
      </g>
    </g>
  </g>
  <g clip-path="url(#548213487d)" transform="matrix(1, 0, 0, 1, 0, -1)">
    <g clip-path="url(#8be3b81108)">
      <g clip-path="url(#75921e4b2b)">
        <path fill="#260101" d="M 679.917969 138.019531 L 680.207031 121.949219 L 688.796875 122.101562 L 688.507812 138.175781 Z M 679.917969 138.019531 " fill-opacity="1" fill-rule="nonzero"/>
      </g>
    </g>
  </g>
  <g clip-path="url(#bb186b19b2)" transform="matrix(1, 0, 0, 1, 0, -1)">
    <g clip-path="url(#ef0737fdf5)">
      <g clip-path="url(#ccfe5d38ab)">
        <path fill="#260101" d="M 683.382812 128.613281 L 688.820312 143.734375 L 678.269531 147.527344 L 672.835938 132.40625 Z M 683.382812 128.613281 " fill-opacity="1" fill-rule="nonzero"/>
      </g>
    </g>
  </g>
  <g clip-path="url(#0f4b4cc30b)" transform="matrix(1, 0, 0, 1, 0, -1)">
    <g clip-path="url(#28413db6c0)">
      <g clip-path="url(#145428e782)">
        <path fill="#260101" d="M 693.539062 130.476562 L 677.609375 139.726562 L 672.699219 131.265625 L 688.625 122.019531 Z M 693.539062 130.476562 " fill-opacity="1" fill-rule="nonzero"/>
      </g>
    </g>
  </g>
  <g clip-path="url(#788e4829fd)" transform="matrix(1, 0, 0, 1, 0, -1)">
    <g clip-path="url(#3ad1dc5e26)">
      <g clip-path="url(#c975f89f2a)">
        <path fill="#260101" d="M 684.125 127.046875 L 693.015625 140.433594 L 683.679688 146.636719 L 674.789062 133.25 Z M 684.125 127.046875 " fill-opacity="1" fill-rule="nonzero"/>
      </g>
    </g>
  </g>
  <g clip-path="url(#877b1ef42b)" transform="matrix(1, 0, 0, 1, 0, -1)">
    <g clip-path="url(#5c587d19fb)">
      <g clip-path="url(#d03261b3ff)">
        <path fill="#260101" d="M 682.8125 127.734375 L 687.734375 141.34375 L 677.335938 145.105469 L 672.414062 131.496094 Z M 682.8125 127.734375 " fill-opacity="1" fill-rule="nonzero"/>
      </g>
    </g>
  </g>
  <g clip-path="url(#848ebf7624)" transform="matrix(1, 0, 0, 1, 0, -1)">
    <g clip-path="url(#7244e3889a)">
      <g clip-path="url(#79cd1d2f08)">
        <path fill="#260101" d="M 672.257812 133.558594 L 672.753906 129.433594 L 683.734375 130.746094 L 683.238281 134.875 Z M 672.257812 133.558594 " fill-opacity="1" fill-rule="nonzero"/>
      </g>
    </g>
  </g>
  <g clip-path="url(#b3d1784fca)" transform="matrix(1, 0, 0, 1, 0, -1)">
    <g clip-path="url(#69d580b878)">
      <g clip-path="url(#ef31472011)">
        <path fill="#260101" d="M 681.15625 139.402344 L 677.453125 141.296875 L 672.421875 131.449219 L 676.121094 129.554688 Z M 681.15625 139.402344 " fill-opacity="1" fill-rule="nonzero"/>
      </g>
    </g>
  </g>
  <g clip-path="url(#65b76ecd80)" transform="matrix(1, 0, 0, 1, 0, -1)">
    <g clip-path="url(#e91ae666c3)">
      <g clip-path="url(#7d91a724b3)">
        <path fill="#260101" d="M 574.191406 193.273438 L 579.085938 178.976562 L 622.535156 193.851562 L 617.640625 208.152344 Z M 574.191406 193.273438 " fill-opacity="1" fill-rule="nonzero"/>
      </g>
    </g>
  </g>
  <g clip-path="url(#7eb8f2c1cc)" transform="matrix(1, 0, 0, 1, 0, -1)">
    <g clip-path="url(#b9514aa54c)">
      <g clip-path="url(#6cd4837692)">
        <path fill="#260101" d="M 620.664062 198.988281 L 636.503906 207.367188 L 632.023438 215.832031 L 616.1875 207.449219 Z M 620.664062 198.988281 " fill-opacity="1" fill-rule="nonzero"/>
      </g>
    </g>
  </g>
  <g clip-path="url(#d5aaa3b2ad)" transform="matrix(1, 0, 0, 1, 0, -1)">
    <g clip-path="url(#2a1530d3c0)">
      <g clip-path="url(#ad0daddb10)">
        <path fill="#260101" d="M 628.28125 207.175781 L 610.507812 204.964844 L 612.046875 192.566406 L 629.824219 194.773438 Z M 628.28125 207.175781 " fill-opacity="1" fill-rule="nonzero"/>
      </g>
    </g>
  </g>
  <g clip-path="url(#9647afc7af)" transform="matrix(1, 0, 0, 1, 0, -1)">
    <g clip-path="url(#91f763d079)">
      <g clip-path="url(#b9b740abde)">
        <path fill="#260101" d="M 621.3125 216.335938 L 620.136719 195.839844 L 631.023438 195.214844 L 632.199219 215.710938 Z M 621.3125 216.335938 " fill-opacity="1" fill-rule="nonzero"/>
      </g>
    </g>
  </g>
  <g clip-path="url(#c745d4c843)" transform="matrix(1, 0, 0, 1, 0, -1)">
    <g clip-path="url(#64f4d25948)">
      <g clip-path="url(#fb6478fafe)">
        <path fill="#260101" d="M 629.464844 208.699219 L 611.675781 210.800781 L 610.210938 198.390625 L 628 196.289062 Z M 629.464844 208.699219 " fill-opacity="1" fill-rule="nonzero"/>
      </g>
    </g>
  </g>
  <g clip-path="url(#15251cef2e)" transform="matrix(1, 0, 0, 1, 0, -1)">
    <g clip-path="url(#19533353ef)">
      <g clip-path="url(#3fe05419d7)">
        <path fill="#260101" d="M 629.441406 207.050781 L 613.429688 205.09375 L 614.925781 192.855469 L 630.9375 194.8125 Z M 629.441406 207.050781 " fill-opacity="1" fill-rule="nonzero"/>
      </g>
    </g>
  </g>
  <g clip-path="url(#b5d848603a)" transform="matrix(1, 0, 0, 1, 0, -1)">
    <g clip-path="url(#48fde50104)">
      <g clip-path="url(#3759c31a6d)">
        <path fill="#260101" d="M 628.964844 193.613281 L 632.820312 196.183594 L 625.984375 206.441406 L 622.128906 203.871094 Z M 628.964844 193.613281 " fill-opacity="1" fill-rule="nonzero"/>
      </g>
    </g>
  </g>
  <g clip-path="url(#a0837505f4)" transform="matrix(1, 0, 0, 1, 0, -1)">
    <g clip-path="url(#2bc0e20211)">
      <g clip-path="url(#1f6a3afe5b)">
        <path fill="#260101" d="M 618.667969 199.523438 L 618.652344 194.890625 L 630.980469 194.84375 L 630.996094 199.476562 Z M 618.667969 199.523438 " fill-opacity="1" fill-rule="nonzero"/>
      </g>
    </g>
  </g>
  <g clip-path="url(#0ca506ed89)" transform="matrix(1, 0, 0, 1, 0, -1)">
    <g clip-path="url(#6735eb60ac)">
      <path fill="#260101" d="M 599.917969 91.308594 L 665.285156 91.308594 L 665.285156 128.664062 L 599.917969 128.664062 Z M 599.917969 91.308594 " fill-opacity="1" fill-rule="nonzero"/>
    </g>
  </g>
  <g clip-path="url(#126a415f89)" transform="matrix(1, 0, 0, 1, 0, -1)">
    <g clip-path="url(#f278d09b26)">
      <g clip-path="url(#7f3c95947a)">
        <path fill="#260101" d="M 594.449219 212.113281 L 561.054688 155.777344 L 596.226562 134.925781 L 629.625 191.257812 Z M 594.449219 212.113281 " fill-opacity="1" fill-rule="nonzero"/>
      </g>
    </g>
  </g>
  <g clip-path="url(#9bc57a58cf)" transform="matrix(1, 0, 0, 1, 0, -1)">
    <g clip-path="url(#3d7023e03d)">
      <g clip-path="url(#3697022501)">
        <path fill="#260101" d="M 704.242188 156.355469 L 670.453125 212.457031 L 635.425781 191.359375 L 669.210938 135.257812 Z M 704.242188 156.355469 " fill-opacity="1" fill-rule="nonzero"/>
      </g>
    </g>
  </g>
  <g clip-path="url(#b8cf3f9155)" transform="matrix(1, 0, 0, 1, 0, -1)">
    <g clip-path="url(#cd49af69cb)">
      <path fill="#260101" d="M 666.957031 191.878906 L 598.207031 191.878906 L 598.207031 131.808594 L 666.957031 131.808594 Z M 666.957031 191.878906 " fill-opacity="1" fill-rule="nonzero"/>
    </g>
  </g>
  <g fill="#260101" fill-opacity="1" transform="matrix(1, 0, 0, 1, 1.4210854715202004e-14, 1.4210854715202004e-14)">
    <g transform="translate(690.068955, 214.029611)">
      <g>
        <path d="M 10.34375 0 L 10.34375 -148.34375 L 40.875 -148.34375 L 40.875 0 Z M 10.34375 0 "/>
      </g>
    </g>
  </g>
  <g fill="#260101" fill-opacity="1" transform="matrix(1, 0, 0, 1, 1.4210854715202004e-14, 1.4210854715202004e-14)">
    <g transform="translate(741.301711, 214.029611)">
      <g>
        <path d="M 10.34375 0 L 10.34375 -148.34375 L 40.875 -148.34375 L 40.875 0 Z M 10.34375 0 "/>
      </g>
    </g>
  </g>
</svg>