<svg xmlns="http://www.w3.org/2000/svg" xmlns:xlink="http://www.w3.org/1999/xlink" width="398" zoomAndPan="magnify" viewBox="0 0 298.5 182.249993" height="243" preserveAspectRatio="xMidYMid meet" version="1.2"><defs><clipPath id="0b4e63edf2"><path d="M 0.363281 0 L 297.640625 0 L 297.640625 181.503906 L 0.363281 181.503906 Z M 0.363281 0 "/></clipPath><clipPath id="4531ffb79c"><path d="M 0.363281 0 L 297.640625 0 L 297.640625 181.503906 L 0.363281 181.503906 Z M 0.363281 0 "/></clipPath><clipPath id="c069cb3d68"><path d="M 0.363281 1 L 136 1 L 136 181 L 0.363281 181 Z M 0.363281 1 "/></clipPath></defs><g id="30e3cc0bab"><g clip-rule="nonzero" clip-path="url(#0b4e63edf2)"><path style="fill:none;stroke-width:60;stroke-linecap:round;stroke-linejoin:miter;stroke:#ffffff;stroke-opacity:1;stroke-miterlimit:4;" d="M 30.002519 30.00027 L 216.138753 29.998372 " transform="matrix(-0.746681,0.00376986,-0.00376986,-0.746681,296.913845,112.037525)"/></g><path style="fill-rule:nonzero;fill:#ffffff;fill-opacity:1;stroke-width:60;stroke-linecap:round;stroke-linejoin:round;stroke:#ffffff;stroke-opacity:1;stroke-miterlimit:4;" d="M 246.135329 -59.999124 L 366.135861 30.002348 L 246.13682 120.000576 Z M 246.135329 -59.999124 " transform="matrix(-0.746681,0.00376986,-0.00376986,-0.746681,296.913845,112.037525)"/><g clip-rule="nonzero" clip-path="url(#4531ffb79c)"><path style="fill:none;stroke-width:60;stroke-linecap:round;stroke-linejoin:miter;stroke:#ffffff;stroke-opacity:1;stroke-miterlimit:4;" d="M 29.997503 30.001359 L 216.138968 29.999488 " transform="matrix(-0.746681,0.00376986,-0.00376986,-0.746681,296.800728,112.784451)"/></g><path style=" stroke:none;fill-rule:nonzero;fill:#ffffff;fill-opacity:1;" d="M 113.242188 158.511719 L 23.300781 91.765625 L 112.5625 24.109375 Z M 113.242188 158.511719 "/><g clip-rule="nonzero" clip-path="url(#c069cb3d68)"><path style="fill:none;stroke-width:60;stroke-linecap:round;stroke-linejoin:round;stroke:#ffffff;stroke-opacity:1;stroke-miterlimit:4;" d="M 246.135543 -59.998008 L 366.136102 29.998233 L 246.137034 120.001692 Z M 246.135543 -59.998008 " transform="matrix(-0.746681,0.00376986,-0.00376986,-0.746681,296.800728,112.784451)"/></g></g></svg>